<svg width="240" height="180" viewBox="0 0 240 180" fill="none" xmlns="http://www.w3.org/2000/svg">
<path d="M118.014 167.862L207.54 114.948C210.39 113.346 212.838 110.748 210.054 108.996L120.21 57.216C118.86 56.382 116.814 55.836 115.446 56.616L21.462 111.174C18.612 112.83 18.102 117.45 20.952 119.106L106.2 167.778C107.992 168.819 110.024 169.374 112.096 169.389C114.168 169.404 116.208 168.877 118.014 167.862Z" fill="#6B9738"/>
<path d="M210.054 109.002L120.21 57.216C118.86 56.382 116.814 55.836 115.446 56.616L21.462 111.174C18.612 112.83 18.102 117.45 20.952 119.106L106.2 167.778C107.99 168.817 110.02 169.371 112.09 169.386C114.16 169.4 116.197 168.875 118.002 167.862L207.54 114.948C210.39 113.352 212.838 110.724 210.054 109.002ZM189 114.522L117.444 156.804C116.002 157.614 114.373 158.033 112.719 158.022C111.065 158.01 109.443 157.568 108.012 156.738L39.876 117.84C37.596 116.52 38.004 112.824 40.284 111.498L115.386 67.914C116.484 67.278 118.116 67.716 119.196 68.382L190.998 109.782C193.2 111.144 191.262 113.244 189 114.522Z" fill="white"/>
<path d="M158.508 138L70.764 87C68.112 88.2 65.466 89.426 62.826 90.678L151.89 142.482L158.508 138Z" fill="white"/>
<path d="M142.476 148.974L51.6 96.192C49.1395 97.4219 46.7605 98.8087 44.478 100.344L135.888 153.516C138.096 151.996 140.292 150.482 142.476 148.974Z" fill="white"/>
<path d="M157.8 84.834L62.46 140.232C64.86 141.636 67.288 143.01 69.744 144.354L165 88.95C162.513 87.7368 160.108 86.3618 157.8 84.834Z" fill="white"/>
<path d="M185.556 97.272L192.966 92.964L185.928 88.764L177.816 93.474C180.378 94.8 182.946 96.078 185.556 97.272Z" fill="#F7DEBA"/>
<path d="M176.226 94.3979L80.4 150.072C82.94 151.392 85.49 152.694 88.05 153.978L183.924 98.2079C181.344 96.9899 178.8 95.6879 176.226 94.3979Z" fill="white"/>
<path d="M152.784 119.142C152.784 118.724 152.446 118.386 152.028 118.386C151.611 118.386 151.272 118.724 151.272 119.142V127.674C151.272 128.091 151.611 128.43 152.028 128.43C152.446 128.43 152.784 128.091 152.784 127.674V119.142Z" fill="#BC532A"/>
<path d="M155.772 120.438C155.424 118.92 153.87 112.248 151.122 114.21C149.712 115.218 149.322 116.784 148.722 118.326C148.21 119.594 147.914 120.938 147.846 122.304C147.804 125.082 150.63 125.424 152.79 125.412C154.038 125.412 155.79 124.668 156.108 123.318C156.183 122.447 156.081 121.569 155.808 120.738L155.772 120.438Z" fill="#2C9135"/>
<path d="M155.904 120.732L155.838 120.438C155.526 119.1 154.278 113.724 152.094 113.838C152.742 116.67 153.702 119.664 153.192 122.568C153.028 123.581 152.632 124.542 152.034 125.376C152.322 125.376 152.634 125.376 152.886 125.376C154.134 125.376 155.886 124.632 156.204 123.282C156.275 122.42 156.173 121.554 155.904 120.732Z" fill="#156819"/>
<path d="M89.412 83.0399C89.412 82.6224 89.0736 82.2839 88.656 82.2839C88.2385 82.2839 87.9 82.6224 87.9 83.0399V91.5719C87.9 91.9895 88.2385 92.3279 88.656 92.3279C89.0736 92.3279 89.412 91.9895 89.412 91.5719V83.0399Z" fill="#BC532A"/>
<path d="M92.4 84.336C92.052 82.818 90.498 76.146 87.75 78.108C86.34 79.116 85.95 80.682 85.35 82.224C84.8381 83.4918 84.542 84.8364 84.474 86.202C84.432 88.98 87.258 89.322 89.418 89.31C90.666 89.31 92.418 88.566 92.736 87.216C92.8108 86.3446 92.7088 85.467 92.436 84.636L92.4 84.336Z" fill="#2C9135"/>
<path d="M92.532 84.63L92.466 84.336C92.154 82.998 90.906 77.622 88.722 77.736C89.37 80.568 90.33 83.562 89.82 86.466C89.6565 87.479 89.2601 88.4403 88.662 89.274C88.95 89.274 89.262 89.274 89.514 89.274C90.762 89.274 92.514 88.53 92.832 87.18C92.9027 86.3186 92.8008 85.4516 92.532 84.63Z" fill="#156819"/>
<path d="M156.912 90.942C156.912 90.5245 156.574 90.186 156.156 90.186C155.739 90.186 155.4 90.5245 155.4 90.942V99.474C155.4 99.8916 155.739 100.23 156.156 100.23C156.574 100.23 156.912 99.8916 156.912 99.474V90.942Z" fill="#BC532A"/>
<path d="M159.894 92.244C159.546 90.726 157.992 84.054 155.244 86.016C153.834 87.024 153.444 88.59 152.844 90.132C152.332 91.3998 152.036 92.7444 151.968 94.11C151.926 96.888 154.752 97.23 156.912 97.218C158.16 97.218 159.912 96.474 160.23 95.124C160.305 94.2525 160.203 93.375 159.93 92.544L159.894 92.244Z" fill="#2C9135"/>
<path d="M160.026 92.538L159.96 92.244C159.648 90.906 158.4 85.53 156.216 85.644C156.864 88.476 157.824 91.47 157.314 94.374C157.15 95.387 156.754 96.3482 156.156 97.182C156.444 97.182 156.756 97.182 157.008 97.182C158.256 97.182 160.008 96.438 160.326 95.088C160.397 94.2265 160.295 93.3595 160.026 92.538Z" fill="#156819"/>
<path d="M90.138 130.116C90.138 129.698 89.7996 129.36 89.382 129.36C88.9645 129.36 88.626 129.698 88.626 130.116V138.648C88.626 139.066 88.9645 139.404 89.382 139.404C89.7996 139.404 90.138 139.066 90.138 138.648V130.116Z" fill="#BC532A"/>
<path d="M93.126 131.4C92.778 129.882 91.224 123.21 88.476 125.172C87.066 126.18 86.676 127.746 86.076 129.288C85.5641 130.556 85.268 131.9 85.2 133.266C85.158 136.044 87.984 136.386 90.144 136.374C91.392 136.374 93.144 135.63 93.462 134.28C93.5368 133.409 93.4348 132.531 93.162 131.7L93.126 131.4Z" fill="#2C9135"/>
<path d="M93.258 131.712L93.192 131.418C92.88 130.08 91.632 124.704 89.448 124.818C90.096 127.65 91.056 130.644 90.546 133.548C90.3825 134.561 89.9861 135.522 89.388 136.356C89.676 136.356 89.988 136.356 90.24 136.356C91.488 136.356 93.24 135.612 93.558 134.262C93.6287 133.4 93.5268 132.534 93.258 131.712Z" fill="#156819"/>
<path d="M138.222 102.144C138.222 101.727 137.884 101.388 137.466 101.388C137.048 101.388 136.71 101.727 136.71 102.144V110.676C136.71 111.094 137.048 111.432 137.466 111.432C137.884 111.432 138.222 111.094 138.222 110.676V102.144Z" fill="#BC532A"/>
<path d="M141.204 103.44C140.856 101.922 139.302 95.25 136.554 97.212C135.144 98.22 134.754 99.786 134.154 101.328C133.642 102.596 133.346 103.94 133.278 105.306C133.236 108.084 136.062 108.426 138.222 108.414C139.47 108.414 141.222 107.67 141.54 106.32C141.615 105.449 141.513 104.571 141.24 103.74L141.204 103.44Z" fill="#2C9135"/>
<path d="M141.336 103.734L141.27 103.44C140.958 102.102 139.71 96.726 137.526 96.84C138.174 99.672 139.134 102.666 138.624 105.57C138.46 106.583 138.064 107.544 137.466 108.378C137.754 108.378 138.066 108.378 138.318 108.378C139.566 108.378 141.318 107.634 141.636 106.284C141.707 105.423 141.605 104.556 141.336 103.734Z" fill="#156819"/>
<path style="mix-blend-mode:multiply" d="M76.452 119.892L59.802 129.162L70.68 135.432L81.252 129.306" fill="url(#paint0_linear)"/>
<path d="M66.51 125.802V77.6641L77.01 83.5321V131.856L66.51 125.802Z" fill="#00AB84"/>
<path opacity="0.33" d="M66.51 125.802V77.6641L77.01 83.5321V131.856L66.51 125.802Z" fill="#1E4549"/>
<path d="M77.01 83.5321L87.672 77.6641V125.598L77.01 131.856V83.5321Z" fill="#00AB84"/>
<path d="M66.51 77.6641L77.01 71.2261L87.672 77.6641L77.01 83.5321L66.51 77.6641Z" fill="#CCCCCC"/>
<path d="M87.672 77.6641L77.01 83.5321L66.51 77.6641V79.0861L77.01 84.8641L87.672 78.9901V77.6641Z" fill="#1E4549"/>
<path d="M86.4 83.868V81.618L85.068 82.35V84.51L86.4 83.868Z" fill="#E0E0E0"/>
<path d="M83.07 85.668V83.418L81.732 84.15V86.31L83.07 85.668Z" fill="#E0E0E0"/>
<path d="M79.614 87.786V85.542L78.276 86.274V88.434L79.614 87.786Z" fill="#E0E0E0"/>
<path d="M86.4 91.926V89.682L85.068 90.414V92.574L86.4 91.926Z" fill="#E0E0E0"/>
<path d="M83.07 93.7261V91.4761L81.732 92.2141V94.3741L83.07 93.7261Z" fill="#E0E0E0"/>
<path d="M79.614 95.85V93.6L78.276 94.332V96.492L79.614 95.85Z" fill="#E0E0E0"/>
<path d="M86.4 101.154V98.9041L85.068 99.6361V101.796L86.4 101.154Z" fill="#E0E0E0"/>
<path d="M83.07 102.948V100.698L81.732 101.436V103.596L83.07 102.948Z" fill="#E0E0E0"/>
<path d="M79.614 105.072V102.822L78.276 103.56V105.72L79.614 105.072Z" fill="#E0E0E0"/>
<path d="M86.4 110.286V108.036L85.068 108.768V110.928L86.4 110.286Z" fill="#E0E0E0"/>
<path d="M83.07 112.08V109.83L81.732 110.568V112.728L83.07 112.08Z" fill="#E0E0E0"/>
<path d="M79.614 114.204V111.954L78.276 112.692V114.852L79.614 114.204Z" fill="#E0E0E0"/>
<path d="M86.4 119.412V117.168L85.068 117.9V120.06L86.4 119.412Z" fill="#E0E0E0"/>
<path d="M83.07 121.212V118.962L81.732 119.7V121.86L83.07 121.212Z" fill="#E0E0E0"/>
<path d="M79.614 123.336V121.086L78.276 121.818V123.978L79.614 123.336Z" fill="#E0E0E0"/>
<path d="M67.122 83.892V81.642L68.46 82.374V84.54L67.122 83.892Z" fill="#E0E0E0"/>
<path d="M70.452 85.692V83.442L71.79 84.174V86.334L70.452 85.692Z" fill="#E0E0E0"/>
<path d="M73.914 87.816V85.566L75.252 86.298V88.458L73.914 87.816Z" fill="#E0E0E0"/>
<path d="M67.122 91.9501V89.7061L68.46 90.4381V92.5981L67.122 91.9501Z" fill="#E0E0E0"/>
<path d="M70.452 93.75V91.5L71.79 92.238V94.398L70.452 93.75Z" fill="#E0E0E0"/>
<path d="M73.914 95.874V93.624L75.252 94.356V96.522L73.914 95.874Z" fill="#E0E0E0"/>
<path d="M67.122 101.178V98.928L68.46 99.66V101.82L67.122 101.178Z" fill="#E0E0E0"/>
<path d="M70.452 102.972V100.728L71.79 101.46V103.62L70.452 102.972Z" fill="#E0E0E0"/>
<path d="M73.914 105.096V102.846L75.252 103.584V105.744L73.914 105.096Z" fill="#E0E0E0"/>
<path d="M67.122 110.31V108.06L68.46 108.792V110.952L67.122 110.31Z" fill="#E0E0E0"/>
<path d="M70.452 112.104V109.854L71.79 110.592V112.752L70.452 112.104Z" fill="#E0E0E0"/>
<path d="M73.914 114.228V111.978L75.252 112.716V114.876L73.914 114.228Z" fill="#E0E0E0"/>
<path d="M67.122 119.436V117.192L68.46 117.924V120.084L67.122 119.436Z" fill="#E0E0E0"/>
<path d="M70.452 121.236V118.986L71.79 119.724V121.884L70.452 121.236Z" fill="#E0E0E0"/>
<path d="M73.914 123.36V121.11L75.252 121.848V124.008L73.914 123.36Z" fill="#E0E0E0"/>
<path d="M87.672 94.356L76.92 99.918L66.51 94.452V96.678L77.01 102.138L87.672 96.678V94.356Z" fill="#2E5B5A"/>
<path d="M87.672 103.596L76.92 109.152L66.51 103.692V105.918L77.01 111.372L87.672 105.918V103.596Z" fill="#2E5B5A"/>
<path d="M87.672 112.728L76.92 118.284L66.51 112.824V115.044L77.01 120.504L87.672 115.044V112.728Z" fill="#2E5B5A"/>
<path d="M87.588 121.11L76.836 126.672L66.432 121.206V123.432L76.926 128.892L87.588 123.432V121.11Z" fill="#2E5B5A"/>
<path d="M87.672 85.542L76.92 91.098L66.51 85.638V87.864L77.01 93.318L87.672 87.864V85.542Z" fill="#2E5B5A"/>
<path style="mix-blend-mode:multiply" d="M113.172 140.472L96.522 149.742L107.814 156.456L118.818 150.054" fill="url(#paint1_linear)"/>
<path d="M99.654 137.016V131.634L123.978 130.632V136.014" fill="#AFAFAF"/>
<path d="M99.654 148.098C99.924 148.188 110.886 154.602 110.886 154.602L123.984 147.102L112.65 140.652L99.654 148.098Z" fill="#AFAFAF"/>
<path d="M99.654 131.634C99.924 131.724 110.886 138.138 110.886 138.138L123.984 130.638L112.644 124.2L99.654 131.634Z" fill="#BFBFBF"/>
<path d="M110.886 154.596V138.138L99.654 131.634V148.098L110.886 154.596Z" fill="#AAAAAA"/>
<path d="M123.978 147.096V130.632L110.886 138.138V154.596L123.978 147.096Z" fill="#8E8E8E"/>
<path d="M121.224 137.664V140.1L122.844 139.254V136.722L121.224 137.664Z" fill="#3C637A"/>
<path d="M121.224 134.1V136.53L122.844 135.69V133.158L121.224 134.1Z" fill="#3C637A"/>
<path d="M121.224 144.978V147.408L122.844 146.568V144.036L121.224 144.978Z" fill="#3C637A"/>
<path d="M121.224 141.348V143.778L122.844 142.932V140.4L121.224 141.348Z" fill="#3C637A"/>
<path d="M117.6 139.59V142.02L119.226 141.18V138.648L117.6 139.59Z" fill="#3C637A"/>
<path d="M117.6 136.026V138.456L119.226 137.61V135.078L117.6 136.026Z" fill="#3C637A"/>
<path d="M117.6 146.904V149.334L119.226 148.494V145.956L117.6 146.904Z" fill="#3C637A"/>
<path d="M117.6 143.274V145.704L119.226 144.858V142.326L117.6 143.274Z" fill="#3C637A"/>
<path d="M113.676 141.834V144.264L115.296 143.424V140.892L113.676 141.834Z" fill="#3C637A"/>
<path d="M113.676 138.27V140.7L115.296 139.854V137.322L113.676 138.27Z" fill="#3C637A"/>
<path d="M113.676 149.148V151.578L115.296 150.732V148.2L113.676 149.148Z" fill="#3C637A"/>
<path d="M113.676 145.512V147.942L115.296 147.102V144.57L113.676 145.512Z" fill="#3C637A"/>
<path d="M102.612 138.504V140.934L100.992 140.094V137.556L102.612 138.504Z" fill="#3C637A"/>
<path d="M102.612 134.934V137.364L100.992 136.524V133.992L102.612 134.934Z" fill="#3C637A"/>
<path d="M102.612 145.818V148.242L100.992 147.402V144.87L102.612 145.818Z" fill="#3C637A"/>
<path d="M102.612 142.182V144.612L100.992 143.772V141.24L102.612 142.182Z" fill="#3C637A"/>
<path d="M105.816 140.31V142.74L104.196 141.9V139.368L105.816 140.31Z" fill="#3C637A"/>
<path d="M105.816 136.746V139.176L104.196 138.33V135.798L105.816 136.746Z" fill="#3C637A"/>
<path d="M105.816 147.624V150.054L104.196 149.208V146.676L105.816 147.624Z" fill="#3C637A"/>
<path d="M105.816 143.988V146.418L104.196 145.578V143.046L105.816 143.988Z" fill="#3C637A"/>
<path d="M109.188 142.422V144.852L107.568 144.006V141.474L109.188 142.422Z" fill="#3C637A"/>
<path d="M109.188 138.852V141.282L107.568 140.442V137.91L109.188 138.852Z" fill="#3C637A"/>
<path d="M109.188 149.73V152.16L107.568 151.32V148.788L109.188 149.73Z" fill="#3C637A"/>
<path d="M109.188 146.1V148.53L107.568 147.69V145.158L109.188 146.1Z" fill="#3C637A"/>
<path style="mix-blend-mode:multiply" d="M171.768 107.922L155.112 117.192L169.206 126.21L183.306 118.386" fill="url(#paint2_linear)"/>
<path d="M163.824 113.694V89.7419L177.738 97.5119V121.758L163.824 113.694Z" fill="#00AB84"/>
<path opacity="0.33" d="M163.824 113.694V89.7419L177.738 97.5119V121.758L163.824 113.694Z" fill="#1E4549"/>
<path d="M177.738 97.5119L191.862 89.7419V113.478L177.738 121.758V97.5119Z" fill="#00AB84"/>
<path d="M163.824 89.742L177.738 81.204L191.862 89.742L177.738 97.512L163.824 89.742Z" fill="#CCCCCC"/>
<path d="M191.862 89.7419L177.738 97.512L163.824 89.7419V91.6259L177.738 99.282L191.862 91.4939V89.7419Z" fill="#1E4549"/>
<path d="M190.188 97.962V94.98L188.412 95.952V98.814L190.188 97.962Z" fill="#E0E0E0"/>
<path d="M185.772 100.344V97.3621L183.996 98.3401V101.202L185.772 100.344Z" fill="#E0E0E0"/>
<path d="M181.188 103.158V100.182L179.418 101.154V104.016L181.188 103.158Z" fill="#E0E0E0"/>
<path d="M190.188 108.648V105.666L188.412 106.638V109.5L190.188 108.648Z" fill="#E0E0E0"/>
<path d="M185.772 111.03V108.048L183.996 109.02V111.882L185.772 111.03Z" fill="#E0E0E0"/>
<path d="M181.188 113.844V110.862L179.418 111.834V114.696L181.188 113.844Z" fill="#E0E0E0"/>
<path d="M164.634 97.992V95.016L166.404 95.988V98.85L164.634 97.992Z" fill="#E0E0E0"/>
<path d="M169.05 100.38V97.3979L170.82 98.3699V101.232L169.05 100.38Z" fill="#E0E0E0"/>
<path d="M173.634 103.194V100.212L175.404 101.184V104.046L173.634 103.194Z" fill="#E0E0E0"/>
<path d="M164.634 108.678V105.696L166.404 106.668V109.53L164.634 108.678Z" fill="#E0E0E0"/>
<path d="M169.05 111.06V108.078L170.82 109.05V111.918L169.05 111.06Z" fill="#E0E0E0"/>
<path d="M173.634 113.874V110.892L175.404 111.864V114.732L173.634 113.874Z" fill="#E0E0E0"/>
<path d="M167.382 89.9041V72.4081L177.546 78.0841V95.7901L167.382 89.9041Z" fill="#00AB84"/>
<path opacity="0.33" d="M167.382 89.9041V72.4081L177.546 78.0841V95.7901L167.382 89.9041Z" fill="#1E4549"/>
<path d="M177.546 78.0841L187.86 72.4081V89.7421L177.546 95.7901V78.0841Z" fill="#00AB84"/>
<path d="M167.382 72.4081L177.546 66.1741L187.86 72.4081L177.546 78.0841L167.382 72.4081Z" fill="#CCCCCC"/>
<path d="M187.86 72.4081L177.546 78.0841L167.382 72.4081V73.7821L177.546 79.3741L187.86 73.6861V72.4081Z" fill="#1E4549"/>
<path d="M186.636 78.414V76.236L185.34 76.944V79.038L186.636 78.414Z" fill="#E0E0E0"/>
<path d="M183.414 80.1541V77.9761L182.118 78.6841V80.7781L183.414 80.1541Z" fill="#E0E0E0"/>
<path d="M180.066 82.2059V80.0339L178.77 80.7419V82.8359L180.066 82.2059Z" fill="#E0E0E0"/>
<path d="M186.636 86.214V84.036L185.34 84.75V86.838L186.636 86.214Z" fill="#E0E0E0"/>
<path d="M183.414 87.954V85.776L182.118 86.49V88.578L183.414 87.954Z" fill="#E0E0E0"/>
<path d="M180.066 90.012V87.834L178.77 88.542V90.636L180.066 90.012Z" fill="#E0E0E0"/>
<path d="M167.976 78.438V76.26L169.266 76.968V79.062L167.976 78.438Z" fill="#E0E0E0"/>
<path d="M171.198 80.178V78L172.494 78.708V80.802L171.198 80.178Z" fill="#E0E0E0"/>
<path d="M174.546 82.23V80.058L175.842 80.766V82.854L174.546 82.23Z" fill="#E0E0E0"/>
<path d="M167.976 86.2381V84.0601L169.266 84.7741V86.8621L167.976 86.2381Z" fill="#E0E0E0"/>
<path d="M171.198 87.9781V85.8L172.494 86.5141V88.6021L171.198 87.9781Z" fill="#E0E0E0"/>
<path d="M174.546 90.036V87.858L175.842 88.566V90.66L174.546 90.036Z" fill="#E0E0E0"/>
<path d="M169.872 72.6721V59.4301L177.564 63.7261V77.1301L169.872 72.6721Z" fill="#00AB84"/>
<path opacity="0.33" d="M169.872 72.6721V59.4301L177.564 63.7261V77.1301L169.872 72.6721Z" fill="#1E4549"/>
<path d="M177.564 63.7261L185.376 59.4301V72.552L177.564 77.1301V63.7261Z" fill="#00AB84"/>
<path d="M169.872 59.43L177.564 54.708L185.376 59.43L177.564 63.726L169.872 59.43Z" fill="#CCCCCC"/>
<path d="M185.376 59.4301L177.564 63.7261L169.872 59.4301V60.4681L177.564 64.704L185.376 60.3961V59.4301Z" fill="#1E4549"/>
<path d="M184.446 63.972V62.328L183.468 62.862V64.446L184.446 63.972Z" fill="#E0E0E0"/>
<path d="M182.004 65.292V63.642L181.026 64.182V65.766L182.004 65.292Z" fill="#E0E0E0"/>
<path d="M179.472 66.846V65.202L178.494 65.736V67.32L179.472 66.846Z" fill="#E0E0E0"/>
<path d="M184.446 69.8821V68.2321L183.468 68.7721V70.3561L184.446 69.8821Z" fill="#E0E0E0"/>
<path d="M182.004 71.202V69.552L181.026 70.086V71.67L182.004 71.202Z" fill="#E0E0E0"/>
<path d="M179.472 72.756V71.106L178.494 71.646V73.23L179.472 72.756Z" fill="#E0E0E0"/>
<path d="M170.316 63.9899V62.3459L171.3 62.8799V64.464L170.316 63.9899Z" fill="#E0E0E0"/>
<path d="M172.758 65.31V63.66L173.736 64.2V65.784L172.758 65.31Z" fill="#E0E0E0"/>
<path d="M175.29 66.8641V65.2201L176.274 65.7541V67.3381L175.29 66.8641Z" fill="#E0E0E0"/>
<path d="M170.316 69.9V68.25L171.3 68.79V70.374L170.316 69.9Z" fill="#E0E0E0"/>
<path d="M172.758 71.2141V69.5701L173.736 70.1041V71.6881L172.758 71.2141Z" fill="#E0E0E0"/>
<path d="M175.29 72.774V71.124L176.274 71.664V73.248L175.29 72.774Z" fill="#E0E0E0"/>
<path d="M177.576 62.346V50.478L171.426 58.914" fill="#39726F"/>
<path d="M177.576 50.478L183.816 58.914L177.576 62.346V50.478Z" fill="#2E5B5A"/>
<path d="M162.966 113.112C162.966 112.694 162.628 112.356 162.21 112.356C161.793 112.356 161.454 112.694 161.454 113.112V121.644C161.454 122.061 161.793 122.4 162.21 122.4C162.628 122.4 162.966 122.061 162.966 121.644V113.112Z" fill="#BC532A"/>
<path d="M165.954 114.414C165.606 112.896 164.052 106.224 161.304 108.186C159.894 109.194 159.504 110.76 158.904 112.302C158.392 113.57 158.096 114.914 158.028 116.28C157.986 119.058 160.812 119.4 162.972 119.388C164.22 119.388 165.972 118.644 166.29 117.294C166.365 116.423 166.263 115.545 165.99 114.714L165.954 114.414Z" fill="#2C9135"/>
<path d="M166.08 114.708L166.014 114.414C165.702 113.076 164.454 107.7 162.27 107.814C162.918 110.646 163.878 113.64 163.368 116.544C163.205 117.557 162.808 118.518 162.21 119.352C162.498 119.352 162.81 119.352 163.062 119.352C164.31 119.352 166.062 118.608 166.38 117.258C166.451 116.397 166.349 115.53 166.08 114.708Z" fill="#156819"/>
<path style="mix-blend-mode:multiply" d="M130.38 87.39L113.724 96.66L125.016 103.374L136.026 96.972" fill="url(#paint3_linear)"/>
<path d="M119.73 90.318V26.286L133.692 34.086V98.364L119.73 90.318Z" fill="#00AB84"/>
<path opacity="0.33" d="M119.73 90.318V26.286L133.692 34.086V98.364L119.73 90.318Z" fill="#1E4549"/>
<path d="M133.692 34.086L147.876 26.286V90.042L133.692 98.364V34.086Z" fill="#00AB84"/>
<path d="M119.73 26.286L133.692 17.718L147.876 26.286L133.692 34.086L119.73 26.286Z" fill="#CCCCCC"/>
<path d="M147.876 26.286L133.692 34.086L119.73 26.286V28.176L133.692 35.862L147.876 28.044V26.286Z" fill="#1E4549"/>
<path d="M146.19 34.536V31.548L144.408 32.52V35.394L146.19 34.536Z" fill="#E0E0E0"/>
<path d="M141.756 36.93V33.936L139.98 34.914V37.788L141.756 36.93Z" fill="#E0E0E0"/>
<path d="M137.154 39.75V36.762L135.378 37.74V40.608L137.154 39.75Z" fill="#E0E0E0"/>
<path d="M146.19 45.258V42.264L144.408 43.242V46.116L146.19 45.258Z" fill="#E0E0E0"/>
<path d="M141.756 47.652V44.658L139.98 45.636V48.51L141.756 47.652Z" fill="#E0E0E0"/>
<path d="M137.154 50.472V47.484L135.378 48.462V51.33L137.154 50.472Z" fill="#E0E0E0"/>
<path d="M146.19 57.5281V54.5341L144.408 55.5121V58.3861L146.19 57.5281Z" fill="#E0E0E0"/>
<path d="M141.756 59.916V56.928L139.98 57.9V60.774L141.756 59.916Z" fill="#E0E0E0"/>
<path d="M137.154 62.742V59.748L135.378 60.726V63.6L137.154 62.742Z" fill="#E0E0E0"/>
<path d="M146.19 69.672V66.684L144.408 67.656V70.53L146.19 69.672Z" fill="#E0E0E0"/>
<path d="M141.756 72.066V69.072L139.98 70.05V72.924L141.756 72.066Z" fill="#E0E0E0"/>
<path d="M137.154 74.8859V71.8979L135.378 72.8699V75.7439L137.154 74.8859Z" fill="#E0E0E0"/>
<path d="M146.19 81.816V78.828L144.408 79.8V82.674L146.19 81.816Z" fill="#E0E0E0"/>
<path d="M141.756 84.2099V81.2219L139.98 82.1939V85.0679L141.756 84.2099Z" fill="#E0E0E0"/>
<path d="M137.154 87.036V84.042L135.378 85.02V87.894L137.154 87.036Z" fill="#E0E0E0"/>
<path d="M120.546 34.566V31.578L122.322 32.556V35.424L120.546 34.566Z" fill="#E0E0E0"/>
<path d="M124.974 36.9601V33.9661L126.75 34.9441V37.8181L124.974 36.9601Z" fill="#E0E0E0"/>
<path d="M129.576 39.786V36.792L131.352 37.77V40.644L129.576 39.786Z" fill="#E0E0E0"/>
<path d="M120.546 45.288V42.3L122.322 43.278V46.146L120.546 45.288Z" fill="#E0E0E0"/>
<path d="M124.974 47.682V44.688L126.75 45.666V48.54L124.974 47.682Z" fill="#E0E0E0"/>
<path d="M129.576 50.508V47.514L131.352 48.492V51.366L129.576 50.508Z" fill="#E0E0E0"/>
<path d="M120.546 57.558V54.564L122.322 55.542V58.416L120.546 57.558Z" fill="#E0E0E0"/>
<path d="M124.974 59.952V56.958L126.75 57.936V60.81L124.974 59.952Z" fill="#E0E0E0"/>
<path d="M129.576 62.7779V59.7839L131.352 60.7619V63.6359L129.576 62.7779Z" fill="#E0E0E0"/>
<path d="M120.546 69.7021V66.7141L122.322 67.6861V70.5601L120.546 69.7021Z" fill="#E0E0E0"/>
<path d="M124.974 72.0961V69.1021L126.75 70.0801V72.9541L124.974 72.0961Z" fill="#E0E0E0"/>
<path d="M129.576 74.922V71.928L131.352 72.906V75.78L129.576 74.922Z" fill="#E0E0E0"/>
<path d="M120.546 81.852V78.858L122.322 79.836V82.71L120.546 81.852Z" fill="#E0E0E0"/>
<path d="M124.974 84.2401V81.2521L126.75 82.2241V85.0981L124.974 84.2401Z" fill="#E0E0E0"/>
<path d="M129.576 87.066V84.078L131.352 85.05V87.924L129.576 87.066Z" fill="#E0E0E0"/>
<path d="M147.876 48.486L133.572 55.884L119.73 48.618V51.576L133.692 58.836L147.876 51.576V48.486Z" fill="#2E5B5A"/>
<path d="M147.876 60.774L133.572 68.172L119.73 60.906V63.864L133.692 71.124L147.876 63.864V60.774Z" fill="#2E5B5A"/>
<path d="M147.876 72.9241L133.572 80.3161L119.73 73.0501V76.0081L133.692 83.2681L147.876 76.0081V72.9241Z" fill="#2E5B5A"/>
<path d="M147.762 84.078L133.464 91.47L119.622 84.204V87.162L133.584 94.422L147.762 87.162V84.078Z" fill="#2E5B5A"/>
<path d="M147.876 36.762L133.572 44.154L119.73 36.888V39.846L133.692 47.106L147.876 39.846V36.762Z" fill="#2E5B5A"/>
<path style="mix-blend-mode:multiply" d="M111.282 98.802L94.626 108.072L105.918 114.78L116.928 108.378" fill="url(#paint4_linear)"/>
<path d="M101.832 104.568V56.436L112.332 62.298V110.622L101.832 104.568Z" fill="#00AB84"/>
<path opacity="0.33" d="M101.832 104.568V56.436L112.332 62.298V110.622L101.832 104.568Z" fill="#1E4549"/>
<path d="M112.332 62.298L122.994 56.436V104.364L112.332 110.622V62.298Z" fill="#00AB84"/>
<path d="M101.832 56.4361L112.332 49.9921L122.994 56.4361L112.332 62.2981L101.832 56.4361Z" fill="#CCCCCC"/>
<path d="M122.994 56.436L112.332 62.298L101.832 56.436V57.852L112.332 63.63L122.994 57.756V56.436Z" fill="#1E4549"/>
<path d="M121.722 62.634V60.384L120.384 61.122V63.282L121.722 62.634Z" fill="#E0E0E0"/>
<path d="M118.392 64.434V62.184L117.054 62.916V65.076L118.392 64.434Z" fill="#E0E0E0"/>
<path d="M114.936 66.5581V64.3081L113.598 65.0401V67.2001L114.936 66.5581Z" fill="#E0E0E0"/>
<path d="M121.722 70.698V68.448L120.384 69.18V71.34L121.722 70.698Z" fill="#E0E0E0"/>
<path d="M118.392 72.492V70.248L117.054 70.98V73.14L118.392 72.492Z" fill="#E0E0E0"/>
<path d="M114.936 74.616V72.366L113.598 73.104V75.264L114.936 74.616Z" fill="#E0E0E0"/>
<path d="M121.722 79.92V77.67L120.384 78.402V80.562L121.722 79.92Z" fill="#E0E0E0"/>
<path d="M118.392 81.7141V79.4701L117.054 80.2021V82.3621L118.392 81.7141Z" fill="#E0E0E0"/>
<path d="M114.936 83.844V81.594L113.598 82.326V84.486L114.936 83.844Z" fill="#E0E0E0"/>
<path d="M121.722 89.052V86.802L120.384 87.534V89.694L121.722 89.052Z" fill="#E0E0E0"/>
<path d="M118.392 90.8461V88.6021L117.054 89.3341V91.4941L118.392 90.8461Z" fill="#E0E0E0"/>
<path d="M114.936 92.9701V90.7261L113.598 91.4581V93.6181L114.936 92.9701Z" fill="#E0E0E0"/>
<path d="M121.722 98.184V95.934L120.384 96.666V98.826L121.722 98.184Z" fill="#E0E0E0"/>
<path d="M118.392 99.978V97.728L117.054 98.466V100.626L118.392 99.978Z" fill="#E0E0E0"/>
<path d="M114.936 102.102V99.858L113.598 100.59V102.75L114.936 102.102Z" fill="#E0E0E0"/>
<path d="M102.444 62.6581V60.4081L103.782 61.1461V63.3061L102.444 62.6581Z" fill="#E0E0E0"/>
<path d="M105.774 64.458V62.208L107.112 62.94V65.1L105.774 64.458Z" fill="#E0E0E0"/>
<path d="M109.236 66.582V64.332L110.568 65.064V67.224L109.236 66.582Z" fill="#E0E0E0"/>
<path d="M102.444 70.722V68.472L103.782 69.204V71.364L102.444 70.722Z" fill="#E0E0E0"/>
<path d="M105.774 72.516V70.272L107.112 71.004V73.164L105.774 72.516Z" fill="#E0E0E0"/>
<path d="M109.236 74.64V72.396L110.568 73.128V75.288L109.236 74.64Z" fill="#E0E0E0"/>
<path d="M102.444 79.944V77.694L103.782 78.426V80.586L102.444 79.944Z" fill="#E0E0E0"/>
<path d="M105.774 81.744V79.494L107.112 80.226V82.386L105.774 81.744Z" fill="#E0E0E0"/>
<path d="M109.236 83.868V81.618L110.568 82.35V84.51L109.236 83.868Z" fill="#E0E0E0"/>
<path d="M102.444 89.076V86.826L103.782 87.558V89.718L102.444 89.076Z" fill="#E0E0E0"/>
<path d="M105.774 90.876V88.626L107.112 89.358V91.518L105.774 90.876Z" fill="#E0E0E0"/>
<path d="M109.236 92.994V90.75L110.568 91.482V93.642L109.236 92.994Z" fill="#E0E0E0"/>
<path d="M102.444 98.208V95.958L103.782 96.69V98.85L102.444 98.208Z" fill="#E0E0E0"/>
<path d="M105.774 100.002V97.7581L107.112 98.4901V100.65L105.774 100.002Z" fill="#E0E0E0"/>
<path d="M109.236 102.126V99.8821L110.568 100.614V102.774L109.236 102.126Z" fill="#E0E0E0"/>
<path d="M122.994 73.1219L112.236 78.6839L101.832 73.2179V75.4439L112.332 80.9039L122.994 75.4439V73.1219Z" fill="#2E5B5A"/>
<path d="M122.994 82.3621L112.236 87.9181L101.832 82.4581V84.6841L112.332 90.1381L122.994 84.6841V82.3621Z" fill="#2E5B5A"/>
<path d="M122.994 91.494L112.236 97.05L101.832 91.59V93.816L112.332 99.27L122.994 93.816V91.494Z" fill="#2E5B5A"/>
<path d="M122.91 99.8821L112.158 105.438L101.754 99.9781V102.198L112.248 107.658L122.91 102.198V99.8821Z" fill="#2E5B5A"/>
<path d="M122.994 64.3081L112.236 69.8641L101.832 64.4041V66.6301L112.332 72.0841L122.994 66.6301V64.3081Z" fill="#2E5B5A"/>
<defs>
<linearGradient id="paint0_linear" x1="60.822" y1="137.658" x2="72.774" y2="127.284" gradientUnits="userSpaceOnUse">
<stop stop-color="#88A80D" stop-opacity="0"/>
<stop offset="0.5" stop-color="#88A80D" stop-opacity="0"/>
<stop offset="1" stop-color="#88A80D"/>
</linearGradient>
<linearGradient id="paint1_linear" x1="3729.43" y1="4362.81" x2="4045.24" y2="3980.45" gradientUnits="userSpaceOnUse">
<stop stop-color="#88A80D" stop-opacity="0"/>
<stop offset="0.5" stop-color="#88A80D" stop-opacity="0"/>
<stop offset="1" stop-color="#88A80D"/>
</linearGradient>
<linearGradient id="paint2_linear" x1="7555.19" y1="4008.39" x2="7943.14" y2="3489.23" gradientUnits="userSpaceOnUse">
<stop stop-color="#88A80D" stop-opacity="0"/>
<stop offset="0.5" stop-color="#88A80D" stop-opacity="0"/>
<stop offset="1" stop-color="#88A80D"/>
</linearGradient>
<linearGradient id="paint3_linear" x1="4387.23" y1="2895.62" x2="4702.81" y2="2513.24" gradientUnits="userSpaceOnUse">
<stop stop-color="#88A80D" stop-opacity="0"/>
<stop offset="0.5" stop-color="#88A80D" stop-opacity="0"/>
<stop offset="1" stop-color="#88A80D"/>
</linearGradient>
<linearGradient id="paint4_linear" x1="3658.04" y1="3209.72" x2="3973.75" y2="2827.45" gradientUnits="userSpaceOnUse">
<stop stop-color="#88A80D" stop-opacity="0"/>
<stop offset="0.5" stop-color="#88A80D" stop-opacity="0"/>
<stop offset="1" stop-color="#88A80D"/>
</linearGradient>
</defs>
</svg>
