<svg width="53" height="44" viewBox="0 0 53 44" fill="none" xmlns="http://www.w3.org/2000/svg">
<path opacity="0.2" d="M29.128 36.064L27.72 43.104C30.6533 42.4 33.176 41.5787 35.288 40.64C37.4 39.7013 39.2187 38.528 40.744 37.12C42.2693 35.712 43.5013 34.0693 44.44 32.192C45.496 30.1973 46.376 27.792 47.08 24.976L52.888 0.335992H38.104L33.88 18.992H41.272C40.8027 20.8693 40.2747 22.7467 39.688 24.624C39.1013 26.384 38.3387 28.0267 37.4 29.552C36.5787 31.0773 35.464 32.4267 34.056 33.6C32.7653 34.656 31.1227 35.4773 29.128 36.064ZM2.2 36.064L0.792 43.104C3.72533 42.4 6.248 41.5787 8.36 40.64C10.472 39.7013 12.2907 38.528 13.816 37.12C15.3413 35.712 16.5733 34.0693 17.512 32.192C18.568 30.1973 19.448 27.792 20.152 24.976L25.96 0.335992H11.176L6.952 18.992H14.344C13.8747 20.8693 13.3467 22.7467 12.76 24.624C12.1733 26.384 11.4107 28.0267 10.472 29.552C9.65067 31.0773 8.536 32.4267 7.128 33.6C5.83733 34.656 4.19467 35.4773 2.2 36.064Z" fill="black"/>
</svg>
