<svg width="347" height="61" viewBox="0 0 347 61" fill="none" xmlns="http://www.w3.org/2000/svg">
<path d="M3.69356 56L5.93356 45.408H2.57356L2.74956 44.576H10.4296L10.2536 45.408H6.87756L4.63756 56H3.69356ZM10.4722 56L13.0482 43.84H13.9602L13.2722 47.04C13.1975 47.424 13.1069 47.8187 13.0002 48.224C12.9042 48.6293 12.8082 49.0187 12.7122 49.392H12.7602C12.9522 49.0933 13.1975 48.784 13.4962 48.464C13.8055 48.144 14.1629 47.8773 14.5682 47.664C14.9842 47.44 15.4482 47.328 15.9602 47.328C16.6429 47.328 17.1709 47.5093 17.5442 47.872C17.9282 48.2347 18.1202 48.768 18.1202 49.472C18.1202 49.6533 18.1042 49.8453 18.0722 50.048C18.0509 50.24 18.0189 50.4427 17.9762 50.656L16.8402 56H15.9282L17.0802 50.544C17.1655 50.1493 17.2082 49.8187 17.2082 49.552C17.2082 48.592 16.7175 48.112 15.7362 48.112C15.2562 48.112 14.7762 48.2667 14.2962 48.576C13.8269 48.8853 13.4055 49.328 13.0322 49.904C12.6695 50.4693 12.4082 51.152 12.2482 51.952L11.3842 56H10.4722ZM23.9587 56.16C23.084 56.16 22.3587 55.888 21.7827 55.344C21.2174 54.8 20.9347 53.9893 20.9347 52.912C20.9347 52.1867 21.036 51.4933 21.2387 50.832C21.452 50.16 21.7507 49.5627 22.1347 49.04C22.5187 48.5067 22.972 48.0907 23.4947 47.792C24.028 47.4827 24.6147 47.328 25.2547 47.328C25.948 47.328 26.492 47.504 26.8867 47.856C27.2814 48.1973 27.4787 48.656 27.4787 49.232C27.4787 50.1813 27.02 50.896 26.1027 51.376C25.1854 51.856 23.9267 52.096 22.3267 52.096H21.9107C21.9 52.2027 21.8894 52.3307 21.8787 52.48C21.868 52.6187 21.8627 52.752 21.8627 52.88C21.8627 53.68 22.06 54.2987 22.4547 54.736C22.8494 55.1627 23.4094 55.376 24.1347 55.376C24.5614 55.376 24.956 55.3173 25.3187 55.2C25.6814 55.0827 26.0334 54.944 26.3747 54.784V55.584C26.0547 55.744 25.692 55.8827 25.2867 56C24.892 56.1067 24.4494 56.16 23.9587 56.16ZM22.0387 51.328H22.4867C23.2547 51.328 23.9427 51.2587 24.5507 51.12C25.1694 50.9813 25.66 50.7627 26.0227 50.464C26.3854 50.1653 26.5667 49.776 26.5667 49.296C26.5667 48.9547 26.4494 48.672 26.2147 48.448C25.9907 48.224 25.644 48.112 25.1747 48.112C24.748 48.112 24.3214 48.24 23.8947 48.496C23.4787 48.7413 23.1054 49.104 22.7747 49.584C22.444 50.064 22.1987 50.6453 22.0387 51.328ZM34.8528 56L37.2688 44.576H38.1808L42.1968 54.576H42.2448C42.3088 54.1707 42.3835 53.712 42.4688 53.2C42.5648 52.688 42.6661 52.2027 42.7728 51.744L44.2928 44.576H45.1888L42.7728 56H41.8448L37.8288 45.984H37.7808C37.7168 46.3893 37.6368 46.848 37.5408 47.36C37.4555 47.872 37.3595 48.3787 37.2528 48.88L35.7328 56H34.8528ZM50.0993 56.16C49.2246 56.16 48.4993 55.888 47.9233 55.344C47.358 54.8 47.0753 53.9893 47.0753 52.912C47.0753 52.1867 47.1766 51.4933 47.3793 50.832C47.5926 50.16 47.8913 49.5627 48.2753 49.04C48.6593 48.5067 49.1126 48.0907 49.6353 47.792C50.1686 47.4827 50.7553 47.328 51.3953 47.328C52.0886 47.328 52.6326 47.504 53.0273 47.856C53.422 48.1973 53.6193 48.656 53.6193 49.232C53.6193 50.1813 53.1606 50.896 52.2433 51.376C51.326 51.856 50.0673 52.096 48.4673 52.096H48.0513C48.0406 52.2027 48.03 52.3307 48.0193 52.48C48.0086 52.6187 48.0033 52.752 48.0033 52.88C48.0033 53.68 48.2006 54.2987 48.5953 54.736C48.99 55.1627 49.55 55.376 50.2753 55.376C50.702 55.376 51.0966 55.3173 51.4593 55.2C51.822 55.0827 52.174 54.944 52.5153 54.784V55.584C52.1953 55.744 51.8326 55.8827 51.4273 56C51.0326 56.1067 50.59 56.16 50.0993 56.16ZM48.1793 51.328H48.6273C49.3953 51.328 50.0833 51.2587 50.6913 51.12C51.31 50.9813 51.8006 50.7627 52.1633 50.464C52.526 50.1653 52.7073 49.776 52.7073 49.296C52.7073 48.9547 52.59 48.672 52.3553 48.448C52.1313 48.224 51.7846 48.112 51.3153 48.112C50.8886 48.112 50.462 48.24 50.0353 48.496C49.6193 48.7413 49.246 49.104 48.9153 49.584C48.5846 50.064 48.3393 50.6453 48.1793 51.328ZM56.1327 56L55.7007 47.488H56.5807L56.8207 52.752C56.842 53.2427 56.8527 53.68 56.8527 54.064C56.8527 54.4373 56.8474 54.768 56.8367 55.056H56.8847C56.9914 54.7573 57.1247 54.4267 57.2847 54.064C57.4554 53.6907 57.642 53.296 57.8447 52.88L60.5167 47.488H61.4447L61.8927 52.752C61.914 53.1573 61.93 53.5573 61.9407 53.952C61.962 54.3467 61.9727 54.7147 61.9727 55.056H62.0207C62.1274 54.7253 62.2607 54.3573 62.4207 53.952C62.5914 53.5467 62.794 53.088 63.0287 52.576L65.3807 47.488H66.3407L62.3567 56H61.3167L60.8847 50.56C60.8527 50.2187 60.8314 49.8933 60.8207 49.584C60.8207 49.2747 60.8154 48.9227 60.8047 48.528H60.7727C60.6234 48.8693 60.4847 49.184 60.3567 49.472C60.2394 49.76 60.0847 50.096 59.8927 50.48L57.1567 56H56.1327ZM72.6653 56L75.0813 44.576H75.9933L80.0093 54.576H80.0573C80.1213 54.1707 80.196 53.712 80.2813 53.2C80.3773 52.688 80.4786 52.2027 80.5853 51.744L82.1053 44.576H83.0013L80.5853 56H79.6573L75.6413 45.984H75.5933C75.5293 46.3893 75.4493 46.848 75.3533 47.36C75.268 47.872 75.172 48.3787 75.0653 48.88L73.5453 56H72.6653ZM87.8958 56.144C86.9038 56.144 86.1465 55.8453 85.6238 55.248C85.1011 54.6507 84.8398 53.8613 84.8398 52.88C84.8398 52.1333 84.9358 51.4293 85.1278 50.768C85.3305 50.096 85.6238 49.504 86.0078 48.992C86.3918 48.48 86.8505 48.08 87.3838 47.792C87.9171 47.4933 88.5198 47.344 89.1918 47.344C90.1518 47.344 90.8931 47.648 91.4158 48.256C91.9491 48.8533 92.2158 49.6373 92.2158 50.608C92.2158 51.312 92.1198 51.9947 91.9278 52.656C91.7465 53.3173 91.4691 53.9093 91.0958 54.432C90.7331 54.9547 90.2798 55.3707 89.7358 55.68C89.2025 55.9893 88.5891 56.144 87.8958 56.144ZM87.9598 55.36C88.6105 55.36 89.1865 55.1573 89.6878 54.752C90.1891 54.336 90.5785 53.7653 90.8558 53.04C91.1438 52.304 91.2878 51.4613 91.2878 50.512C91.2878 50.0853 91.2131 49.696 91.0638 49.344C90.9145 48.9813 90.6851 48.688 90.3758 48.464C90.0665 48.24 89.6665 48.128 89.1758 48.128C88.5038 48.128 87.9118 48.336 87.3998 48.752C86.8878 49.168 86.4825 49.7333 86.1838 50.448C85.8958 51.1627 85.7518 51.9787 85.7518 52.896C85.7518 53.664 85.9385 54.2667 86.3118 54.704C86.6851 55.1413 87.2345 55.36 87.9598 55.36ZM94.5191 56L96.3271 47.488H97.0791L96.7591 49.392H96.8231C97.0151 49.0933 97.2497 48.784 97.5271 48.464C97.8044 48.144 98.1191 47.8773 98.4711 47.664C98.8337 47.4507 99.2444 47.344 99.7031 47.344C100.055 47.344 100.364 47.3813 100.631 47.456L100.439 48.288C100.311 48.256 100.178 48.2293 100.039 48.208C99.9004 48.1867 99.7564 48.176 99.6071 48.176C99.0844 48.176 98.5991 48.3573 98.1511 48.72C97.7031 49.072 97.3137 49.5307 96.9831 50.096C96.6631 50.6613 96.4337 51.264 96.2951 51.904L95.4311 56H94.5191ZM101.66 56L103.468 47.488H104.22L103.9 49.392H103.964C104.134 49.0933 104.358 48.784 104.636 48.464C104.913 48.144 105.238 47.8773 105.612 47.664C105.996 47.44 106.433 47.328 106.924 47.328C107.585 47.328 108.065 47.5253 108.364 47.92C108.662 48.304 108.822 48.8213 108.844 49.472H108.876C109.068 49.1413 109.308 48.8107 109.596 48.48C109.894 48.1493 110.241 47.8773 110.636 47.664C111.03 47.44 111.473 47.328 111.964 47.328C112.604 47.328 113.1 47.5093 113.452 47.872C113.814 48.224 113.996 48.7413 113.996 49.424C113.996 49.6267 113.98 49.8293 113.948 50.032C113.926 50.2347 113.889 50.4427 113.836 50.656L112.716 56H111.788L112.956 50.544C113.041 50.1493 113.084 49.808 113.084 49.52C113.084 48.5813 112.625 48.112 111.708 48.112C111.27 48.112 110.833 48.272 110.396 48.592C109.958 48.9013 109.569 49.3387 109.228 49.904C108.897 50.4587 108.657 51.1093 108.508 51.856L107.628 56H106.716L107.852 50.672C107.905 50.4373 107.942 50.224 107.964 50.032C107.985 49.8293 107.996 49.6587 107.996 49.52C107.996 49.0827 107.884 48.7413 107.66 48.496C107.436 48.24 107.105 48.112 106.668 48.112C106.22 48.112 105.777 48.272 105.34 48.592C104.913 48.9013 104.529 49.344 104.188 49.92C103.846 50.496 103.596 51.1733 103.436 51.952L102.572 56H101.66ZM119.05 56.16C118.324 56.16 117.754 55.8987 117.338 55.376C116.932 54.8533 116.73 54.1227 116.73 53.184C116.73 52.4587 116.826 51.7493 117.018 51.056C117.21 50.3627 117.487 49.7387 117.85 49.184C118.223 48.6187 118.671 48.1707 119.194 47.84C119.716 47.4987 120.308 47.328 120.97 47.328C121.407 47.328 121.775 47.4187 122.074 47.6C122.372 47.7813 122.607 48.0107 122.778 48.288C122.959 48.5547 123.092 48.832 123.178 49.12H123.242L123.706 47.488H124.426L122.618 56H121.882L122.202 54.096H122.154C121.94 54.416 121.679 54.736 121.37 55.056C121.06 55.376 120.708 55.6427 120.314 55.856C119.919 56.0587 119.498 56.16 119.05 56.16ZM119.306 55.376C119.743 55.376 120.18 55.216 120.618 54.896C121.066 54.576 121.466 54.144 121.818 53.6C122.18 53.056 122.442 52.4427 122.602 51.76C122.666 51.44 122.714 51.1573 122.746 50.912C122.778 50.656 122.794 50.4213 122.794 50.208C122.794 49.568 122.634 49.0613 122.314 48.688C122.004 48.304 121.578 48.112 121.034 48.112C120.511 48.112 120.042 48.2613 119.626 48.56C119.21 48.848 118.852 49.2373 118.554 49.728C118.266 50.208 118.042 50.752 117.882 51.36C117.732 51.9573 117.658 52.5707 117.658 53.2C117.658 53.8933 117.796 54.432 118.074 54.816C118.351 55.1893 118.762 55.376 119.306 55.376ZM126.332 56L128.908 43.84H129.82L127.228 56H126.332ZM135.646 56L135.758 55.456L136.974 55.264L139.086 45.312L137.95 45.136L138.062 44.576H141.326L141.214 45.136L139.998 45.312L137.87 55.264L139.022 55.456L138.91 56H135.646ZM144.13 56.16C143.586 56.16 143.112 56.1013 142.706 55.984C142.312 55.8667 141.981 55.7333 141.714 55.584V54.704C142.002 54.8853 142.354 55.0453 142.77 55.184C143.197 55.3227 143.645 55.392 144.114 55.392C144.861 55.392 145.41 55.2373 145.762 54.928C146.125 54.6187 146.306 54.224 146.306 53.744C146.306 53.3173 146.157 52.9867 145.858 52.752C145.57 52.5067 145.176 52.2453 144.674 51.968C144.098 51.648 143.634 51.328 143.282 51.008C142.93 50.6773 142.754 50.224 142.754 49.648C142.754 48.9013 143.021 48.3307 143.554 47.936C144.098 47.5307 144.781 47.328 145.602 47.328C146.114 47.328 146.573 47.3813 146.978 47.488C147.394 47.5947 147.757 47.7173 148.066 47.856L147.762 48.624C147.485 48.496 147.165 48.3787 146.802 48.272C146.44 48.1653 146.04 48.112 145.602 48.112C145.037 48.112 144.573 48.24 144.21 48.496C143.858 48.7413 143.682 49.1093 143.682 49.6C143.682 49.984 143.816 50.2933 144.082 50.528C144.36 50.752 144.754 51.0027 145.266 51.28C145.618 51.472 145.944 51.6747 146.242 51.888C146.541 52.0907 146.781 52.3307 146.962 52.608C147.144 52.8853 147.234 53.2373 147.234 53.664C147.234 54.4213 146.968 55.0293 146.434 55.488C145.901 55.936 145.133 56.16 144.13 56.16ZM157.162 56L159.402 45.408H156.042L156.218 44.576H163.898L163.722 45.408H160.346L158.106 56H157.162ZM163.941 56L166.517 43.84H167.429L166.741 47.04C166.666 47.424 166.576 47.8187 166.469 48.224C166.373 48.6293 166.277 49.0187 166.181 49.392H166.229C166.421 49.0933 166.666 48.784 166.965 48.464C167.274 48.144 167.632 47.8773 168.037 47.664C168.453 47.44 168.917 47.328 169.429 47.328C170.112 47.328 170.64 47.5093 171.013 47.872C171.397 48.2347 171.589 48.768 171.589 49.472C171.589 49.6533 171.573 49.8453 171.541 50.048C171.52 50.24 171.488 50.4427 171.445 50.656L170.309 56H169.397L170.549 50.544C170.634 50.1493 170.677 49.8187 170.677 49.552C170.677 48.592 170.186 48.112 169.205 48.112C168.725 48.112 168.245 48.2667 167.765 48.576C167.296 48.8853 166.874 49.328 166.501 49.904C166.138 50.4693 165.877 51.152 165.717 51.952L164.853 56H163.941ZM177.427 56.16C176.553 56.16 175.827 55.888 175.251 55.344C174.686 54.8 174.403 53.9893 174.403 52.912C174.403 52.1867 174.505 51.4933 174.707 50.832C174.921 50.16 175.219 49.5627 175.603 49.04C175.987 48.5067 176.441 48.0907 176.963 47.792C177.497 47.4827 178.083 47.328 178.723 47.328C179.417 47.328 179.961 47.504 180.355 47.856C180.75 48.1973 180.947 48.656 180.947 49.232C180.947 50.1813 180.489 50.896 179.571 51.376C178.654 51.856 177.395 52.096 175.795 52.096H175.379C175.369 52.2027 175.358 52.3307 175.347 52.48C175.337 52.6187 175.331 52.752 175.331 52.88C175.331 53.68 175.529 54.2987 175.923 54.736C176.318 55.1627 176.878 55.376 177.603 55.376C178.03 55.376 178.425 55.3173 178.787 55.2C179.15 55.0827 179.502 54.944 179.843 54.784V55.584C179.523 55.744 179.161 55.8827 178.755 56C178.361 56.1067 177.918 56.16 177.427 56.16ZM175.507 51.328H175.955C176.723 51.328 177.411 51.2587 178.019 51.12C178.638 50.9813 179.129 50.7627 179.491 50.464C179.854 50.1653 180.035 49.776 180.035 49.296C180.035 48.9547 179.918 48.672 179.683 48.448C179.459 48.224 179.113 48.112 178.643 48.112C178.217 48.112 177.79 48.24 177.363 48.496C176.947 48.7413 176.574 49.104 176.243 49.584C175.913 50.064 175.667 50.6453 175.507 51.328ZM188.338 56L190.754 44.576H193.266C194.674 44.576 195.778 44.9547 196.578 45.712C197.388 46.4587 197.794 47.6107 197.794 49.168C197.794 50.1067 197.644 50.9867 197.346 51.808C197.058 52.6293 196.626 53.3547 196.05 53.984C195.484 54.6133 194.77 55.1093 193.906 55.472C193.052 55.824 192.055 56 190.914 56H188.338ZM189.426 55.184H190.962C191.911 55.184 192.748 55.0293 193.474 54.72C194.21 54.4 194.823 53.9627 195.314 53.408C195.815 52.8533 196.188 52.2133 196.434 51.488C196.69 50.7627 196.818 49.984 196.818 49.152C196.818 47.8507 196.487 46.9013 195.826 46.304C195.164 45.696 194.252 45.392 193.09 45.392H191.506L189.426 55.184ZM202.568 45.728C202.397 45.728 202.258 45.68 202.152 45.584C202.056 45.488 202.008 45.3493 202.008 45.168C202.008 44.9653 202.066 44.7787 202.184 44.608C202.301 44.4267 202.477 44.336 202.712 44.336C202.904 44.336 203.042 44.3893 203.128 44.496C203.213 44.592 203.256 44.72 203.256 44.88C203.256 45.1147 203.186 45.3173 203.048 45.488C202.92 45.648 202.76 45.728 202.568 45.728ZM199.832 56L201.64 47.488H202.552L200.744 56H199.832ZM206.646 56.16C206.102 56.16 205.627 56.1013 205.222 55.984C204.827 55.8667 204.497 55.7333 204.23 55.584V54.704C204.518 54.8853 204.87 55.0453 205.286 55.184C205.713 55.3227 206.161 55.392 206.63 55.392C207.377 55.392 207.926 55.2373 208.278 54.928C208.641 54.6187 208.822 54.224 208.822 53.744C208.822 53.3173 208.673 52.9867 208.374 52.752C208.086 52.5067 207.691 52.2453 207.19 51.968C206.614 51.648 206.15 51.328 205.798 51.008C205.446 50.6773 205.27 50.224 205.27 49.648C205.27 48.9013 205.537 48.3307 206.07 47.936C206.614 47.5307 207.297 47.328 208.118 47.328C208.63 47.328 209.089 47.3813 209.494 47.488C209.91 47.5947 210.273 47.7173 210.582 47.856L210.278 48.624C210.001 48.496 209.681 48.3787 209.318 48.272C208.955 48.1653 208.555 48.112 208.118 48.112C207.553 48.112 207.089 48.24 206.726 48.496C206.374 48.7413 206.198 49.1093 206.198 49.6C206.198 49.984 206.331 50.2933 206.598 50.528C206.875 50.752 207.27 51.0027 207.782 51.28C208.134 51.472 208.459 51.6747 208.758 51.888C209.057 52.0907 209.297 52.3307 209.478 52.608C209.659 52.8853 209.75 53.2373 209.75 53.664C209.75 54.4213 209.483 55.0293 208.95 55.488C208.417 55.936 207.649 56.16 206.646 56.16ZM214.586 56.16C214.031 56.16 213.594 56.0267 213.274 55.76C212.954 55.4933 212.794 55.0667 212.794 54.48C212.794 54.16 212.836 53.8187 212.922 53.456L214.026 48.224H212.746L212.858 47.728L214.186 47.392L214.954 45.456H215.546L215.098 47.488H217.482L217.322 48.224H214.954L213.834 53.44C213.802 53.6 213.77 53.7653 213.738 53.936C213.716 54.096 213.706 54.2453 213.706 54.384C213.706 54.6933 213.78 54.9387 213.93 55.12C214.09 55.3013 214.346 55.392 214.698 55.392C214.922 55.392 215.124 55.376 215.306 55.344C215.498 55.3013 215.69 55.248 215.882 55.184V55.92C215.732 55.9733 215.54 56.0267 215.306 56.08C215.071 56.1333 214.831 56.16 214.586 56.16ZM221.286 45.728C221.116 45.728 220.977 45.68 220.87 45.584C220.774 45.488 220.726 45.3493 220.726 45.168C220.726 44.9653 220.785 44.7787 220.902 44.608C221.02 44.4267 221.196 44.336 221.43 44.336C221.622 44.336 221.761 44.3893 221.846 44.496C221.932 44.592 221.974 44.72 221.974 44.88C221.974 45.1147 221.905 45.3173 221.766 45.488C221.638 45.648 221.478 45.728 221.286 45.728ZM218.55 56L220.358 47.488H221.27L219.462 56H218.55ZM226.869 56.16C226.175 56.16 225.642 55.9787 225.269 55.616C224.895 55.2427 224.65 54.8267 224.533 54.368H224.469L224.005 56H223.285L225.861 43.84H226.773L226.101 47.008C226.005 47.456 225.898 47.9147 225.781 48.384C225.663 48.8427 225.578 49.1787 225.525 49.392H225.573C225.797 49.0613 226.063 48.7413 226.373 48.432C226.682 48.112 227.029 47.8507 227.413 47.648C227.807 47.4347 228.245 47.328 228.725 47.328C229.461 47.328 230.047 47.5893 230.485 48.112C230.933 48.6347 231.157 49.36 231.157 50.288C231.157 51.0027 231.061 51.712 230.869 52.416C230.687 53.1093 230.415 53.7387 230.053 54.304C229.69 54.8693 229.242 55.3227 228.709 55.664C228.175 55.9947 227.562 56.16 226.869 56.16ZM226.821 55.376C227.365 55.376 227.845 55.232 228.261 54.944C228.687 54.6453 229.045 54.2507 229.333 53.76C229.621 53.2587 229.839 52.7093 229.989 52.112C230.138 51.5147 230.213 50.9067 230.213 50.288C230.213 49.5947 230.058 49.0613 229.749 48.688C229.45 48.304 229.023 48.112 228.469 48.112C227.989 48.112 227.535 48.2613 227.109 48.56C226.682 48.848 226.303 49.2373 225.973 49.728C225.642 50.2187 225.381 50.7733 225.189 51.392C224.997 52 224.901 52.624 224.901 53.264C224.901 53.936 225.066 54.4587 225.397 54.832C225.738 55.1947 226.213 55.376 226.821 55.376ZM236.032 56.16C235.36 56.16 234.832 55.984 234.448 55.632C234.064 55.2693 233.872 54.7413 233.872 54.048C233.872 53.856 233.883 53.6587 233.904 53.456C233.936 53.2533 233.979 53.0453 234.032 52.832L235.168 47.488H236.08L234.912 52.944C234.827 53.3387 234.784 53.6747 234.784 53.952C234.784 54.9013 235.275 55.376 236.256 55.376C236.736 55.376 237.211 55.2213 237.68 54.912C238.15 54.6027 238.571 54.16 238.944 53.584C239.318 53.008 239.59 52.32 239.76 51.52L240.624 47.488H241.52L239.712 56H238.96L239.28 54.096H239.216C239.024 54.3947 238.779 54.704 238.48 55.024C238.182 55.344 237.824 55.616 237.408 55.84C237.003 56.0533 236.544 56.16 236.032 56.16ZM245.711 56.16C245.156 56.16 244.719 56.0267 244.399 55.76C244.079 55.4933 243.919 55.0667 243.919 54.48C243.919 54.16 243.961 53.8187 244.047 53.456L245.151 48.224H243.871L243.983 47.728L245.311 47.392L246.079 45.456H246.671L246.223 47.488H248.607L248.447 48.224H246.079L244.959 53.44C244.927 53.6 244.895 53.7653 244.863 53.936C244.841 54.096 244.831 54.2453 244.831 54.384C244.831 54.6933 244.905 54.9387 245.055 55.12C245.215 55.3013 245.471 55.392 245.823 55.392C246.047 55.392 246.249 55.376 246.431 55.344C246.623 55.3013 246.815 55.248 247.007 55.184V55.92C246.857 55.9733 246.665 56.0267 246.431 56.08C246.196 56.1333 245.956 56.16 245.711 56.16ZM253.099 56.16C252.225 56.16 251.499 55.888 250.923 55.344C250.358 54.8 250.075 53.9893 250.075 52.912C250.075 52.1867 250.177 51.4933 250.379 50.832C250.593 50.16 250.891 49.5627 251.275 49.04C251.659 48.5067 252.113 48.0907 252.635 47.792C253.169 47.4827 253.755 47.328 254.395 47.328C255.089 47.328 255.633 47.504 256.027 47.856C256.422 48.1973 256.619 48.656 256.619 49.232C256.619 50.1813 256.161 50.896 255.243 51.376C254.326 51.856 253.067 52.096 251.467 52.096H251.051C251.041 52.2027 251.03 52.3307 251.019 52.48C251.009 52.6187 251.003 52.752 251.003 52.88C251.003 53.68 251.201 54.2987 251.595 54.736C251.99 55.1627 252.55 55.376 253.275 55.376C253.702 55.376 254.097 55.3173 254.459 55.2C254.822 55.0827 255.174 54.944 255.515 54.784V55.584C255.195 55.744 254.833 55.8827 254.427 56C254.033 56.1067 253.59 56.16 253.099 56.16ZM251.179 51.328H251.627C252.395 51.328 253.083 51.2587 253.691 51.12C254.31 50.9813 254.801 50.7627 255.163 50.464C255.526 50.1653 255.707 49.776 255.707 49.296C255.707 48.9547 255.59 48.672 255.355 48.448C255.131 48.224 254.785 48.112 254.315 48.112C253.889 48.112 253.462 48.24 253.035 48.496C252.619 48.7413 252.246 49.104 251.915 49.584C251.585 50.064 251.339 50.6453 251.179 51.328ZM261.269 56.16C260.512 56.16 259.931 55.904 259.525 55.392C259.12 54.8693 258.917 54.1333 258.917 53.184C258.917 52.4693 259.008 51.7653 259.189 51.072C259.371 50.3787 259.643 49.7547 260.005 49.2C260.379 48.6347 260.827 48.1813 261.349 47.84C261.883 47.4987 262.501 47.328 263.205 47.328C263.664 47.328 264.048 47.4187 264.357 47.6C264.677 47.7707 264.928 47.9947 265.109 48.272C265.301 48.5387 265.44 48.8213 265.525 49.12H265.589C265.632 48.7573 265.685 48.4 265.749 48.048C265.813 47.696 265.888 47.3387 265.973 46.976L266.629 43.84H267.541L264.965 56H264.213L264.517 54.08H264.469C264.235 54.4213 263.957 54.752 263.637 55.072C263.317 55.392 262.96 55.6533 262.565 55.856C262.171 56.0587 261.739 56.16 261.269 56.16ZM261.525 55.376C261.952 55.376 262.379 55.2373 262.805 54.96C263.243 54.6827 263.637 54.3093 263.989 53.84C264.341 53.36 264.624 52.8107 264.837 52.192C265.051 51.5627 265.157 50.9067 265.157 50.224C265.157 49.552 264.987 49.0347 264.645 48.672C264.315 48.2987 263.845 48.112 263.237 48.112C262.693 48.112 262.213 48.2613 261.797 48.56C261.381 48.8587 261.024 49.2533 260.725 49.744C260.437 50.2347 260.219 50.784 260.069 51.392C259.92 51.9893 259.845 52.592 259.845 53.2C259.845 53.904 259.984 54.4427 260.261 54.816C260.549 55.1893 260.971 55.376 261.525 55.376ZM278.677 56.16C277.429 56.16 276.453 55.7653 275.749 54.976C275.056 54.176 274.709 53.0987 274.709 51.744C274.709 50.7733 274.848 49.8507 275.125 48.976C275.413 48.0907 275.824 47.3067 276.357 46.624C276.901 45.9413 277.552 45.4027 278.309 45.008C279.077 44.6133 279.941 44.416 280.901 44.416C281.925 44.416 282.821 44.6187 283.589 45.024L283.205 45.824C282.864 45.632 282.501 45.488 282.117 45.392C281.744 45.296 281.338 45.248 280.901 45.248C280.09 45.248 279.36 45.4187 278.709 45.76C278.069 46.1013 277.52 46.576 277.061 47.184C276.613 47.7813 276.272 48.4693 276.037 49.248C275.802 50.0267 275.685 50.848 275.685 51.712C275.685 52.832 275.962 53.7173 276.517 54.368C277.072 55.008 277.84 55.328 278.821 55.328C279.312 55.328 279.776 55.2853 280.213 55.2C280.65 55.104 281.066 54.992 281.461 54.864V55.664C281.077 55.8133 280.661 55.9307 280.213 56.016C279.765 56.112 279.253 56.16 278.677 56.16ZM287.802 56.144C286.81 56.144 286.053 55.8453 285.53 55.248C285.007 54.6507 284.746 53.8613 284.746 52.88C284.746 52.1333 284.842 51.4293 285.034 50.768C285.237 50.096 285.53 49.504 285.914 48.992C286.298 48.48 286.757 48.08 287.29 47.792C287.823 47.4933 288.426 47.344 289.098 47.344C290.058 47.344 290.799 47.648 291.322 48.256C291.855 48.8533 292.122 49.6373 292.122 50.608C292.122 51.312 292.026 51.9947 291.834 52.656C291.653 53.3173 291.375 53.9093 291.002 54.432C290.639 54.9547 290.186 55.3707 289.642 55.68C289.109 55.9893 288.495 56.144 287.802 56.144ZM287.866 55.36C288.517 55.36 289.093 55.1573 289.594 54.752C290.095 54.336 290.485 53.7653 290.762 53.04C291.05 52.304 291.194 51.4613 291.194 50.512C291.194 50.0853 291.119 49.696 290.97 49.344C290.821 48.9813 290.591 48.688 290.282 48.464C289.973 48.24 289.573 48.128 289.082 48.128C288.41 48.128 287.818 48.336 287.306 48.752C286.794 49.168 286.389 49.7333 286.09 50.448C285.802 51.1627 285.658 51.9787 285.658 52.896C285.658 53.664 285.845 54.2667 286.218 54.704C286.591 55.1413 287.141 55.36 287.866 55.36ZM294.425 56L296.233 47.488H296.985L296.665 49.392H296.729C296.9 49.0933 297.124 48.784 297.401 48.464C297.679 48.144 298.004 47.8773 298.377 47.664C298.761 47.44 299.199 47.328 299.689 47.328C300.351 47.328 300.831 47.5253 301.129 47.92C301.428 48.304 301.588 48.8213 301.609 49.472H301.641C301.833 49.1413 302.073 48.8107 302.361 48.48C302.66 48.1493 303.007 47.8773 303.401 47.664C303.796 47.44 304.239 47.328 304.729 47.328C305.369 47.328 305.865 47.5093 306.217 47.872C306.58 48.224 306.761 48.7413 306.761 49.424C306.761 49.6267 306.745 49.8293 306.713 50.032C306.692 50.2347 306.655 50.4427 306.601 50.656L305.481 56H304.553L305.721 50.544C305.807 50.1493 305.849 49.808 305.849 49.52C305.849 48.5813 305.391 48.112 304.473 48.112C304.036 48.112 303.599 48.272 303.161 48.592C302.724 48.9013 302.335 49.3387 301.993 49.904C301.663 50.4587 301.423 51.1093 301.273 51.856L300.393 56H299.481L300.617 50.672C300.671 50.4373 300.708 50.224 300.729 50.032C300.751 49.8293 300.761 49.6587 300.761 49.52C300.761 49.0827 300.649 48.7413 300.425 48.496C300.201 48.24 299.871 48.112 299.433 48.112C298.985 48.112 298.543 48.272 298.105 48.592C297.679 48.9013 297.295 49.344 296.953 49.92C296.612 50.496 296.361 51.1733 296.201 51.952L295.337 56H294.425ZM308.391 59.776L310.983 47.488H311.735L311.415 49.392H311.463C311.687 49.0507 311.954 48.7253 312.263 48.416C312.573 48.096 312.925 47.8347 313.319 47.632C313.714 47.4293 314.151 47.328 314.631 47.328C315.357 47.328 315.938 47.5893 316.375 48.112C316.823 48.6347 317.047 49.3653 317.047 50.304C317.047 51.0187 316.951 51.7227 316.759 52.416C316.578 53.1093 316.306 53.7387 315.943 54.304C315.581 54.8693 315.133 55.3227 314.599 55.664C314.066 55.9947 313.453 56.16 312.759 56.16C312.301 56.16 311.911 56.0747 311.591 55.904C311.282 55.7333 311.031 55.5147 310.839 55.248C310.647 54.9707 310.509 54.6773 310.423 54.368H310.359C310.327 54.6453 310.279 54.9547 310.215 55.296C310.162 55.6267 310.103 55.9253 310.039 56.192L309.287 59.776H308.391ZM312.711 55.376C313.255 55.376 313.735 55.232 314.151 54.944C314.578 54.6453 314.935 54.2507 315.223 53.76C315.511 53.2587 315.73 52.7093 315.879 52.112C316.029 51.5147 316.103 50.9067 316.103 50.288C316.103 49.5947 315.949 49.0613 315.639 48.688C315.341 48.304 314.914 48.112 314.359 48.112C313.901 48.112 313.458 48.256 313.031 48.544C312.605 48.832 312.221 49.2213 311.879 49.712C311.549 50.192 311.282 50.7413 311.079 51.36C310.887 51.968 310.791 52.6027 310.791 53.264C310.791 53.936 310.957 54.4587 311.287 54.832C311.629 55.1947 312.103 55.376 312.711 55.376ZM322.003 56.16C321.277 56.16 320.707 55.8987 320.291 55.376C319.885 54.8533 319.683 54.1227 319.683 53.184C319.683 52.4587 319.779 51.7493 319.971 51.056C320.163 50.3627 320.44 49.7387 320.803 49.184C321.176 48.6187 321.624 48.1707 322.147 47.84C322.669 47.4987 323.261 47.328 323.923 47.328C324.36 47.328 324.728 47.4187 325.027 47.6C325.325 47.7813 325.56 48.0107 325.731 48.288C325.912 48.5547 326.045 48.832 326.131 49.12H326.195L326.659 47.488H327.379L325.571 56H324.835L325.155 54.096H325.107C324.893 54.416 324.632 54.736 324.323 55.056C324.013 55.376 323.661 55.6427 323.267 55.856C322.872 56.0587 322.451 56.16 322.003 56.16ZM322.259 55.376C322.696 55.376 323.133 55.216 323.571 54.896C324.019 54.576 324.419 54.144 324.771 53.6C325.133 53.056 325.395 52.4427 325.555 51.76C325.619 51.44 325.667 51.1573 325.699 50.912C325.731 50.656 325.747 50.4213 325.747 50.208C325.747 49.568 325.587 49.0613 325.267 48.688C324.957 48.304 324.531 48.112 323.987 48.112C323.464 48.112 322.995 48.2613 322.579 48.56C322.163 48.848 321.805 49.2373 321.507 49.728C321.219 50.208 320.995 50.752 320.835 51.36C320.685 51.9573 320.611 52.5707 320.611 53.2C320.611 53.8933 320.749 54.432 321.027 54.816C321.304 55.1893 321.715 55.376 322.259 55.376ZM329.253 56L331.077 47.456H331.877L331.557 49.36H331.573C331.765 49.0613 332.01 48.7573 332.309 48.448C332.607 48.128 332.965 47.856 333.381 47.632C333.797 47.408 334.261 47.296 334.773 47.296C335.466 47.296 336.005 47.4827 336.389 47.856C336.773 48.2187 336.965 48.7413 336.965 49.424C336.965 49.6267 336.949 49.84 336.917 50.064C336.885 50.2773 336.847 50.4747 336.805 50.656L335.669 56H334.709L335.861 50.544C335.903 50.3307 335.935 50.144 335.957 49.984C335.989 49.824 336.005 49.6693 336.005 49.52C336.005 49.0613 335.877 48.72 335.621 48.496C335.375 48.2613 335.018 48.144 334.549 48.144C334.079 48.144 333.61 48.2987 333.141 48.608C332.671 48.9067 332.25 49.344 331.877 49.92C331.514 50.4853 331.247 51.1627 331.077 51.952L330.213 56H329.253ZM338.211 59.856C337.987 59.856 337.801 59.84 337.651 59.808C337.491 59.7867 337.342 59.7493 337.203 59.696V58.928C337.342 58.9707 337.491 59.008 337.651 59.04C337.801 59.072 337.977 59.088 338.179 59.088C338.595 59.088 338.958 58.944 339.267 58.656C339.577 58.3787 339.891 57.952 340.211 57.376L341.011 56L339.651 47.488H340.563L341.315 52.464C341.39 52.9653 341.449 53.4667 341.491 53.968C341.534 54.4587 341.566 54.848 341.587 55.136H341.619C341.694 54.9653 341.795 54.7467 341.923 54.48C342.051 54.2027 342.19 53.9093 342.339 53.6C342.499 53.2907 342.659 52.9973 342.819 52.72L345.683 47.488H346.659L341.043 57.632C340.638 58.3573 340.222 58.9067 339.795 59.28C339.369 59.664 338.841 59.856 338.211 59.856Z" fill="black" fill-opacity="0.39"/>
<rect opacity="0.4" width="86" height="22"/>
</svg>
