<svg width="773" height="61" viewBox="0 0 773 61" fill="none" xmlns="http://www.w3.org/2000/svg">
<path d="M2.384 56L1.856 44.576H2.752L3.088 52.4C3.09867 52.7733 3.09867 53.1627 3.088 53.568C3.088 53.9627 3.08267 54.3413 3.072 54.704H3.12C3.25867 54.352 3.408 53.9733 3.568 53.568C3.73867 53.1627 3.93067 52.7467 4.144 52.32L7.808 44.576H8.736L9.184 52.304C9.20533 52.6987 9.22133 53.12 9.232 53.568C9.24267 54.0053 9.248 54.3947 9.248 54.736H9.296C9.424 54.384 9.55733 54.016 9.696 53.632C9.84533 53.2373 10.016 52.832 10.208 52.416L13.696 44.576H14.672L9.472 56H8.576L8.096 47.68C8.07467 47.36 8.05867 47.0453 8.048 46.736C8.048 46.416 8.048 46.1067 8.048 45.808H8C7.904 46.096 7.79733 46.368 7.68 46.624C7.57333 46.88 7.44 47.184 7.28 47.536L3.296 56H2.384ZM18.0286 56.144C17.0366 56.144 16.2793 55.8453 15.7566 55.248C15.234 54.6507 14.9726 53.8613 14.9726 52.88C14.9726 52.1333 15.0686 51.4293 15.2606 50.768C15.4633 50.096 15.7566 49.504 16.1406 48.992C16.5246 48.48 16.9833 48.08 17.5166 47.792C18.05 47.4933 18.6526 47.344 19.3246 47.344C20.2846 47.344 21.026 47.648 21.5486 48.256C22.082 48.8533 22.3486 49.6373 22.3486 50.608C22.3486 51.312 22.2526 51.9947 22.0606 52.656C21.8793 53.3173 21.602 53.9093 21.2286 54.432C20.866 54.9547 20.4126 55.3707 19.8686 55.68C19.3353 55.9893 18.722 56.144 18.0286 56.144ZM18.0926 55.36C18.7433 55.36 19.3193 55.1573 19.8206 54.752C20.322 54.336 20.7113 53.7653 20.9886 53.04C21.2766 52.304 21.4206 51.4613 21.4206 50.512C21.4206 50.0853 21.346 49.696 21.1966 49.344C21.0473 48.9813 20.818 48.688 20.5086 48.464C20.1993 48.24 19.7993 48.128 19.3086 48.128C18.6366 48.128 18.0446 48.336 17.5326 48.752C17.0206 49.168 16.6153 49.7333 16.3166 50.448C16.0286 51.1627 15.8846 51.9787 15.8846 52.896C15.8846 53.664 16.0713 54.2667 16.4446 54.704C16.818 55.1413 17.3673 55.36 18.0926 55.36ZM24.6519 56L26.4599 47.488H27.2119L26.8919 49.392H26.9559C27.1479 49.0933 27.3825 48.784 27.6599 48.464C27.9372 48.144 28.2519 47.8773 28.6039 47.664C28.9665 47.4507 29.3772 47.344 29.8359 47.344C30.1879 47.344 30.4972 47.3813 30.7639 47.456L30.5719 48.288C30.4439 48.256 30.3105 48.2293 30.1719 48.208C30.0332 48.1867 29.8892 48.176 29.7399 48.176C29.2172 48.176 28.7319 48.3573 28.2839 48.72C27.8359 49.072 27.4465 49.5307 27.1159 50.096C26.7959 50.6613 26.5665 51.264 26.4279 51.904L25.5639 56H24.6519ZM31.7925 56L34.3685 43.84H35.2805L34.1285 49.264C33.9792 49.9573 33.8458 50.5333 33.7285 50.992C33.6112 51.44 33.5098 51.8293 33.4245 52.16H33.4405L38.2405 47.488H39.3285L35.5365 51.168L37.8885 56H36.8805L34.8485 51.744L33.3125 53.072L32.7045 56H31.7925ZM42.9973 45.728C42.8266 45.728 42.6879 45.68 42.5813 45.584C42.4853 45.488 42.4373 45.3493 42.4373 45.168C42.4373 44.9653 42.4959 44.7787 42.6133 44.608C42.7306 44.4267 42.9066 44.336 43.1413 44.336C43.3333 44.336 43.4719 44.3893 43.5573 44.496C43.6426 44.592 43.6853 44.72 43.6853 44.88C43.6853 45.1147 43.6159 45.3173 43.4773 45.488C43.3493 45.648 43.1893 45.728 42.9973 45.728ZM40.2613 56L42.0693 47.488H42.9813L41.1733 56H40.2613ZM44.9636 56L46.7876 47.456H47.5876L47.2676 49.36H47.2836C47.4756 49.0613 47.721 48.7573 48.0196 48.448C48.3183 48.128 48.6756 47.856 49.0916 47.632C49.5076 47.408 49.9716 47.296 50.4836 47.296C51.177 47.296 51.7156 47.4827 52.0996 47.856C52.4836 48.2187 52.6756 48.7413 52.6756 49.424C52.6756 49.6267 52.6596 49.84 52.6276 50.064C52.5956 50.2773 52.5583 50.4747 52.5156 50.656L51.3796 56H50.4196L51.5716 50.544C51.6143 50.3307 51.6463 50.144 51.6676 49.984C51.6996 49.824 51.7156 49.6693 51.7156 49.52C51.7156 49.0613 51.5876 48.72 51.3316 48.496C51.0863 48.2613 50.729 48.144 50.2596 48.144C49.7903 48.144 49.321 48.2987 48.8516 48.608C48.3823 48.9067 47.961 49.344 47.5876 49.92C47.225 50.4853 46.9583 51.1627 46.7876 51.952L45.9236 56H44.9636ZM57.4421 59.84C56.9515 59.84 56.4928 59.7867 56.0661 59.68C55.6501 59.5733 55.2928 59.4453 54.9941 59.296V58.416C55.2821 58.5867 55.6501 58.736 56.0981 58.864C56.5461 58.992 56.9888 59.056 57.4261 59.056C58.2688 59.056 58.9301 58.8373 59.4101 58.4C59.8901 57.9627 60.2261 57.3227 60.4181 56.48L60.5621 55.856C60.6155 55.5893 60.6848 55.2853 60.7701 54.944C60.8555 54.6027 60.9301 54.304 60.9941 54.048H60.9461C60.7115 54.4 60.4341 54.7413 60.1141 55.072C59.7941 55.392 59.4368 55.6533 59.0421 55.856C58.6475 56.0587 58.2155 56.16 57.7461 56.16C56.9781 56.16 56.3915 55.8987 55.9861 55.376C55.5808 54.8533 55.3781 54.1227 55.3781 53.184C55.3781 52.48 55.4688 51.7813 55.6501 51.088C55.8315 50.3947 56.1035 49.7653 56.4661 49.2C56.8288 48.624 57.2768 48.1707 57.8101 47.84C58.3541 47.4987 58.9728 47.328 59.6661 47.328C60.1248 47.328 60.5088 47.4187 60.8181 47.6C61.1381 47.7707 61.3941 47.9947 61.5861 48.272C61.7781 48.5387 61.9168 48.8213 62.0021 49.12H62.0501L62.5301 47.488H63.2341L61.3141 56.464C61.0795 57.584 60.6475 58.4267 60.0181 58.992C59.3995 59.5573 58.5408 59.84 57.4421 59.84ZM58.0021 55.376C58.4288 55.376 58.8501 55.2373 59.2661 54.96C59.6928 54.6827 60.0821 54.304 60.4341 53.824C60.7968 53.344 61.0848 52.7947 61.2981 52.176C61.5115 51.5573 61.6181 50.9067 61.6181 50.224C61.6181 49.552 61.4528 49.0347 61.1221 48.672C60.7915 48.2987 60.3221 48.112 59.7141 48.112C59.1701 48.112 58.6848 48.2613 58.2581 48.56C57.8421 48.8587 57.4848 49.2533 57.1861 49.744C56.8981 50.2347 56.6795 50.784 56.5301 51.392C56.3808 51.9893 56.3061 52.592 56.3061 53.2C56.3061 53.8933 56.4448 54.432 56.7221 54.816C56.9995 55.1893 57.4261 55.376 58.0021 55.376ZM70.6579 56L73.0739 44.576H78.8339L78.6739 45.408H73.8259L72.8339 50.112H77.3939L77.2019 50.944H72.6419L71.5699 56H70.6579ZM79.1206 56L80.9286 47.488H81.6806L81.3606 49.392H81.4246C81.6166 49.0933 81.8513 48.784 82.1286 48.464C82.406 48.144 82.7206 47.8773 83.0726 47.664C83.4353 47.4507 83.846 47.344 84.3046 47.344C84.6566 47.344 84.966 47.3813 85.2326 47.456L85.0406 48.288C84.9126 48.256 84.7793 48.2293 84.6406 48.208C84.502 48.1867 84.358 48.176 84.2086 48.176C83.686 48.176 83.2006 48.3573 82.7526 48.72C82.3046 49.072 81.9153 49.5307 81.5846 50.096C81.2646 50.6613 81.0353 51.264 80.8966 51.904L80.0326 56H79.1206ZM89.3568 56.144C88.3648 56.144 87.6074 55.8453 87.0848 55.248C86.5621 54.6507 86.3008 53.8613 86.3008 52.88C86.3008 52.1333 86.3968 51.4293 86.5888 50.768C86.7914 50.096 87.0848 49.504 87.4688 48.992C87.8528 48.48 88.3114 48.08 88.8448 47.792C89.3781 47.4933 89.9808 47.344 90.6528 47.344C91.6128 47.344 92.3541 47.648 92.8768 48.256C93.4101 48.8533 93.6768 49.6373 93.6768 50.608C93.6768 51.312 93.5808 51.9947 93.3888 52.656C93.2074 53.3173 92.9301 53.9093 92.5568 54.432C92.1941 54.9547 91.7408 55.3707 91.1968 55.68C90.6634 55.9893 90.0501 56.144 89.3568 56.144ZM89.4208 55.36C90.0714 55.36 90.6474 55.1573 91.1488 54.752C91.6501 54.336 92.0394 53.7653 92.3168 53.04C92.6048 52.304 92.7488 51.4613 92.7488 50.512C92.7488 50.0853 92.6741 49.696 92.5248 49.344C92.3754 48.9813 92.1461 48.688 91.8368 48.464C91.5274 48.24 91.1274 48.128 90.6368 48.128C89.9648 48.128 89.3728 48.336 88.8608 48.752C88.3488 49.168 87.9434 49.7333 87.6448 50.448C87.3568 51.1627 87.2128 51.9787 87.2128 52.896C87.2128 53.664 87.3994 54.2667 87.7728 54.704C88.1461 55.1413 88.6954 55.36 89.4208 55.36ZM95.98 56L97.788 47.488H98.54L98.22 49.392H98.284C98.4547 49.0933 98.6787 48.784 98.956 48.464C99.2333 48.144 99.5587 47.8773 99.932 47.664C100.316 47.44 100.753 47.328 101.244 47.328C101.905 47.328 102.385 47.5253 102.684 47.92C102.983 48.304 103.143 48.8213 103.164 49.472H103.196C103.388 49.1413 103.628 48.8107 103.916 48.48C104.215 48.1493 104.561 47.8773 104.956 47.664C105.351 47.44 105.793 47.328 106.284 47.328C106.924 47.328 107.42 47.5093 107.772 47.872C108.135 48.224 108.316 48.7413 108.316 49.424C108.316 49.6267 108.3 49.8293 108.268 50.032C108.247 50.2347 108.209 50.4427 108.156 50.656L107.036 56H106.108L107.276 50.544C107.361 50.1493 107.404 49.808 107.404 49.52C107.404 48.5813 106.945 48.112 106.028 48.112C105.591 48.112 105.153 48.272 104.716 48.592C104.279 48.9013 103.889 49.3387 103.548 49.904C103.217 50.4587 102.977 51.1093 102.828 51.856L101.948 56H101.036L102.172 50.672C102.225 50.4373 102.263 50.224 102.284 50.032C102.305 49.8293 102.316 49.6587 102.316 49.52C102.316 49.0827 102.204 48.7413 101.98 48.496C101.756 48.24 101.425 48.112 100.988 48.112C100.54 48.112 100.097 48.272 99.66 48.592C99.2333 48.9013 98.8493 49.344 98.508 49.92C98.1667 50.496 97.916 51.1733 97.756 51.952L96.892 56H95.98ZM116.142 56L118.558 44.576H119.486L118.43 49.6H124.302L125.374 44.576H126.286L123.87 56H122.958L124.126 50.432H118.254L117.07 56H116.142ZM131.185 56.144C130.193 56.144 129.436 55.8453 128.913 55.248C128.39 54.6507 128.129 53.8613 128.129 52.88C128.129 52.1333 128.225 51.4293 128.417 50.768C128.62 50.096 128.913 49.504 129.297 48.992C129.681 48.48 130.14 48.08 130.673 47.792C131.206 47.4933 131.809 47.344 132.481 47.344C133.441 47.344 134.182 47.648 134.705 48.256C135.238 48.8533 135.505 49.6373 135.505 50.608C135.505 51.312 135.409 51.9947 135.217 52.656C135.036 53.3173 134.758 53.9093 134.385 54.432C134.022 54.9547 133.569 55.3707 133.025 55.68C132.492 55.9893 131.878 56.144 131.185 56.144ZM131.249 55.36C131.9 55.36 132.476 55.1573 132.977 54.752C133.478 54.336 133.868 53.7653 134.145 53.04C134.433 52.304 134.577 51.4613 134.577 50.512C134.577 50.0853 134.502 49.696 134.353 49.344C134.204 48.9813 133.974 48.688 133.665 48.464C133.356 48.24 132.956 48.128 132.465 48.128C131.793 48.128 131.201 48.336 130.689 48.752C130.177 49.168 129.772 49.7333 129.473 50.448C129.185 51.1627 129.041 51.9787 129.041 52.896C129.041 53.664 129.228 54.2667 129.601 54.704C129.974 55.1413 130.524 55.36 131.249 55.36ZM137.808 56L139.616 47.488H140.368L140.048 49.392H140.112C140.283 49.0933 140.507 48.784 140.784 48.464C141.061 48.144 141.387 47.8773 141.76 47.664C142.144 47.44 142.581 47.328 143.072 47.328C143.733 47.328 144.213 47.5253 144.512 47.92C144.811 48.304 144.971 48.8213 144.992 49.472H145.024C145.216 49.1413 145.456 48.8107 145.744 48.48C146.043 48.1493 146.389 47.8773 146.784 47.664C147.179 47.44 147.621 47.328 148.112 47.328C148.752 47.328 149.248 47.5093 149.6 47.872C149.963 48.224 150.144 48.7413 150.144 49.424C150.144 49.6267 150.128 49.8293 150.096 50.032C150.075 50.2347 150.037 50.4427 149.984 50.656L148.864 56H147.936L149.104 50.544C149.189 50.1493 149.232 49.808 149.232 49.52C149.232 48.5813 148.773 48.112 147.856 48.112C147.419 48.112 146.981 48.272 146.544 48.592C146.107 48.9013 145.717 49.3387 145.376 49.904C145.045 50.4587 144.805 51.1093 144.656 51.856L143.776 56H142.864L144 50.672C144.053 50.4373 144.091 50.224 144.112 50.032C144.133 49.8293 144.144 49.6587 144.144 49.52C144.144 49.0827 144.032 48.7413 143.808 48.496C143.584 48.24 143.253 48.112 142.816 48.112C142.368 48.112 141.925 48.272 141.488 48.592C141.061 48.9013 140.677 49.344 140.336 49.92C139.995 50.496 139.744 51.1733 139.584 51.952L138.72 56H137.808ZM155.982 56.16C155.107 56.16 154.382 55.888 153.806 55.344C153.241 54.8 152.958 53.9893 152.958 52.912C152.958 52.1867 153.059 51.4933 153.262 50.832C153.475 50.16 153.774 49.5627 154.158 49.04C154.542 48.5067 154.995 48.0907 155.518 47.792C156.051 47.4827 156.638 47.328 157.278 47.328C157.971 47.328 158.515 47.504 158.91 47.856C159.305 48.1973 159.502 48.656 159.502 49.232C159.502 50.1813 159.043 50.896 158.126 51.376C157.209 51.856 155.95 52.096 154.35 52.096H153.934C153.923 52.2027 153.913 52.3307 153.902 52.48C153.891 52.6187 153.886 52.752 153.886 52.88C153.886 53.68 154.083 54.2987 154.478 54.736C154.873 55.1627 155.433 55.376 156.158 55.376C156.585 55.376 156.979 55.3173 157.342 55.2C157.705 55.0827 158.057 54.944 158.398 54.784V55.584C158.078 55.744 157.715 55.8827 157.31 56C156.915 56.1067 156.473 56.16 155.982 56.16ZM154.062 51.328H154.51C155.278 51.328 155.966 51.2587 156.574 51.12C157.193 50.9813 157.683 50.7627 158.046 50.464C158.409 50.1653 158.59 49.776 158.59 49.296C158.59 48.9547 158.473 48.672 158.238 48.448C158.014 48.224 157.667 48.112 157.198 48.112C156.771 48.112 156.345 48.24 155.918 48.496C155.502 48.7413 155.129 49.104 154.798 49.584C154.467 50.064 154.222 50.6453 154.062 51.328ZM166.892 56L169.308 44.576H171.836C172.967 44.576 173.804 44.832 174.348 45.344C174.892 45.856 175.164 46.5653 175.164 47.472C175.164 48.656 174.77 49.5947 173.98 50.288C173.202 50.9813 172.023 51.328 170.444 51.328H168.796L167.804 56H166.892ZM168.972 50.528H170.588C171.783 50.528 172.684 50.2667 173.292 49.744C173.911 49.2107 174.22 48.464 174.22 47.504C174.22 46.768 174.002 46.2347 173.564 45.904C173.138 45.5627 172.514 45.392 171.692 45.392H170.06L168.972 50.528ZM180.06 56.144C179.068 56.144 178.311 55.8453 177.788 55.248C177.265 54.6507 177.004 53.8613 177.004 52.88C177.004 52.1333 177.1 51.4293 177.292 50.768C177.495 50.096 177.788 49.504 178.172 48.992C178.556 48.48 179.015 48.08 179.548 47.792C180.081 47.4933 180.684 47.344 181.356 47.344C182.316 47.344 183.057 47.648 183.58 48.256C184.113 48.8533 184.38 49.6373 184.38 50.608C184.38 51.312 184.284 51.9947 184.092 52.656C183.911 53.3173 183.633 53.9093 183.26 54.432C182.897 54.9547 182.444 55.3707 181.9 55.68C181.367 55.9893 180.753 56.144 180.06 56.144ZM180.124 55.36C180.775 55.36 181.351 55.1573 181.852 54.752C182.353 54.336 182.743 53.7653 183.02 53.04C183.308 52.304 183.452 51.4613 183.452 50.512C183.452 50.0853 183.377 49.696 183.228 49.344C183.079 48.9813 182.849 48.688 182.54 48.464C182.231 48.24 181.831 48.128 181.34 48.128C180.668 48.128 180.076 48.336 179.564 48.752C179.052 49.168 178.647 49.7333 178.348 50.448C178.06 51.1627 177.916 51.9787 177.916 52.896C177.916 53.664 178.103 54.2667 178.476 54.704C178.849 55.1413 179.399 55.36 180.124 55.36ZM188.763 56.16C188.219 56.16 187.744 56.1013 187.339 55.984C186.944 55.8667 186.614 55.7333 186.347 55.584V54.704C186.635 54.8853 186.987 55.0453 187.403 55.184C187.83 55.3227 188.278 55.392 188.747 55.392C189.494 55.392 190.043 55.2373 190.395 54.928C190.758 54.6187 190.939 54.224 190.939 53.744C190.939 53.3173 190.79 52.9867 190.491 52.752C190.203 52.5067 189.808 52.2453 189.307 51.968C188.731 51.648 188.267 51.328 187.915 51.008C187.563 50.6773 187.387 50.224 187.387 49.648C187.387 48.9013 187.654 48.3307 188.187 47.936C188.731 47.5307 189.414 47.328 190.235 47.328C190.747 47.328 191.206 47.3813 191.611 47.488C192.027 47.5947 192.39 47.7173 192.699 47.856L192.395 48.624C192.118 48.496 191.798 48.3787 191.435 48.272C191.072 48.1653 190.672 48.112 190.235 48.112C189.67 48.112 189.206 48.24 188.843 48.496C188.491 48.7413 188.315 49.1093 188.315 49.6C188.315 49.984 188.448 50.2933 188.715 50.528C188.992 50.752 189.387 51.0027 189.899 51.28C190.251 51.472 190.576 51.6747 190.875 51.888C191.174 52.0907 191.414 52.3307 191.595 52.608C191.776 52.8853 191.867 53.2373 191.867 53.664C191.867 54.4213 191.6 55.0293 191.067 55.488C190.534 55.936 189.766 56.16 188.763 56.16ZM197.951 56.16C197.076 56.16 196.351 55.888 195.775 55.344C195.21 54.8 194.927 53.9893 194.927 52.912C194.927 52.1867 195.028 51.4933 195.231 50.832C195.444 50.16 195.743 49.5627 196.127 49.04C196.511 48.5067 196.964 48.0907 197.487 47.792C198.02 47.4827 198.607 47.328 199.247 47.328C199.94 47.328 200.484 47.504 200.879 47.856C201.274 48.1973 201.471 48.656 201.471 49.232C201.471 50.1813 201.012 50.896 200.095 51.376C199.178 51.856 197.919 52.096 196.319 52.096H195.903C195.892 52.2027 195.882 52.3307 195.871 52.48C195.86 52.6187 195.855 52.752 195.855 52.88C195.855 53.68 196.052 54.2987 196.447 54.736C196.842 55.1627 197.402 55.376 198.127 55.376C198.554 55.376 198.948 55.3173 199.311 55.2C199.674 55.0827 200.026 54.944 200.367 54.784V55.584C200.047 55.744 199.684 55.8827 199.279 56C198.884 56.1067 198.442 56.16 197.951 56.16ZM196.031 51.328H196.479C197.247 51.328 197.935 51.2587 198.543 51.12C199.162 50.9813 199.652 50.7627 200.015 50.464C200.378 50.1653 200.559 49.776 200.559 49.296C200.559 48.9547 200.442 48.672 200.207 48.448C199.983 48.224 199.636 48.112 199.167 48.112C198.74 48.112 198.314 48.24 197.887 48.496C197.471 48.7413 197.098 49.104 196.767 49.584C196.436 50.064 196.191 50.6453 196.031 51.328ZM205.529 56.16C204.985 56.16 204.51 56.1013 204.105 55.984C203.71 55.8667 203.379 55.7333 203.113 55.584V54.704C203.401 54.8853 203.753 55.0453 204.169 55.184C204.595 55.3227 205.043 55.392 205.513 55.392C206.259 55.392 206.809 55.2373 207.161 54.928C207.523 54.6187 207.705 54.224 207.705 53.744C207.705 53.3173 207.555 52.9867 207.257 52.752C206.969 52.5067 206.574 52.2453 206.073 51.968C205.497 51.648 205.033 51.328 204.681 51.008C204.329 50.6773 204.153 50.224 204.153 49.648C204.153 48.9013 204.419 48.3307 204.953 47.936C205.497 47.5307 206.179 47.328 207.001 47.328C207.513 47.328 207.971 47.3813 208.377 47.488C208.793 47.5947 209.155 47.7173 209.465 47.856L209.161 48.624C208.883 48.496 208.563 48.3787 208.201 48.272C207.838 48.1653 207.438 48.112 207.001 48.112C206.435 48.112 205.971 48.24 205.609 48.496C205.257 48.7413 205.081 49.1093 205.081 49.6C205.081 49.984 205.214 50.2933 205.481 50.528C205.758 50.752 206.153 51.0027 206.665 51.28C207.017 51.472 207.342 51.6747 207.641 51.888C207.939 52.0907 208.179 52.3307 208.361 52.608C208.542 52.8853 208.633 53.2373 208.633 53.664C208.633 54.4213 208.366 55.0293 207.833 55.488C207.299 55.936 206.531 56.16 205.529 56.16ZM219.041 56.16C218.411 56.16 217.878 56.112 217.441 56.016C217.014 55.92 216.625 55.792 216.273 55.632V54.704C216.625 54.8747 217.025 55.024 217.473 55.152C217.931 55.28 218.454 55.344 219.041 55.344C219.521 55.344 219.99 55.264 220.449 55.104C220.907 54.9333 221.286 54.672 221.585 54.32C221.894 53.968 222.049 53.504 222.049 52.928C222.049 52.352 221.862 51.888 221.489 51.536C221.115 51.184 220.577 50.8213 219.873 50.448C219.489 50.2347 219.131 50.0053 218.801 49.76C218.481 49.504 218.225 49.2053 218.033 48.864C217.841 48.5227 217.745 48.1067 217.745 47.616C217.745 46.8907 217.921 46.2933 218.273 45.824C218.625 45.344 219.083 44.992 219.649 44.768C220.214 44.5333 220.811 44.416 221.441 44.416C222.027 44.416 222.534 44.4747 222.961 44.592C223.387 44.6987 223.798 44.848 224.193 45.04L223.841 45.856C223.478 45.6747 223.099 45.5307 222.705 45.424C222.321 45.3067 221.899 45.248 221.441 45.248C221.014 45.248 220.587 45.328 220.161 45.488C219.745 45.6373 219.398 45.8827 219.121 46.224C218.854 46.5653 218.721 47.008 218.721 47.552C218.721 47.9467 218.795 48.272 218.945 48.528C219.105 48.7733 219.323 48.992 219.601 49.184C219.878 49.376 220.193 49.568 220.545 49.76C221.014 50.0267 221.435 50.2987 221.809 50.576C222.182 50.8427 222.475 51.1573 222.689 51.52C222.913 51.872 223.025 52.32 223.025 52.864C223.025 53.632 222.833 54.2613 222.449 54.752C222.075 55.232 221.585 55.5893 220.977 55.824C220.379 56.048 219.734 56.16 219.041 56.16ZM228.904 56.16C228.029 56.16 227.304 55.888 226.728 55.344C226.163 54.8 225.88 53.9893 225.88 52.912C225.88 52.1867 225.981 51.4933 226.184 50.832C226.397 50.16 226.696 49.5627 227.08 49.04C227.464 48.5067 227.917 48.0907 228.44 47.792C228.973 47.4827 229.56 47.328 230.2 47.328C230.893 47.328 231.437 47.504 231.832 47.856C232.227 48.1973 232.424 48.656 232.424 49.232C232.424 50.1813 231.965 50.896 231.048 51.376C230.131 51.856 228.872 52.096 227.272 52.096H226.856C226.845 52.2027 226.835 52.3307 226.824 52.48C226.813 52.6187 226.808 52.752 226.808 52.88C226.808 53.68 227.005 54.2987 227.4 54.736C227.795 55.1627 228.355 55.376 229.08 55.376C229.507 55.376 229.901 55.3173 230.264 55.2C230.627 55.0827 230.979 54.944 231.32 54.784V55.584C231 55.744 230.637 55.8827 230.232 56C229.837 56.1067 229.395 56.16 228.904 56.16ZM226.984 51.328H227.432C228.2 51.328 228.888 51.2587 229.496 51.12C230.115 50.9813 230.605 50.7627 230.968 50.464C231.331 50.1653 231.512 49.776 231.512 49.296C231.512 48.9547 231.395 48.672 231.16 48.448C230.936 48.224 230.589 48.112 230.12 48.112C229.693 48.112 229.267 48.24 228.84 48.496C228.424 48.7413 228.051 49.104 227.72 49.584C227.389 50.064 227.144 50.6453 226.984 51.328ZM234.402 56L236.21 47.488H236.962L236.642 49.392H236.706C236.898 49.0933 237.133 48.784 237.41 48.464C237.687 48.144 238.002 47.8773 238.354 47.664C238.717 47.4507 239.127 47.344 239.586 47.344C239.938 47.344 240.247 47.3813 240.514 47.456L240.322 48.288C240.194 48.256 240.061 48.2293 239.922 48.208C239.783 48.1867 239.639 48.176 239.49 48.176C238.967 48.176 238.482 48.3573 238.034 48.72C237.586 49.072 237.197 49.5307 236.866 50.096C236.546 50.6613 236.317 51.264 236.178 51.904L235.314 56H234.402ZM244.279 45.728C244.108 45.728 243.969 45.68 243.863 45.584C243.767 45.488 243.719 45.3493 243.719 45.168C243.719 44.9653 243.777 44.7787 243.895 44.608C244.012 44.4267 244.188 44.336 244.423 44.336C244.615 44.336 244.753 44.3893 244.839 44.496C244.924 44.592 244.967 44.72 244.967 44.88C244.967 45.1147 244.897 45.3173 244.759 45.488C244.631 45.648 244.471 45.728 244.279 45.728ZM241.543 56L243.351 47.488H244.263L242.455 56H241.543ZM249.685 56.144C248.693 56.144 247.936 55.8453 247.413 55.248C246.89 54.6507 246.629 53.8613 246.629 52.88C246.629 52.1333 246.725 51.4293 246.917 50.768C247.12 50.096 247.413 49.504 247.797 48.992C248.181 48.48 248.64 48.08 249.173 47.792C249.706 47.4933 250.309 47.344 250.981 47.344C251.941 47.344 252.682 47.648 253.205 48.256C253.738 48.8533 254.005 49.6373 254.005 50.608C254.005 51.312 253.909 51.9947 253.717 52.656C253.536 53.3173 253.258 53.9093 252.885 54.432C252.522 54.9547 252.069 55.3707 251.525 55.68C250.992 55.9893 250.378 56.144 249.685 56.144ZM249.749 55.36C250.4 55.36 250.976 55.1573 251.477 54.752C251.978 54.336 252.368 53.7653 252.645 53.04C252.933 52.304 253.077 51.4613 253.077 50.512C253.077 50.0853 253.002 49.696 252.853 49.344C252.704 48.9813 252.474 48.688 252.165 48.464C251.856 48.24 251.456 48.128 250.965 48.128C250.293 48.128 249.701 48.336 249.189 48.752C248.677 49.168 248.272 49.7333 247.973 50.448C247.685 51.1627 247.541 51.9787 247.541 52.896C247.541 53.664 247.728 54.2667 248.101 54.704C248.474 55.1413 249.024 55.36 249.749 55.36ZM258.868 56.16C258.196 56.16 257.668 55.984 257.284 55.632C256.9 55.2693 256.708 54.7413 256.708 54.048C256.708 53.856 256.719 53.6587 256.74 53.456C256.772 53.2533 256.815 53.0453 256.868 52.832L258.004 47.488H258.916L257.748 52.944C257.663 53.3387 257.62 53.6747 257.62 53.952C257.62 54.9013 258.111 55.376 259.092 55.376C259.572 55.376 260.047 55.2213 260.516 54.912C260.985 54.6027 261.407 54.16 261.78 53.584C262.153 53.008 262.425 52.32 262.596 51.52L263.46 47.488H264.356L262.548 56H261.796L262.116 54.096H262.052C261.86 54.3947 261.615 54.704 261.316 55.024C261.017 55.344 260.66 55.616 260.244 55.84C259.839 56.0533 259.38 56.16 258.868 56.16ZM268.451 56.16C267.907 56.16 267.432 56.1013 267.027 55.984C266.632 55.8667 266.301 55.7333 266.035 55.584V54.704C266.323 54.8853 266.675 55.0453 267.091 55.184C267.517 55.3227 267.965 55.392 268.435 55.392C269.181 55.392 269.731 55.2373 270.083 54.928C270.445 54.6187 270.627 54.224 270.627 53.744C270.627 53.3173 270.477 52.9867 270.179 52.752C269.891 52.5067 269.496 52.2453 268.995 51.968C268.419 51.648 267.955 51.328 267.603 51.008C267.251 50.6773 267.075 50.224 267.075 49.648C267.075 48.9013 267.341 48.3307 267.875 47.936C268.419 47.5307 269.101 47.328 269.923 47.328C270.435 47.328 270.893 47.3813 271.299 47.488C271.715 47.5947 272.077 47.7173 272.387 47.856L272.083 48.624C271.805 48.496 271.485 48.3787 271.123 48.272C270.76 48.1653 270.36 48.112 269.923 48.112C269.357 48.112 268.893 48.24 268.531 48.496C268.179 48.7413 268.003 49.1093 268.003 49.6C268.003 49.984 268.136 50.2933 268.403 50.528C268.68 50.752 269.075 51.0027 269.587 51.28C269.939 51.472 270.264 51.6747 270.563 51.888C270.861 52.0907 271.101 52.3307 271.283 52.608C271.464 52.8853 271.555 53.2373 271.555 53.664C271.555 54.4213 271.288 55.0293 270.755 55.488C270.221 55.936 269.453 56.16 268.451 56.16ZM279.627 56L282.043 44.576H284.555C285.963 44.576 287.067 44.9547 287.867 45.712C288.677 46.4587 289.083 47.6107 289.083 49.168C289.083 50.1067 288.933 50.9867 288.635 51.808C288.347 52.6293 287.915 53.3547 287.339 53.984C286.773 54.6133 286.059 55.1093 285.195 55.472C284.341 55.824 283.344 56 282.203 56H279.627ZM280.715 55.184H282.251C283.2 55.184 284.037 55.0293 284.763 54.72C285.499 54.4 286.112 53.9627 286.603 53.408C287.104 52.8533 287.477 52.2133 287.723 51.488C287.979 50.7627 288.107 49.984 288.107 49.152C288.107 47.8507 287.776 46.9013 287.115 46.304C286.453 45.696 285.541 45.392 284.379 45.392H282.795L280.715 55.184ZM293.761 56.16C293.035 56.16 292.465 55.8987 292.049 55.376C291.643 54.8533 291.441 54.1227 291.441 53.184C291.441 52.4587 291.537 51.7493 291.729 51.056C291.921 50.3627 292.198 49.7387 292.561 49.184C292.934 48.6187 293.382 48.1707 293.905 47.84C294.427 47.4987 295.019 47.328 295.681 47.328C296.118 47.328 296.486 47.4187 296.785 47.6C297.083 47.7813 297.318 48.0107 297.489 48.288C297.67 48.5547 297.803 48.832 297.889 49.12H297.953L298.417 47.488H299.137L297.329 56H296.593L296.913 54.096H296.865C296.651 54.416 296.39 54.736 296.081 55.056C295.771 55.376 295.419 55.6427 295.025 55.856C294.63 56.0587 294.209 56.16 293.761 56.16ZM294.017 55.376C294.454 55.376 294.891 55.216 295.329 54.896C295.777 54.576 296.177 54.144 296.529 53.6C296.891 53.056 297.153 52.4427 297.313 51.76C297.377 51.44 297.425 51.1573 297.457 50.912C297.489 50.656 297.505 50.4213 297.505 50.208C297.505 49.568 297.345 49.0613 297.025 48.688C296.715 48.304 296.289 48.112 295.745 48.112C295.222 48.112 294.753 48.2613 294.337 48.56C293.921 48.848 293.563 49.2373 293.265 49.728C292.977 50.208 292.753 50.752 292.593 51.36C292.443 51.9573 292.369 52.5707 292.369 53.2C292.369 53.8933 292.507 54.432 292.785 54.816C293.062 55.1893 293.473 55.376 294.017 55.376ZM301.011 56L302.835 47.456H303.635L303.315 49.36H303.331C303.523 49.0613 303.768 48.7573 304.067 48.448C304.365 48.128 304.723 47.856 305.139 47.632C305.555 47.408 306.019 47.296 306.531 47.296C307.224 47.296 307.763 47.4827 308.147 47.856C308.531 48.2187 308.723 48.7413 308.723 49.424C308.723 49.6267 308.707 49.84 308.675 50.064C308.643 50.2773 308.605 50.4747 308.562 50.656L307.427 56H306.467L307.619 50.544C307.661 50.3307 307.693 50.144 307.715 49.984C307.747 49.824 307.763 49.6693 307.763 49.52C307.763 49.0613 307.635 48.72 307.379 48.496C307.133 48.2613 306.776 48.144 306.307 48.144C305.837 48.144 305.368 48.2987 304.899 48.608C304.429 48.9067 304.008 49.344 303.635 49.92C303.272 50.4853 303.005 51.1627 302.835 51.952L301.971 56H301.011ZM313.489 59.84C312.998 59.84 312.54 59.7867 312.113 59.68C311.697 59.5733 311.34 59.4453 311.041 59.296V58.416C311.329 58.5867 311.697 58.736 312.145 58.864C312.593 58.992 313.036 59.056 313.473 59.056C314.316 59.056 314.977 58.8373 315.457 58.4C315.937 57.9627 316.273 57.3227 316.465 56.48L316.609 55.856C316.662 55.5893 316.732 55.2853 316.817 54.944C316.902 54.6027 316.977 54.304 317.041 54.048H316.993C316.758 54.4 316.481 54.7413 316.161 55.072C315.841 55.392 315.484 55.6533 315.089 55.856C314.694 56.0587 314.262 56.16 313.793 56.16C313.025 56.16 312.438 55.8987 312.033 55.376C311.628 54.8533 311.425 54.1227 311.425 53.184C311.425 52.48 311.516 51.7813 311.697 51.088C311.878 50.3947 312.15 49.7653 312.513 49.2C312.876 48.624 313.324 48.1707 313.857 47.84C314.401 47.4987 315.02 47.328 315.713 47.328C316.172 47.328 316.556 47.4187 316.865 47.6C317.185 47.7707 317.441 47.9947 317.633 48.272C317.825 48.5387 317.964 48.8213 318.049 49.12H318.097L318.577 47.488H319.281L317.361 56.464C317.126 57.584 316.694 58.4267 316.065 58.992C315.446 59.5573 314.588 59.84 313.489 59.84ZM314.049 55.376C314.476 55.376 314.897 55.2373 315.313 54.96C315.74 54.6827 316.129 54.304 316.481 53.824C316.844 53.344 317.132 52.7947 317.345 52.176C317.558 51.5573 317.665 50.9067 317.665 50.224C317.665 49.552 317.5 49.0347 317.169 48.672C316.838 48.2987 316.369 48.112 315.761 48.112C315.217 48.112 314.732 48.2613 314.305 48.56C313.889 48.8587 313.532 49.2533 313.233 49.744C312.945 50.2347 312.726 50.784 312.577 51.392C312.428 51.9893 312.353 52.592 312.353 53.2C312.353 53.8933 312.492 54.432 312.769 54.816C313.046 55.1893 313.473 55.376 314.049 55.376ZM324.717 56.16C323.842 56.16 323.117 55.888 322.541 55.344C321.975 54.8 321.693 53.9893 321.693 52.912C321.693 52.1867 321.794 51.4933 321.997 50.832C322.21 50.16 322.509 49.5627 322.893 49.04C323.277 48.5067 323.73 48.0907 324.253 47.792C324.786 47.4827 325.373 47.328 326.013 47.328C326.706 47.328 327.25 47.504 327.645 47.856C328.039 48.1973 328.237 48.656 328.237 49.232C328.237 50.1813 327.778 50.896 326.861 51.376C325.943 51.856 324.685 52.096 323.085 52.096H322.669C322.658 52.2027 322.647 52.3307 322.637 52.48C322.626 52.6187 322.621 52.752 322.621 52.88C322.621 53.68 322.818 54.2987 323.213 54.736C323.607 55.1627 324.167 55.376 324.893 55.376C325.319 55.376 325.714 55.3173 326.077 55.2C326.439 55.0827 326.791 54.944 327.133 54.784V55.584C326.813 55.744 326.45 55.8827 326.045 56C325.65 56.1067 325.207 56.16 324.717 56.16ZM322.797 51.328H323.245C324.013 51.328 324.701 51.2587 325.309 51.12C325.927 50.9813 326.418 50.7627 326.781 50.464C327.143 50.1653 327.325 49.776 327.325 49.296C327.325 48.9547 327.207 48.672 326.973 48.448C326.749 48.224 326.402 48.112 325.933 48.112C325.506 48.112 325.079 48.24 324.653 48.496C324.237 48.7413 323.863 49.104 323.533 49.584C323.202 50.064 322.957 50.6453 322.797 51.328ZM330.214 56L332.022 47.488H332.774L332.454 49.392H332.518C332.71 49.0933 332.945 48.784 333.222 48.464C333.5 48.144 333.814 47.8773 334.166 47.664C334.529 47.4507 334.94 47.344 335.398 47.344C335.75 47.344 336.06 47.3813 336.326 47.456L336.134 48.288C336.006 48.256 335.873 48.2293 335.734 48.208C335.596 48.1867 335.452 48.176 335.302 48.176C334.78 48.176 334.294 48.3573 333.846 48.72C333.398 49.072 333.009 49.5307 332.678 50.096C332.358 50.6613 332.129 51.264 331.99 51.904L331.126 56H330.214ZM339.435 56.16C338.891 56.16 338.416 56.1013 338.011 55.984C337.616 55.8667 337.286 55.7333 337.019 55.584V54.704C337.307 54.8853 337.659 55.0453 338.075 55.184C338.502 55.3227 338.95 55.392 339.419 55.392C340.166 55.392 340.715 55.2373 341.067 54.928C341.43 54.6187 341.611 54.224 341.611 53.744C341.611 53.3173 341.462 52.9867 341.163 52.752C340.875 52.5067 340.48 52.2453 339.979 51.968C339.403 51.648 338.939 51.328 338.587 51.008C338.235 50.6773 338.059 50.224 338.059 49.648C338.059 48.9013 338.326 48.3307 338.859 47.936C339.403 47.5307 340.086 47.328 340.907 47.328C341.419 47.328 341.878 47.3813 342.283 47.488C342.699 47.5947 343.062 47.7173 343.371 47.856L343.067 48.624C342.79 48.496 342.47 48.3787 342.107 48.272C341.744 48.1653 341.344 48.112 340.907 48.112C340.342 48.112 339.878 48.24 339.515 48.496C339.163 48.7413 338.987 49.1093 338.987 49.6C338.987 49.984 339.12 50.2933 339.387 50.528C339.664 50.752 340.059 51.0027 340.571 51.28C340.923 51.472 341.248 51.6747 341.547 51.888C341.846 52.0907 342.086 52.3307 342.267 52.608C342.448 52.8853 342.539 53.2373 342.539 53.664C342.539 54.4213 342.272 55.0293 341.739 55.488C341.206 55.936 340.438 56.16 339.435 56.16ZM350.611 56L353.027 44.576H358.787L358.627 45.408H353.779L352.787 50.112H357.347L357.155 50.944H352.595L351.523 56H350.611ZM362.482 56.144C361.49 56.144 360.732 55.8453 360.21 55.248C359.687 54.6507 359.426 53.8613 359.426 52.88C359.426 52.1333 359.522 51.4293 359.714 50.768C359.916 50.096 360.21 49.504 360.594 48.992C360.978 48.48 361.436 48.08 361.97 47.792C362.503 47.4933 363.106 47.344 363.778 47.344C364.738 47.344 365.479 47.648 366.002 48.256C366.535 48.8533 366.802 49.6373 366.802 50.608C366.802 51.312 366.706 51.9947 366.514 52.656C366.332 53.3173 366.055 53.9093 365.682 54.432C365.319 54.9547 364.866 55.3707 364.322 55.68C363.788 55.9893 363.175 56.144 362.482 56.144ZM362.546 55.36C363.196 55.36 363.772 55.1573 364.274 54.752C364.775 54.336 365.164 53.7653 365.442 53.04C365.73 52.304 365.874 51.4613 365.874 50.512C365.874 50.0853 365.799 49.696 365.65 49.344C365.5 48.9813 365.271 48.688 364.962 48.464C364.652 48.24 364.252 48.128 363.762 48.128C363.09 48.128 362.498 48.336 361.986 48.752C361.474 49.168 361.068 49.7333 360.77 50.448C360.482 51.1627 360.338 51.9787 360.338 52.896C360.338 53.664 360.524 54.2667 360.898 54.704C361.271 55.1413 361.82 55.36 362.546 55.36ZM369.105 56L370.913 47.488H371.665L371.345 49.392H371.409C371.601 49.0933 371.836 48.784 372.113 48.464C372.39 48.144 372.705 47.8773 373.057 47.664C373.42 47.4507 373.83 47.344 374.289 47.344C374.641 47.344 374.95 47.3813 375.217 47.456L375.025 48.288C374.897 48.256 374.764 48.2293 374.625 48.208C374.486 48.1867 374.342 48.176 374.193 48.176C373.67 48.176 373.185 48.3573 372.737 48.72C372.289 49.072 371.9 49.5307 371.569 50.096C371.249 50.6613 371.02 51.264 370.881 51.904L370.017 56H369.105ZM381.658 56L384.074 44.576H389.834L389.658 45.408H384.826L383.93 49.584H388.474L388.314 50.416H383.77L382.746 55.168H387.594L387.418 56H381.658ZM390.808 56L392.616 47.488H393.368L393.048 49.392H393.112C393.283 49.0933 393.507 48.784 393.784 48.464C394.061 48.144 394.387 47.8773 394.76 47.664C395.144 47.44 395.581 47.328 396.072 47.328C396.733 47.328 397.213 47.5253 397.512 47.92C397.811 48.304 397.971 48.8213 397.992 49.472H398.024C398.216 49.1413 398.456 48.8107 398.744 48.48C399.043 48.1493 399.389 47.8773 399.784 47.664C400.179 47.44 400.621 47.328 401.112 47.328C401.752 47.328 402.248 47.5093 402.6 47.872C402.963 48.224 403.144 48.7413 403.144 49.424C403.144 49.6267 403.128 49.8293 403.096 50.032C403.075 50.2347 403.037 50.4427 402.984 50.656L401.864 56H400.936L402.104 50.544C402.189 50.1493 402.232 49.808 402.232 49.52C402.232 48.5813 401.773 48.112 400.856 48.112C400.419 48.112 399.981 48.272 399.544 48.592C399.107 48.9013 398.717 49.3387 398.376 49.904C398.045 50.4587 397.805 51.1093 397.656 51.856L396.776 56H395.864L397 50.672C397.053 50.4373 397.091 50.224 397.112 50.032C397.133 49.8293 397.144 49.6587 397.144 49.52C397.144 49.0827 397.032 48.7413 396.808 48.496C396.584 48.24 396.253 48.112 395.816 48.112C395.368 48.112 394.925 48.272 394.488 48.592C394.061 48.9013 393.677 49.344 393.336 49.92C392.995 50.496 392.744 51.1733 392.584 51.952L391.72 56H390.808ZM404.774 59.776L407.366 47.488H408.118L407.798 49.392H407.846C408.07 49.0507 408.337 48.7253 408.646 48.416C408.955 48.096 409.307 47.8347 409.702 47.632C410.097 47.4293 410.534 47.328 411.014 47.328C411.739 47.328 412.321 47.5893 412.758 48.112C413.206 48.6347 413.43 49.3653 413.43 50.304C413.43 51.0187 413.334 51.7227 413.142 52.416C412.961 53.1093 412.689 53.7387 412.326 54.304C411.963 54.8693 411.515 55.3227 410.982 55.664C410.449 55.9947 409.835 56.16 409.142 56.16C408.683 56.16 408.294 56.0747 407.974 55.904C407.665 55.7333 407.414 55.5147 407.222 55.248C407.03 54.9707 406.891 54.6773 406.806 54.368H406.742C406.71 54.6453 406.662 54.9547 406.598 55.296C406.545 55.6267 406.486 55.9253 406.422 56.192L405.67 59.776H404.774ZM409.094 55.376C409.638 55.376 410.118 55.232 410.534 54.944C410.961 54.6453 411.318 54.2507 411.606 53.76C411.894 53.2587 412.113 52.7093 412.262 52.112C412.411 51.5147 412.486 50.9067 412.486 50.288C412.486 49.5947 412.331 49.0613 412.022 48.688C411.723 48.304 411.297 48.112 410.742 48.112C410.283 48.112 409.841 48.256 409.414 48.544C408.987 48.832 408.603 49.2213 408.262 49.712C407.931 50.192 407.665 50.7413 407.462 51.36C407.27 51.968 407.174 52.6027 407.174 53.264C407.174 53.936 407.339 54.4587 407.67 54.832C408.011 55.1947 408.486 55.376 409.094 55.376ZM415.746 56L418.322 43.84H419.234L416.642 56H415.746ZM423.888 56.144C422.896 56.144 422.139 55.8453 421.616 55.248C421.093 54.6507 420.832 53.8613 420.832 52.88C420.832 52.1333 420.928 51.4293 421.12 50.768C421.323 50.096 421.616 49.504 422 48.992C422.384 48.48 422.843 48.08 423.376 47.792C423.909 47.4933 424.512 47.344 425.184 47.344C426.144 47.344 426.885 47.648 427.408 48.256C427.941 48.8533 428.208 49.6373 428.208 50.608C428.208 51.312 428.112 51.9947 427.92 52.656C427.739 53.3173 427.461 53.9093 427.088 54.432C426.725 54.9547 426.272 55.3707 425.728 55.68C425.195 55.9893 424.581 56.144 423.888 56.144ZM423.952 55.36C424.603 55.36 425.179 55.1573 425.68 54.752C426.181 54.336 426.571 53.7653 426.848 53.04C427.136 52.304 427.28 51.4613 427.28 50.512C427.28 50.0853 427.205 49.696 427.056 49.344C426.907 48.9813 426.677 48.688 426.368 48.464C426.059 48.24 425.659 48.128 425.168 48.128C424.496 48.128 423.904 48.336 423.392 48.752C422.88 49.168 422.475 49.7333 422.176 50.448C421.888 51.1627 421.744 51.9787 421.744 52.896C421.744 53.664 421.931 54.2667 422.304 54.704C422.677 55.1413 423.227 55.36 423.952 55.36ZM429.063 59.856C428.839 59.856 428.652 59.84 428.503 59.808C428.343 59.7867 428.193 59.7493 428.055 59.696V58.928C428.193 58.9707 428.343 59.008 428.503 59.04C428.652 59.072 428.828 59.088 429.031 59.088C429.447 59.088 429.809 58.944 430.119 58.656C430.428 58.3787 430.743 57.952 431.063 57.376L431.863 56L430.503 47.488H431.415L432.167 52.464C432.241 52.9653 432.3 53.4667 432.343 53.968C432.385 54.4587 432.417 54.848 432.439 55.136H432.471C432.545 54.9653 432.647 54.7467 432.775 54.48C432.903 54.2027 433.041 53.9093 433.191 53.6C433.351 53.2907 433.511 52.9973 433.671 52.72L436.535 47.488H437.511L431.895 57.632C431.489 58.3573 431.073 58.9067 430.647 59.28C430.22 59.664 429.692 59.856 429.063 59.856ZM441.654 56.16C440.779 56.16 440.054 55.888 439.478 55.344C438.913 54.8 438.63 53.9893 438.63 52.912C438.63 52.1867 438.731 51.4933 438.934 50.832C439.147 50.16 439.446 49.5627 439.83 49.04C440.214 48.5067 440.667 48.0907 441.19 47.792C441.723 47.4827 442.31 47.328 442.95 47.328C443.643 47.328 444.187 47.504 444.582 47.856C444.977 48.1973 445.174 48.656 445.174 49.232C445.174 50.1813 444.715 50.896 443.798 51.376C442.881 51.856 441.622 52.096 440.022 52.096H439.606C439.595 52.2027 439.585 52.3307 439.574 52.48C439.563 52.6187 439.558 52.752 439.558 52.88C439.558 53.68 439.755 54.2987 440.15 54.736C440.545 55.1627 441.105 55.376 441.83 55.376C442.257 55.376 442.651 55.3173 443.014 55.2C443.377 55.0827 443.729 54.944 444.07 54.784V55.584C443.75 55.744 443.387 55.8827 442.982 56C442.587 56.1067 442.145 56.16 441.654 56.16ZM439.734 51.328H440.182C440.95 51.328 441.638 51.2587 442.246 51.12C442.865 50.9813 443.355 50.7627 443.718 50.464C444.081 50.1653 444.262 49.776 444.262 49.296C444.262 48.9547 444.145 48.672 443.91 48.448C443.686 48.224 443.339 48.112 442.87 48.112C442.443 48.112 442.017 48.24 441.59 48.496C441.174 48.7413 440.801 49.104 440.47 49.584C440.139 50.064 439.894 50.6453 439.734 51.328ZM447.152 56L448.96 47.488H449.712L449.392 49.392H449.456C449.648 49.0933 449.883 48.784 450.16 48.464C450.437 48.144 450.752 47.8773 451.104 47.664C451.467 47.4507 451.877 47.344 452.336 47.344C452.688 47.344 452.997 47.3813 453.264 47.456L453.072 48.288C452.944 48.256 452.811 48.2293 452.672 48.208C452.533 48.1867 452.389 48.176 452.24 48.176C451.717 48.176 451.232 48.3573 450.784 48.72C450.336 49.072 449.947 49.5307 449.616 50.096C449.296 50.6613 449.067 51.264 448.928 51.904L448.064 56H447.152ZM456.373 56.16C455.829 56.16 455.354 56.1013 454.949 55.984C454.554 55.8667 454.223 55.7333 453.957 55.584V54.704C454.245 54.8853 454.597 55.0453 455.013 55.184C455.439 55.3227 455.887 55.392 456.357 55.392C457.103 55.392 457.653 55.2373 458.005 54.928C458.367 54.6187 458.549 54.224 458.549 53.744C458.549 53.3173 458.399 52.9867 458.101 52.752C457.813 52.5067 457.418 52.2453 456.917 51.968C456.341 51.648 455.877 51.328 455.525 51.008C455.173 50.6773 454.997 50.224 454.997 49.648C454.997 48.9013 455.263 48.3307 455.797 47.936C456.341 47.5307 457.023 47.328 457.845 47.328C458.357 47.328 458.815 47.3813 459.221 47.488C459.637 47.5947 459.999 47.7173 460.309 47.856L460.005 48.624C459.727 48.496 459.407 48.3787 459.045 48.272C458.682 48.1653 458.282 48.112 457.845 48.112C457.279 48.112 456.815 48.24 456.453 48.496C456.101 48.7413 455.924 49.1093 455.924 49.6C455.924 49.984 456.058 50.2933 456.325 50.528C456.602 50.752 456.997 51.0027 457.509 51.28C457.861 51.472 458.186 51.6747 458.485 51.888C458.783 52.0907 459.023 52.3307 459.205 52.608C459.386 52.8853 459.477 53.2373 459.477 53.664C459.477 54.4213 459.21 55.0293 458.677 55.488C458.143 55.936 457.375 56.16 456.373 56.16ZM465.964 56L472.413 44.56H473.357L474.909 56H473.997L473.453 52.048H469.181L466.973 56H465.964ZM469.629 51.216H473.357L472.877 47.632C472.845 47.3227 472.807 46.9867 472.765 46.624C472.733 46.2613 472.711 45.92 472.701 45.6H472.653C472.503 45.9307 472.338 46.272 472.157 46.624C471.986 46.9653 471.81 47.312 471.629 47.664L469.629 51.216ZM477.136 56L478.96 47.456H479.76L479.44 49.36H479.456C479.648 49.0613 479.893 48.7573 480.192 48.448C480.49 48.128 480.848 47.856 481.264 47.632C481.68 47.408 482.144 47.296 482.656 47.296C483.349 47.296 483.888 47.4827 484.272 47.856C484.656 48.2187 484.848 48.7413 484.848 49.424C484.848 49.6267 484.832 49.84 484.8 50.064C484.768 50.2773 484.73 50.4747 484.688 50.656L483.552 56H482.592L483.744 50.544C483.786 50.3307 483.818 50.144 483.84 49.984C483.872 49.824 483.888 49.6693 483.888 49.52C483.888 49.0613 483.76 48.72 483.504 48.496C483.258 48.2613 482.901 48.144 482.432 48.144C481.962 48.144 481.493 48.2987 481.024 48.608C480.554 48.9067 480.133 49.344 479.76 49.92C479.397 50.4853 479.13 51.1627 478.96 51.952L478.096 56H477.136ZM489.902 56.16C489.145 56.16 488.563 55.904 488.158 55.392C487.753 54.8693 487.55 54.1333 487.55 53.184C487.55 52.4693 487.641 51.7653 487.822 51.072C488.003 50.3787 488.275 49.7547 488.638 49.2C489.011 48.6347 489.459 48.1813 489.982 47.84C490.515 47.4987 491.134 47.328 491.838 47.328C492.297 47.328 492.681 47.4187 492.99 47.6C493.31 47.7707 493.561 47.9947 493.742 48.272C493.934 48.5387 494.073 48.8213 494.158 49.12H494.222C494.265 48.7573 494.318 48.4 494.382 48.048C494.446 47.696 494.521 47.3387 494.606 46.976L495.262 43.84H496.174L493.598 56H492.846L493.15 54.08H493.102C492.867 54.4213 492.59 54.752 492.27 55.072C491.95 55.392 491.593 55.6533 491.198 55.856C490.803 56.0587 490.371 56.16 489.902 56.16ZM490.158 55.376C490.585 55.376 491.011 55.2373 491.438 54.96C491.875 54.6827 492.27 54.3093 492.622 53.84C492.974 53.36 493.257 52.8107 493.47 52.192C493.683 51.5627 493.79 50.9067 493.79 50.224C493.79 49.552 493.619 49.0347 493.278 48.672C492.947 48.2987 492.478 48.112 491.87 48.112C491.326 48.112 490.846 48.2613 490.43 48.56C490.014 48.8587 489.657 49.2533 489.358 49.744C489.07 50.2347 488.851 50.784 488.702 51.392C488.553 51.9893 488.478 52.592 488.478 53.2C488.478 53.904 488.617 54.4427 488.894 54.816C489.182 55.1893 489.603 55.376 490.158 55.376ZM502.83 56L505.246 44.576H511.006L510.83 45.408H505.998L505.102 49.584H509.646L509.486 50.416H504.942L503.918 55.168H508.766L508.59 56H502.83ZM511.98 56L513.788 47.488H514.54L514.22 49.392H514.284C514.455 49.0933 514.679 48.784 514.956 48.464C515.233 48.144 515.559 47.8773 515.932 47.664C516.316 47.44 516.753 47.328 517.244 47.328C517.905 47.328 518.385 47.5253 518.684 47.92C518.983 48.304 519.143 48.8213 519.164 49.472H519.196C519.388 49.1413 519.628 48.8107 519.916 48.48C520.215 48.1493 520.561 47.8773 520.956 47.664C521.351 47.44 521.793 47.328 522.284 47.328C522.924 47.328 523.42 47.5093 523.772 47.872C524.135 48.224 524.316 48.7413 524.316 49.424C524.316 49.6267 524.3 49.8293 524.268 50.032C524.247 50.2347 524.209 50.4427 524.156 50.656L523.036 56H522.108L523.276 50.544C523.361 50.1493 523.404 49.808 523.404 49.52C523.404 48.5813 522.945 48.112 522.028 48.112C521.591 48.112 521.153 48.272 520.716 48.592C520.279 48.9013 519.889 49.3387 519.548 49.904C519.217 50.4587 518.977 51.1093 518.828 51.856L517.948 56H517.036L518.172 50.672C518.225 50.4373 518.263 50.224 518.284 50.032C518.305 49.8293 518.316 49.6587 518.316 49.52C518.316 49.0827 518.204 48.7413 517.98 48.496C517.756 48.24 517.425 48.112 516.988 48.112C516.54 48.112 516.097 48.272 515.66 48.592C515.233 48.9013 514.849 49.344 514.508 49.92C514.167 50.496 513.916 51.1733 513.756 51.952L512.892 56H511.98ZM525.946 59.776L528.538 47.488H529.29L528.97 49.392H529.018C529.242 49.0507 529.509 48.7253 529.818 48.416C530.127 48.096 530.479 47.8347 530.874 47.632C531.269 47.4293 531.706 47.328 532.186 47.328C532.911 47.328 533.493 47.5893 533.93 48.112C534.378 48.6347 534.602 49.3653 534.602 50.304C534.602 51.0187 534.506 51.7227 534.314 52.416C534.133 53.1093 533.861 53.7387 533.498 54.304C533.135 54.8693 532.687 55.3227 532.154 55.664C531.621 55.9947 531.007 56.16 530.314 56.16C529.855 56.16 529.466 56.0747 529.146 55.904C528.837 55.7333 528.586 55.5147 528.394 55.248C528.202 54.9707 528.063 54.6773 527.978 54.368H527.914C527.882 54.6453 527.834 54.9547 527.77 55.296C527.717 55.6267 527.658 55.9253 527.594 56.192L526.842 59.776H525.946ZM530.266 55.376C530.81 55.376 531.29 55.232 531.706 54.944C532.133 54.6453 532.49 54.2507 532.778 53.76C533.066 53.2587 533.285 52.7093 533.434 52.112C533.583 51.5147 533.658 50.9067 533.658 50.288C533.658 49.5947 533.503 49.0613 533.194 48.688C532.895 48.304 532.469 48.112 531.914 48.112C531.455 48.112 531.013 48.256 530.586 48.544C530.159 48.832 529.775 49.2213 529.434 49.712C529.103 50.192 528.837 50.7413 528.634 51.36C528.442 51.968 528.346 52.6027 528.346 53.264C528.346 53.936 528.511 54.4587 528.842 54.832C529.183 55.1947 529.658 55.376 530.266 55.376ZM536.918 56L539.494 43.84H540.406L537.814 56H536.918ZM545.06 56.144C544.068 56.144 543.311 55.8453 542.788 55.248C542.265 54.6507 542.004 53.8613 542.004 52.88C542.004 52.1333 542.1 51.4293 542.292 50.768C542.495 50.096 542.788 49.504 543.172 48.992C543.556 48.48 544.015 48.08 544.548 47.792C545.081 47.4933 545.684 47.344 546.356 47.344C547.316 47.344 548.057 47.648 548.58 48.256C549.113 48.8533 549.38 49.6373 549.38 50.608C549.38 51.312 549.284 51.9947 549.092 52.656C548.911 53.3173 548.633 53.9093 548.26 54.432C547.897 54.9547 547.444 55.3707 546.9 55.68C546.367 55.9893 545.753 56.144 545.06 56.144ZM545.124 55.36C545.775 55.36 546.351 55.1573 546.852 54.752C547.353 54.336 547.743 53.7653 548.02 53.04C548.308 52.304 548.452 51.4613 548.452 50.512C548.452 50.0853 548.377 49.696 548.228 49.344C548.079 48.9813 547.849 48.688 547.54 48.464C547.231 48.24 546.831 48.128 546.34 48.128C545.668 48.128 545.076 48.336 544.564 48.752C544.052 49.168 543.647 49.7333 543.348 50.448C543.06 51.1627 542.916 51.9787 542.916 52.896C542.916 53.664 543.103 54.2667 543.476 54.704C543.849 55.1413 544.399 55.36 545.124 55.36ZM550.235 59.856C550.011 59.856 549.824 59.84 549.675 59.808C549.515 59.7867 549.365 59.7493 549.227 59.696V58.928C549.365 58.9707 549.515 59.008 549.675 59.04C549.824 59.072 550 59.088 550.203 59.088C550.619 59.088 550.981 58.944 551.291 58.656C551.6 58.3787 551.915 57.952 552.235 57.376L553.035 56L551.675 47.488H552.587L553.339 52.464C553.413 52.9653 553.472 53.4667 553.515 53.968C553.557 54.4587 553.589 54.848 553.611 55.136H553.643C553.717 54.9653 553.819 54.7467 553.947 54.48C554.075 54.2027 554.213 53.9093 554.363 53.6C554.523 53.2907 554.683 52.9973 554.843 52.72L557.707 47.488H558.683L553.067 57.632C552.661 58.3573 552.245 58.9067 551.819 59.28C551.392 59.664 550.864 59.856 550.235 59.856ZM562.826 56.16C561.951 56.16 561.226 55.888 560.65 55.344C560.085 54.8 559.802 53.9893 559.802 52.912C559.802 52.1867 559.903 51.4933 560.106 50.832C560.319 50.16 560.618 49.5627 561.002 49.04C561.386 48.5067 561.839 48.0907 562.362 47.792C562.895 47.4827 563.482 47.328 564.122 47.328C564.815 47.328 565.359 47.504 565.754 47.856C566.149 48.1973 566.346 48.656 566.346 49.232C566.346 50.1813 565.887 50.896 564.97 51.376C564.053 51.856 562.794 52.096 561.194 52.096H560.778C560.767 52.2027 560.757 52.3307 560.746 52.48C560.735 52.6187 560.73 52.752 560.73 52.88C560.73 53.68 560.927 54.2987 561.322 54.736C561.717 55.1627 562.277 55.376 563.002 55.376C563.429 55.376 563.823 55.3173 564.186 55.2C564.549 55.0827 564.901 54.944 565.242 54.784V55.584C564.922 55.744 564.559 55.8827 564.154 56C563.759 56.1067 563.317 56.16 562.826 56.16ZM560.906 51.328H561.354C562.122 51.328 562.81 51.2587 563.418 51.12C564.037 50.9813 564.527 50.7627 564.89 50.464C565.253 50.1653 565.434 49.776 565.434 49.296C565.434 48.9547 565.317 48.672 565.082 48.448C564.858 48.224 564.511 48.112 564.042 48.112C563.615 48.112 563.189 48.24 562.762 48.496C562.346 48.7413 561.973 49.104 561.642 49.584C561.311 50.064 561.066 50.6453 560.906 51.328ZM571.748 56.16C570.873 56.16 570.148 55.888 569.572 55.344C569.006 54.8 568.724 53.9893 568.724 52.912C568.724 52.1867 568.825 51.4933 569.028 50.832C569.241 50.16 569.54 49.5627 569.924 49.04C570.308 48.5067 570.761 48.0907 571.284 47.792C571.817 47.4827 572.404 47.328 573.044 47.328C573.737 47.328 574.281 47.504 574.676 47.856C575.07 48.1973 575.268 48.656 575.268 49.232C575.268 50.1813 574.809 50.896 573.892 51.376C572.974 51.856 571.716 52.096 570.116 52.096H569.7C569.689 52.2027 569.678 52.3307 569.668 52.48C569.657 52.6187 569.652 52.752 569.652 52.88C569.652 53.68 569.849 54.2987 570.244 54.736C570.638 55.1627 571.198 55.376 571.924 55.376C572.35 55.376 572.745 55.3173 573.108 55.2C573.47 55.0827 573.822 54.944 574.164 54.784V55.584C573.844 55.744 573.481 55.8827 573.076 56C572.681 56.1067 572.238 56.16 571.748 56.16ZM569.828 51.328H570.276C571.044 51.328 571.732 51.2587 572.34 51.12C572.958 50.9813 573.449 50.7627 573.812 50.464C574.174 50.1653 574.356 49.776 574.356 49.296C574.356 48.9547 574.238 48.672 574.004 48.448C573.78 48.224 573.433 48.112 572.964 48.112C572.537 48.112 572.11 48.24 571.684 48.496C571.268 48.7413 570.894 49.104 570.564 49.584C570.233 50.064 569.988 50.6453 569.828 51.328ZM579.326 56.16C578.782 56.16 578.307 56.1013 577.902 55.984C577.507 55.8667 577.176 55.7333 576.91 55.584V54.704C577.198 54.8853 577.55 55.0453 577.966 55.184C578.392 55.3227 578.84 55.392 579.31 55.392C580.056 55.392 580.606 55.2373 580.958 54.928C581.32 54.6187 581.502 54.224 581.502 53.744C581.502 53.3173 581.352 52.9867 581.054 52.752C580.766 52.5067 580.371 52.2453 579.87 51.968C579.294 51.648 578.83 51.328 578.478 51.008C578.126 50.6773 577.95 50.224 577.95 49.648C577.95 48.9013 578.216 48.3307 578.75 47.936C579.294 47.5307 579.976 47.328 580.798 47.328C581.31 47.328 581.768 47.3813 582.174 47.488C582.59 47.5947 582.952 47.7173 583.262 47.856L582.958 48.624C582.68 48.496 582.36 48.3787 581.998 48.272C581.635 48.1653 581.235 48.112 580.798 48.112C580.232 48.112 579.768 48.24 579.406 48.496C579.054 48.7413 578.878 49.1093 578.878 49.6C578.878 49.984 579.011 50.2933 579.278 50.528C579.555 50.752 579.95 51.0027 580.462 51.28C580.814 51.472 581.139 51.6747 581.438 51.888C581.736 52.0907 581.976 52.3307 582.158 52.608C582.339 52.8853 582.43 53.2373 582.43 53.664C582.43 54.4213 582.163 55.0293 581.63 55.488C581.096 55.936 580.328 56.16 579.326 56.16ZM588.918 56L595.366 44.56H596.31L597.862 56H596.95L596.406 52.048H592.134L589.926 56H588.918ZM592.582 51.216H596.31L595.83 47.632C595.798 47.3227 595.76 46.9867 595.718 46.624C595.686 46.2613 595.664 45.92 595.654 45.6H595.606C595.456 45.9307 595.291 46.272 595.11 46.624C594.939 46.9653 594.763 47.312 594.582 47.664L592.582 51.216ZM600.121 56L602.697 43.84H603.609L601.017 56H600.121ZM607.591 45.728C607.42 45.728 607.282 45.68 607.175 45.584C607.079 45.488 607.031 45.3493 607.031 45.168C607.031 44.9653 607.09 44.7787 607.207 44.608C607.324 44.4267 607.5 44.336 607.735 44.336C607.927 44.336 608.066 44.3893 608.151 44.496C608.236 44.592 608.279 44.72 608.279 44.88C608.279 45.1147 608.21 45.3173 608.071 45.488C607.943 45.648 607.783 45.728 607.591 45.728ZM604.855 56L606.663 47.488H607.575L605.767 56H604.855ZM609.589 56L612.165 43.84H613.077L611.925 49.264C611.776 49.9573 611.643 50.5333 611.525 50.992C611.408 51.44 611.307 51.8293 611.221 52.16H611.237L616.037 47.488H617.125L613.333 51.168L615.685 56H614.677L612.645 51.744L611.109 53.072L610.501 56H609.589ZM621.17 56.16C620.295 56.16 619.57 55.888 618.994 55.344C618.428 54.8 618.146 53.9893 618.146 52.912C618.146 52.1867 618.247 51.4933 618.45 50.832C618.663 50.16 618.962 49.5627 619.346 49.04C619.73 48.5067 620.183 48.0907 620.706 47.792C621.239 47.4827 621.826 47.328 622.466 47.328C623.159 47.328 623.703 47.504 624.098 47.856C624.492 48.1973 624.69 48.656 624.69 49.232C624.69 50.1813 624.231 50.896 623.314 51.376C622.396 51.856 621.138 52.096 619.538 52.096H619.122C619.111 52.2027 619.1 52.3307 619.09 52.48C619.079 52.6187 619.074 52.752 619.074 52.88C619.074 53.68 619.271 54.2987 619.666 54.736C620.06 55.1627 620.62 55.376 621.346 55.376C621.772 55.376 622.167 55.3173 622.53 55.2C622.892 55.0827 623.244 54.944 623.586 54.784V55.584C623.266 55.744 622.903 55.8827 622.498 56C622.103 56.1067 621.66 56.16 621.17 56.16ZM619.25 51.328H619.698C620.466 51.328 621.154 51.2587 621.762 51.12C622.38 50.9813 622.871 50.7627 623.234 50.464C623.596 50.1653 623.778 49.776 623.778 49.296C623.778 48.9547 623.66 48.672 623.426 48.448C623.202 48.224 622.855 48.112 622.386 48.112C621.959 48.112 621.532 48.24 621.106 48.496C620.69 48.7413 620.316 49.104 619.986 49.584C619.655 50.064 619.41 50.6453 619.25 51.328Z" fill="black" fill-opacity="0.39"/>
<rect width="93.7931" height="22"/>
</svg>
