<svg width="350" height="91" viewBox="0 0 350 91" fill="none" xmlns="http://www.w3.org/2000/svg">
<path d="M5.16962 86L5.28163 85.456L6.49763 85.264L8.60963 75.312L7.47363 75.136L7.58563 74.576H10.8496L10.7376 75.136L9.52163 75.312L7.39363 85.264L8.54563 85.456L8.43363 86H5.16962ZM13.6538 86.16C13.1098 86.16 12.6351 86.1013 12.2298 85.984C11.8351 85.8667 11.5044 85.7333 11.2378 85.584V84.704C11.5258 84.8853 11.8778 85.0453 12.2938 85.184C12.7204 85.3227 13.1684 85.392 13.6378 85.392C14.3844 85.392 14.9338 85.2373 15.2858 84.928C15.6484 84.6187 15.8298 84.224 15.8298 83.744C15.8298 83.3173 15.6804 82.9867 15.3818 82.752C15.0938 82.5067 14.6991 82.2453 14.1978 81.968C13.6218 81.648 13.1578 81.328 12.8058 81.008C12.4538 80.6773 12.2778 80.224 12.2778 79.648C12.2778 78.9013 12.5444 78.3307 13.0778 77.936C13.6218 77.5307 14.3044 77.328 15.1258 77.328C15.6378 77.328 16.0964 77.3813 16.5018 77.488C16.9178 77.5947 17.2804 77.7173 17.5898 77.856L17.2858 78.624C17.0084 78.496 16.6884 78.3787 16.3258 78.272C15.9631 78.1653 15.5631 78.112 15.1258 78.112C14.5604 78.112 14.0964 78.24 13.7338 78.496C13.3818 78.7413 13.2057 79.1093 13.2057 79.6C13.2057 79.984 13.3391 80.2933 13.6058 80.528C13.8831 80.752 14.2778 81.0027 14.7898 81.28C15.1418 81.472 15.4671 81.6747 15.7658 81.888C16.0644 82.0907 16.3044 82.3307 16.4858 82.608C16.6671 82.8853 16.7578 83.2373 16.7578 83.664C16.7578 84.4213 16.4911 85.0293 15.9578 85.488C15.4244 85.936 14.6564 86.16 13.6538 86.16ZM26.6858 86L28.9258 75.408H25.5658L25.7418 74.576H33.4218L33.2458 75.408H29.8698L27.6298 86H26.6858ZM33.4644 86L36.0404 73.84H36.9524L36.2644 77.04C36.1897 77.424 36.099 77.8187 35.9924 78.224C35.8964 78.6293 35.8004 79.0187 35.7044 79.392H35.7524C35.9444 79.0933 36.1897 78.784 36.4884 78.464C36.7977 78.144 37.155 77.8773 37.5604 77.664C37.9764 77.44 38.4404 77.328 38.9524 77.328C39.635 77.328 40.163 77.5093 40.5364 77.872C40.9204 78.2347 41.1124 78.768 41.1124 79.472C41.1124 79.6533 41.0964 79.8453 41.0644 80.048C41.043 80.24 41.011 80.4427 40.9684 80.656L39.8324 86H38.9204L40.0724 80.544C40.1577 80.1493 40.2004 79.8187 40.2004 79.552C40.2004 78.592 39.7097 78.112 38.7284 78.112C38.2484 78.112 37.7684 78.2667 37.2884 78.576C36.819 78.8853 36.3977 79.328 36.0244 79.904C35.6617 80.4693 35.4004 81.152 35.2404 81.952L34.3764 86H33.4644ZM46.9509 86.16C46.0762 86.16 45.3509 85.888 44.7749 85.344C44.2095 84.8 43.9269 83.9893 43.9269 82.912C43.9269 82.1867 44.0282 81.4933 44.2309 80.832C44.4442 80.16 44.7429 79.5627 45.1269 79.04C45.5109 78.5067 45.9642 78.0907 46.4869 77.792C47.0202 77.4827 47.6069 77.328 48.2469 77.328C48.9402 77.328 49.4842 77.504 49.8789 77.856C50.2735 78.1973 50.4709 78.656 50.4709 79.232C50.4709 80.1813 50.0122 80.896 49.0949 81.376C48.1775 81.856 46.9189 82.096 45.3189 82.096H44.9029C44.8922 82.2027 44.8815 82.3307 44.8709 82.48C44.8602 82.6187 44.8549 82.752 44.8549 82.88C44.8549 83.68 45.0522 84.2987 45.4469 84.736C45.8415 85.1627 46.4015 85.376 47.1269 85.376C47.5535 85.376 47.9482 85.3173 48.3109 85.2C48.6735 85.0827 49.0255 84.944 49.3669 84.784V85.584C49.0469 85.744 48.6842 85.8827 48.2789 86C47.8842 86.1067 47.4415 86.16 46.9509 86.16ZM45.0309 81.328H45.4789C46.2469 81.328 46.9349 81.2587 47.5429 81.12C48.1615 80.9813 48.6522 80.7627 49.0149 80.464C49.3775 80.1653 49.5589 79.776 49.5589 79.296C49.5589 78.9547 49.4415 78.672 49.2069 78.448C48.9829 78.224 48.6362 78.112 48.1669 78.112C47.7402 78.112 47.3135 78.24 46.8869 78.496C46.4709 78.7413 46.0975 79.104 45.7669 79.584C45.4362 80.064 45.1909 80.6453 45.0309 81.328ZM57.861 86L60.277 74.576H66.037L65.877 75.408H61.029L60.037 80.112H64.597L64.405 80.944H59.845L58.773 86H57.861ZM69.0598 75.728C68.8891 75.728 68.7504 75.68 68.6438 75.584C68.5478 75.488 68.4998 75.3493 68.4998 75.168C68.4998 74.9653 68.5584 74.7787 68.6758 74.608C68.7931 74.4267 68.9691 74.336 69.2038 74.336C69.3958 74.336 69.5344 74.3893 69.6198 74.496C69.7051 74.592 69.7478 74.72 69.7478 74.88C69.7478 75.1147 69.6784 75.3173 69.5398 75.488C69.4118 75.648 69.2518 75.728 69.0598 75.728ZM66.3238 86L68.1318 77.488H69.0438L67.2358 86H66.3238ZM72.5141 86L71.3621 77.488H72.2741L72.9941 82.992C73.0368 83.376 73.0741 83.776 73.1061 84.192C73.1381 84.608 73.1648 84.9387 73.1861 85.184H73.2181C73.3781 84.8533 73.5541 84.4853 73.7461 84.08C73.9381 83.6747 74.1301 83.3067 74.3221 82.976L77.3941 77.488H78.3701L73.6021 86H72.5141ZM82.5134 86.16C81.6387 86.16 80.9134 85.888 80.3374 85.344C79.772 84.8 79.4894 83.9893 79.4894 82.912C79.4894 82.1867 79.5907 81.4933 79.7934 80.832C80.0067 80.16 80.3054 79.5627 80.6894 79.04C81.0734 78.5067 81.5267 78.0907 82.0494 77.792C82.5827 77.4827 83.1694 77.328 83.8094 77.328C84.5027 77.328 85.0467 77.504 85.4414 77.856C85.836 78.1973 86.0334 78.656 86.0334 79.232C86.0334 80.1813 85.5747 80.896 84.6574 81.376C83.74 81.856 82.4814 82.096 80.8814 82.096H80.4654C80.4547 82.2027 80.444 82.3307 80.4334 82.48C80.4227 82.6187 80.4174 82.752 80.4174 82.88C80.4174 83.68 80.6147 84.2987 81.0094 84.736C81.404 85.1627 81.964 85.376 82.6894 85.376C83.116 85.376 83.5107 85.3173 83.8734 85.2C84.236 85.0827 84.588 84.944 84.9294 84.784V85.584C84.6094 85.744 84.2467 85.8827 83.8414 86C83.4467 86.1067 83.004 86.16 82.5134 86.16ZM80.5934 81.328H81.0414C81.8094 81.328 82.4974 81.2587 83.1054 81.12C83.724 80.9813 84.2147 80.7627 84.5774 80.464C84.94 80.1653 85.1214 79.776 85.1214 79.296C85.1214 78.9547 85.004 78.672 84.7694 78.448C84.5454 78.224 84.1987 78.112 83.7294 78.112C83.3027 78.112 82.876 78.24 82.4494 78.496C82.0334 78.7413 81.66 79.104 81.3294 79.584C80.9987 80.064 80.7534 80.6453 80.5934 81.328ZM88.0433 82.112L88.2353 81.264H91.9633L91.7873 82.112H88.0433ZM94.2829 86L96.6989 74.576H99.2109C100.619 74.576 101.723 74.9547 102.523 75.712C103.334 76.4587 103.739 77.6107 103.739 79.168C103.739 80.1067 103.59 80.9867 103.291 81.808C103.003 82.6293 102.571 83.3547 101.995 83.984C101.43 84.6133 100.715 85.1093 99.8509 85.472C98.9975 85.824 98.0002 86 96.8589 86H94.2829ZM95.3709 85.184H96.9069C97.8562 85.184 98.6935 85.0293 99.4189 84.72C100.155 84.4 100.768 83.9627 101.259 83.408C101.76 82.8533 102.134 82.2133 102.379 81.488C102.635 80.7627 102.763 79.984 102.763 79.152C102.763 77.8507 102.432 76.9013 101.771 76.304C101.11 75.696 100.198 75.392 99.0349 75.392H97.4509L95.3709 85.184ZM108.417 86.16C107.692 86.16 107.121 85.8987 106.705 85.376C106.3 84.8533 106.097 84.1227 106.097 83.184C106.097 82.4587 106.193 81.7493 106.385 81.056C106.577 80.3627 106.854 79.7387 107.217 79.184C107.59 78.6187 108.038 78.1707 108.561 77.84C109.084 77.4987 109.676 77.328 110.337 77.328C110.774 77.328 111.142 77.4187 111.441 77.6C111.74 77.7813 111.974 78.0107 112.145 78.288C112.326 78.5547 112.46 78.832 112.545 79.12H112.609L113.073 77.488H113.793L111.985 86H111.249L111.569 84.096H111.521C111.308 84.416 111.046 84.736 110.737 85.056C110.428 85.376 110.076 85.6427 109.681 85.856C109.286 86.0587 108.865 86.16 108.417 86.16ZM108.673 85.376C109.11 85.376 109.548 85.216 109.985 84.896C110.433 84.576 110.833 84.144 111.185 83.6C111.548 83.056 111.809 82.4427 111.969 81.76C112.033 81.44 112.081 81.1573 112.113 80.912C112.145 80.656 112.161 80.4213 112.161 80.208C112.161 79.568 112.001 79.0613 111.681 78.688C111.372 78.304 110.945 78.112 110.401 78.112C109.878 78.112 109.409 78.2613 108.993 78.56C108.577 78.848 108.22 79.2373 107.921 79.728C107.633 80.208 107.409 80.752 107.249 81.36C107.1 81.9573 107.025 82.5707 107.025 83.2C107.025 83.8933 107.164 84.432 107.441 84.816C107.718 85.1893 108.129 85.376 108.673 85.376ZM114.563 89.856C114.339 89.856 114.152 89.84 114.003 89.808C113.843 89.7867 113.693 89.7493 113.555 89.696V88.928C113.693 88.9707 113.843 89.008 114.003 89.04C114.152 89.072 114.328 89.088 114.531 89.088C114.947 89.088 115.309 88.944 115.619 88.656C115.928 88.3787 116.243 87.952 116.563 87.376L117.363 86L116.003 77.488H116.915L117.667 82.464C117.741 82.9653 117.8 83.4667 117.843 83.968C117.885 84.4587 117.917 84.848 117.939 85.136H117.971C118.045 84.9653 118.147 84.7467 118.275 84.48C118.403 84.2027 118.541 83.9093 118.691 83.6C118.851 83.2907 119.011 82.9973 119.171 82.72L122.035 77.488H123.011L117.395 87.632C116.989 88.3573 116.573 88.9067 116.147 89.28C115.72 89.664 115.192 89.856 114.563 89.856ZM133.782 86.16C132.833 86.16 132.054 85.968 131.446 85.584C130.838 85.1893 130.385 84.656 130.086 83.984C129.798 83.3013 129.654 82.5227 129.654 81.648C129.654 80.72 129.772 79.824 130.006 78.96C130.252 78.096 130.614 77.3227 131.094 76.64C131.574 75.9467 132.166 75.4027 132.87 75.008C133.574 74.6027 134.39 74.4 135.318 74.4C136.556 74.4 137.532 74.784 138.246 75.552C138.972 76.3093 139.334 77.4187 139.334 78.88C139.334 79.52 139.27 80.1813 139.142 80.864C139.014 81.5467 138.812 82.2027 138.534 82.832C138.257 83.4613 137.9 84.0267 137.462 84.528C137.025 85.0293 136.502 85.4293 135.894 85.728C135.286 86.016 134.582 86.16 133.782 86.16ZM133.814 85.328C134.604 85.328 135.281 85.1307 135.846 84.736C136.422 84.3413 136.897 83.824 137.27 83.184C137.644 82.5333 137.916 81.8347 138.086 81.088C138.268 80.3307 138.358 79.5893 138.358 78.864C138.358 77.7333 138.092 76.848 137.558 76.208C137.036 75.5573 136.268 75.232 135.254 75.232C134.465 75.232 133.777 75.4187 133.19 75.792C132.614 76.1653 132.134 76.6667 131.75 77.296C131.377 77.9147 131.094 78.6027 130.902 79.36C130.721 80.1173 130.63 80.8747 130.63 81.632C130.63 82.752 130.892 83.648 131.414 84.32C131.948 84.992 132.748 85.328 133.814 85.328ZM139.946 89.84C139.776 89.84 139.6 89.824 139.418 89.792C139.226 89.76 139.072 89.7227 138.954 89.68V88.88C139.104 88.9333 139.258 88.976 139.418 89.008C139.578 89.04 139.738 89.056 139.898 89.056C140.24 89.056 140.528 88.9227 140.762 88.656C140.997 88.3893 141.178 87.9573 141.306 87.36L143.242 78.224H141.754L141.834 77.744L143.402 77.456L143.626 76.432C143.829 75.4933 144.144 74.816 144.57 74.4C144.997 73.9733 145.605 73.76 146.394 73.76C146.65 73.76 146.901 73.7867 147.146 73.84C147.392 73.8933 147.594 73.952 147.754 74.016L147.514 74.752C147.354 74.688 147.178 74.6347 146.986 74.592C146.805 74.5493 146.618 74.528 146.426 74.528C145.893 74.528 145.477 74.6773 145.178 74.976C144.89 75.264 144.672 75.76 144.522 76.464L144.298 77.488H147.978L148.202 76.416C148.416 75.488 148.736 74.816 149.162 74.4C149.589 73.9733 150.197 73.76 150.986 73.76C151.242 73.76 151.493 73.7867 151.738 73.84C151.984 73.8933 152.186 73.952 152.346 74.016L152.09 74.752C151.93 74.688 151.76 74.6347 151.578 74.592C151.397 74.5493 151.21 74.528 151.018 74.528C150.474 74.528 150.058 74.6773 149.77 74.976C149.482 75.264 149.264 75.76 149.114 76.464L148.89 77.488H150.778L150.618 78.224H148.746L146.778 87.472C146.608 88.2507 146.346 88.8373 145.994 89.232C145.642 89.6373 145.157 89.84 144.538 89.84C144.144 89.84 143.813 89.7867 143.546 89.68V88.88C143.685 88.9333 143.834 88.976 143.994 89.008C144.154 89.04 144.314 89.056 144.474 89.056C144.826 89.056 145.12 88.9173 145.354 88.64C145.589 88.3733 145.77 87.9467 145.898 87.36L147.818 78.224H144.154L142.186 87.472C142.026 88.2507 141.765 88.8373 141.402 89.232C141.05 89.6373 140.565 89.84 139.946 89.84ZM153.29 75.728C153.13 75.728 152.997 75.68 152.89 75.584C152.784 75.488 152.73 75.3493 152.73 75.168C152.73 74.9653 152.789 74.7787 152.906 74.608C153.034 74.4267 153.21 74.336 153.434 74.336C153.616 74.336 153.749 74.3893 153.834 74.496C153.93 74.592 153.978 74.72 153.978 74.88C153.978 75.1147 153.909 75.3173 153.77 75.488C153.632 75.648 153.472 75.728 153.29 75.728ZM150.554 86L152.362 77.488H153.274L151.466 86H150.554ZM158.733 86.16C157.763 86.16 157 85.872 156.445 85.296C155.891 84.72 155.613 83.9307 155.613 82.928C155.613 82.1813 155.709 81.472 155.901 80.8C156.104 80.1173 156.397 79.52 156.781 79.008C157.176 78.4853 157.651 78.0747 158.205 77.776C158.76 77.4773 159.389 77.328 160.093 77.328C160.456 77.328 160.813 77.3653 161.165 77.44C161.528 77.504 161.853 77.6 162.141 77.728L161.869 78.512C161.635 78.3947 161.357 78.2987 161.037 78.224C160.728 78.1493 160.413 78.112 160.093 78.112C159.379 78.112 158.755 78.3307 158.221 78.768C157.688 79.2053 157.272 79.7867 156.973 80.512C156.685 81.2373 156.541 82.032 156.541 82.896C156.541 83.6213 156.733 84.2187 157.117 84.688C157.512 85.1467 158.077 85.376 158.813 85.376C159.197 85.376 159.549 85.328 159.869 85.232C160.2 85.136 160.531 85.0187 160.861 84.88V85.664C160.584 85.8133 160.269 85.9307 159.917 86.016C159.565 86.112 159.171 86.16 158.733 86.16ZM166.935 86.16C166.061 86.16 165.335 85.888 164.759 85.344C164.194 84.8 163.911 83.9893 163.911 82.912C163.911 82.1867 164.013 81.4933 164.215 80.832C164.429 80.16 164.727 79.5627 165.111 79.04C165.495 78.5067 165.949 78.0907 166.471 77.792C167.005 77.4827 167.591 77.328 168.231 77.328C168.925 77.328 169.469 77.504 169.863 77.856C170.258 78.1973 170.455 78.656 170.455 79.232C170.455 80.1813 169.997 80.896 169.079 81.376C168.162 81.856 166.903 82.096 165.303 82.096H164.887C164.877 82.2027 164.866 82.3307 164.855 82.48C164.845 82.6187 164.839 82.752 164.839 82.88C164.839 83.68 165.037 84.2987 165.431 84.736C165.826 85.1627 166.386 85.376 167.111 85.376C167.538 85.376 167.933 85.3173 168.295 85.2C168.658 85.0827 169.01 84.944 169.351 84.784V85.584C169.031 85.744 168.669 85.8827 168.263 86C167.869 86.1067 167.426 86.16 166.935 86.16ZM165.015 81.328H165.463C166.231 81.328 166.919 81.2587 167.527 81.12C168.146 80.9813 168.637 80.7627 168.999 80.464C169.362 80.1653 169.543 79.776 169.543 79.296C169.543 78.9547 169.426 78.672 169.191 78.448C168.967 78.224 168.621 78.112 168.151 78.112C167.725 78.112 167.298 78.24 166.871 78.496C166.455 78.7413 166.082 79.104 165.751 79.584C165.421 80.064 165.175 80.6453 165.015 81.328ZM179.493 86L178.965 74.576H179.861L180.197 82.4C180.208 82.7733 180.208 83.1627 180.197 83.568C180.197 83.9627 180.192 84.3413 180.181 84.704H180.229C180.368 84.352 180.517 83.9733 180.677 83.568C180.848 83.1627 181.04 82.7467 181.253 82.32L184.917 74.576H185.845L186.293 82.304C186.315 82.6987 186.331 83.12 186.341 83.568C186.352 84.0053 186.357 84.3947 186.357 84.736H186.405C186.533 84.384 186.667 84.016 186.805 83.632C186.955 83.2373 187.125 82.832 187.317 82.416L190.805 74.576H191.781L186.581 86H185.685L185.205 77.68C185.184 77.36 185.168 77.0453 185.157 76.736C185.157 76.416 185.157 76.1067 185.157 75.808H185.109C185.013 76.096 184.907 76.368 184.789 76.624C184.683 76.88 184.549 77.184 184.389 77.536L180.405 86H179.493ZM195.154 86.16C194.279 86.16 193.554 85.888 192.978 85.344C192.413 84.8 192.13 83.9893 192.13 82.912C192.13 82.1867 192.231 81.4933 192.434 80.832C192.647 80.16 192.946 79.5627 193.33 79.04C193.714 78.5067 194.167 78.0907 194.69 77.792C195.223 77.4827 195.81 77.328 196.45 77.328C197.143 77.328 197.687 77.504 198.082 77.856C198.477 78.1973 198.674 78.656 198.674 79.232C198.674 80.1813 198.215 80.896 197.298 81.376C196.381 81.856 195.122 82.096 193.522 82.096H193.106C193.095 82.2027 193.085 82.3307 193.074 82.48C193.063 82.6187 193.058 82.752 193.058 82.88C193.058 83.68 193.255 84.2987 193.65 84.736C194.045 85.1627 194.605 85.376 195.33 85.376C195.757 85.376 196.151 85.3173 196.514 85.2C196.877 85.0827 197.229 84.944 197.57 84.784V85.584C197.25 85.744 196.887 85.8827 196.482 86C196.087 86.1067 195.645 86.16 195.154 86.16ZM193.234 81.328H193.682C194.45 81.328 195.138 81.2587 195.746 81.12C196.365 80.9813 196.855 80.7627 197.218 80.464C197.581 80.1653 197.762 79.776 197.762 79.296C197.762 78.9547 197.645 78.672 197.41 78.448C197.186 78.224 196.839 78.112 196.37 78.112C195.943 78.112 195.517 78.24 195.09 78.496C194.674 78.7413 194.301 79.104 193.97 79.584C193.639 80.064 193.394 80.6453 193.234 81.328ZM204.076 86.16C203.201 86.16 202.476 85.888 201.9 85.344C201.335 84.8 201.052 83.9893 201.052 82.912C201.052 82.1867 201.153 81.4933 201.356 80.832C201.569 80.16 201.868 79.5627 202.252 79.04C202.636 78.5067 203.089 78.0907 203.612 77.792C204.145 77.4827 204.732 77.328 205.372 77.328C206.065 77.328 206.609 77.504 207.004 77.856C207.399 78.1973 207.596 78.656 207.596 79.232C207.596 80.1813 207.137 80.896 206.22 81.376C205.303 81.856 204.044 82.096 202.444 82.096H202.028C202.017 82.2027 202.007 82.3307 201.996 82.48C201.985 82.6187 201.98 82.752 201.98 82.88C201.98 83.68 202.177 84.2987 202.572 84.736C202.967 85.1627 203.527 85.376 204.252 85.376C204.679 85.376 205.073 85.3173 205.436 85.2C205.799 85.0827 206.151 84.944 206.492 84.784V85.584C206.172 85.744 205.809 85.8827 205.404 86C205.009 86.1067 204.567 86.16 204.076 86.16ZM202.156 81.328H202.604C203.372 81.328 204.06 81.2587 204.668 81.12C205.287 80.9813 205.777 80.7627 206.14 80.464C206.503 80.1653 206.684 79.776 206.684 79.296C206.684 78.9547 206.567 78.672 206.332 78.448C206.108 78.224 205.761 78.112 205.292 78.112C204.865 78.112 204.439 78.24 204.012 78.496C203.596 78.7413 203.223 79.104 202.892 79.584C202.561 80.064 202.316 80.6453 202.156 81.328ZM209.574 86L212.15 73.84H213.062L211.91 79.264C211.76 79.9573 211.627 80.5333 211.51 80.992C211.392 81.44 211.291 81.8293 211.206 82.16H211.222L216.022 77.488H217.11L213.318 81.168L215.67 86H214.662L212.63 81.744L211.094 83.072L210.486 86H209.574ZM228.127 86.16C226.804 86.16 225.78 85.7707 225.055 84.992C224.329 84.2133 223.967 83.1467 223.967 81.792C223.967 80.704 224.121 79.712 224.431 78.816C224.74 77.9093 225.172 77.1307 225.727 76.48C226.292 75.8187 226.943 75.312 227.679 74.96C228.425 74.5973 229.231 74.416 230.095 74.416C230.735 74.416 231.316 74.4747 231.839 74.592C232.372 74.7093 232.873 74.8747 233.343 75.088L232.991 75.904C232.553 75.712 232.095 75.5573 231.615 75.44C231.135 75.312 230.623 75.248 230.079 75.248C229.364 75.248 228.697 75.4027 228.079 75.712C227.46 76.0213 226.911 76.464 226.431 77.04C225.961 77.616 225.593 78.304 225.327 79.104C225.071 79.8933 224.943 80.7733 224.943 81.744C224.943 82.864 225.225 83.744 225.791 84.384C226.367 85.0133 227.172 85.328 228.207 85.328C228.697 85.328 229.167 85.2853 229.615 85.2C230.063 85.1147 230.447 85.008 230.767 84.88L231.599 81.008H228.879L229.055 80.192H232.703L231.567 85.488C231.055 85.7013 230.511 85.8667 229.935 85.984C229.359 86.1013 228.756 86.16 228.127 86.16ZM238.544 86.144C237.552 86.144 236.795 85.8453 236.272 85.248C235.75 84.6507 235.488 83.8613 235.488 82.88C235.488 82.1333 235.584 81.4293 235.776 80.768C235.979 80.096 236.272 79.504 236.656 78.992C237.04 78.48 237.499 78.08 238.032 77.792C238.566 77.4933 239.168 77.344 239.84 77.344C240.8 77.344 241.542 77.648 242.064 78.256C242.598 78.8533 242.864 79.6373 242.864 80.608C242.864 81.312 242.768 81.9947 242.576 82.656C242.395 83.3173 242.118 83.9093 241.744 84.432C241.382 84.9547 240.928 85.3707 240.384 85.68C239.851 85.9893 239.238 86.144 238.544 86.144ZM238.608 85.36C239.259 85.36 239.835 85.1573 240.336 84.752C240.838 84.336 241.227 83.7653 241.504 83.04C241.792 82.304 241.936 81.4613 241.936 80.512C241.936 80.0853 241.862 79.696 241.712 79.344C241.563 78.9813 241.334 78.688 241.024 78.464C240.715 78.24 240.315 78.128 239.824 78.128C239.152 78.128 238.56 78.336 238.048 78.752C237.536 79.168 237.131 79.7333 236.832 80.448C236.544 81.1627 236.4 81.9787 236.4 82.896C236.4 83.664 236.587 84.2667 236.96 84.704C237.334 85.1413 237.883 85.36 238.608 85.36ZM245.136 86L246.96 77.456H247.76L247.44 79.36H247.456C247.648 79.0613 247.893 78.7573 248.192 78.448C248.49 78.128 248.848 77.856 249.264 77.632C249.68 77.408 250.144 77.296 250.656 77.296C251.349 77.296 251.888 77.4827 252.272 77.856C252.656 78.2187 252.848 78.7413 252.848 79.424C252.848 79.6267 252.832 79.84 252.8 80.064C252.768 80.2773 252.73 80.4747 252.688 80.656L251.552 86H250.592L251.744 80.544C251.786 80.3307 251.818 80.144 251.84 79.984C251.872 79.824 251.888 79.6693 251.888 79.52C251.888 79.0613 251.76 78.72 251.504 78.496C251.258 78.2613 250.901 78.144 250.432 78.144C249.962 78.144 249.493 78.2987 249.024 78.608C248.554 78.9067 248.133 79.344 247.76 79.92C247.397 80.4853 247.13 81.1627 246.96 81.952L246.096 86H245.136ZM258.654 86.16C257.779 86.16 257.054 85.888 256.478 85.344C255.913 84.8 255.63 83.9893 255.63 82.912C255.63 82.1867 255.731 81.4933 255.934 80.832C256.147 80.16 256.446 79.5627 256.83 79.04C257.214 78.5067 257.667 78.0907 258.19 77.792C258.723 77.4827 259.31 77.328 259.95 77.328C260.643 77.328 261.187 77.504 261.582 77.856C261.977 78.1973 262.174 78.656 262.174 79.232C262.174 80.1813 261.715 80.896 260.798 81.376C259.881 81.856 258.622 82.096 257.022 82.096H256.606C256.595 82.2027 256.585 82.3307 256.574 82.48C256.563 82.6187 256.558 82.752 256.558 82.88C256.558 83.68 256.755 84.2987 257.15 84.736C257.545 85.1627 258.105 85.376 258.83 85.376C259.257 85.376 259.651 85.3173 260.014 85.2C260.377 85.0827 260.729 84.944 261.07 84.784V85.584C260.75 85.744 260.387 85.8827 259.982 86C259.587 86.1067 259.145 86.16 258.654 86.16ZM256.734 81.328H257.182C257.95 81.328 258.638 81.2587 259.246 81.12C259.865 80.9813 260.355 80.7627 260.718 80.464C261.081 80.1653 261.262 79.776 261.262 79.296C261.262 78.9547 261.145 78.672 260.91 78.448C260.686 78.224 260.339 78.112 259.87 78.112C259.443 78.112 259.017 78.24 258.59 78.496C258.174 78.7413 257.801 79.104 257.47 79.584C257.139 80.064 256.894 80.6453 256.734 81.328ZM269.564 86L271.98 74.576H277.74L277.58 75.408H272.732L271.74 80.112H276.3L276.108 80.944H271.548L270.476 86H269.564ZM281.435 86.144C280.443 86.144 279.686 85.8453 279.163 85.248C278.64 84.6507 278.379 83.8613 278.379 82.88C278.379 82.1333 278.475 81.4293 278.667 80.768C278.87 80.096 279.163 79.504 279.547 78.992C279.931 78.48 280.39 78.08 280.923 77.792C281.456 77.4933 282.059 77.344 282.731 77.344C283.691 77.344 284.432 77.648 284.955 78.256C285.488 78.8533 285.755 79.6373 285.755 80.608C285.755 81.312 285.659 81.9947 285.467 82.656C285.286 83.3173 285.008 83.9093 284.635 84.432C284.272 84.9547 283.819 85.3707 283.275 85.68C282.742 85.9893 282.128 86.144 281.435 86.144ZM281.499 85.36C282.15 85.36 282.726 85.1573 283.227 84.752C283.728 84.336 284.118 83.7653 284.395 83.04C284.683 82.304 284.827 81.4613 284.827 80.512C284.827 80.0853 284.752 79.696 284.603 79.344C284.454 78.9813 284.224 78.688 283.915 78.464C283.606 78.24 283.206 78.128 282.715 78.128C282.043 78.128 281.451 78.336 280.939 78.752C280.427 79.168 280.022 79.7333 279.723 80.448C279.435 81.1627 279.291 81.9787 279.291 82.896C279.291 83.664 279.478 84.2667 279.851 84.704C280.224 85.1413 280.774 85.36 281.499 85.36ZM288.058 86L289.866 77.488H290.618L290.298 79.392H290.362C290.554 79.0933 290.789 78.784 291.066 78.464C291.343 78.144 291.658 77.8773 292.01 77.664C292.373 77.4507 292.783 77.344 293.242 77.344C293.594 77.344 293.903 77.3813 294.17 77.456L293.978 78.288C293.85 78.256 293.717 78.2293 293.578 78.208C293.439 78.1867 293.295 78.176 293.146 78.176C292.623 78.176 292.138 78.3573 291.69 78.72C291.242 79.072 290.853 79.5307 290.522 80.096C290.202 80.6613 289.973 81.264 289.834 81.904L288.97 86H288.058ZM305.283 86.16C303.96 86.16 302.936 85.7707 302.211 84.992C301.486 84.2133 301.123 83.1467 301.123 81.792C301.123 80.704 301.278 79.712 301.587 78.816C301.896 77.9093 302.328 77.1307 302.883 76.48C303.448 75.8187 304.099 75.312 304.835 74.96C305.582 74.5973 306.387 74.416 307.251 74.416C307.891 74.416 308.472 74.4747 308.995 74.592C309.528 74.7093 310.03 74.8747 310.499 75.088L310.147 75.904C309.71 75.712 309.251 75.5573 308.771 75.44C308.291 75.312 307.779 75.248 307.235 75.248C306.52 75.248 305.854 75.4027 305.235 75.712C304.616 76.0213 304.067 76.464 303.587 77.04C303.118 77.616 302.75 78.304 302.483 79.104C302.227 79.8933 302.099 80.7733 302.099 81.744C302.099 82.864 302.382 83.744 302.947 84.384C303.523 85.0133 304.328 85.328 305.363 85.328C305.854 85.328 306.323 85.2853 306.771 85.2C307.219 85.1147 307.603 85.008 307.923 84.88L308.755 81.008H306.035L306.211 80.192H309.859L308.723 85.488C308.211 85.7013 307.667 85.8667 307.091 85.984C306.515 86.1013 305.912 86.16 305.283 86.16ZM315.701 86.144C314.709 86.144 313.951 85.8453 313.429 85.248C312.906 84.6507 312.645 83.8613 312.645 82.88C312.645 82.1333 312.741 81.4293 312.933 80.768C313.135 80.096 313.429 79.504 313.812 78.992C314.197 78.48 314.655 78.08 315.189 77.792C315.722 77.4933 316.325 77.344 316.997 77.344C317.957 77.344 318.698 77.648 319.221 78.256C319.754 78.8533 320.021 79.6373 320.021 80.608C320.021 81.312 319.925 81.9947 319.733 82.656C319.551 83.3173 319.274 83.9093 318.901 84.432C318.538 84.9547 318.085 85.3707 317.541 85.68C317.007 85.9893 316.394 86.144 315.701 86.144ZM315.765 85.36C316.415 85.36 316.991 85.1573 317.493 84.752C317.994 84.336 318.383 83.7653 318.661 83.04C318.949 82.304 319.093 81.4613 319.093 80.512C319.093 80.0853 319.018 79.696 318.869 79.344C318.719 78.9813 318.49 78.688 318.181 78.464C317.871 78.24 317.471 78.128 316.981 78.128C316.309 78.128 315.717 78.336 315.205 78.752C314.693 79.168 314.287 79.7333 313.989 80.448C313.701 81.1627 313.557 81.9787 313.557 82.896C313.557 83.664 313.743 84.2667 314.117 84.704C314.49 85.1413 315.039 85.36 315.765 85.36ZM325.732 86.144C324.74 86.144 323.982 85.8453 323.46 85.248C322.937 84.6507 322.676 83.8613 322.676 82.88C322.676 82.1333 322.772 81.4293 322.964 80.768C323.166 80.096 323.46 79.504 323.844 78.992C324.228 78.48 324.686 78.08 325.22 77.792C325.753 77.4933 326.356 77.344 327.028 77.344C327.988 77.344 328.729 77.648 329.252 78.256C329.785 78.8533 330.052 79.6373 330.052 80.608C330.052 81.312 329.956 81.9947 329.764 82.656C329.582 83.3173 329.305 83.9093 328.932 84.432C328.569 84.9547 328.116 85.3707 327.572 85.68C327.038 85.9893 326.425 86.144 325.732 86.144ZM325.796 85.36C326.446 85.36 327.022 85.1573 327.524 84.752C328.025 84.336 328.414 83.7653 328.692 83.04C328.98 82.304 329.124 81.4613 329.124 80.512C329.124 80.0853 329.049 79.696 328.9 79.344C328.75 78.9813 328.521 78.688 328.212 78.464C327.902 78.24 327.502 78.128 327.012 78.128C326.34 78.128 325.748 78.336 325.236 78.752C324.724 79.168 324.318 79.7333 324.02 80.448C323.732 81.1627 323.588 81.9787 323.588 82.896C323.588 83.664 323.774 84.2667 324.148 84.704C324.521 85.1413 325.07 85.36 325.796 85.36ZM335.027 86.16C334.27 86.16 333.688 85.904 333.283 85.392C332.878 84.8693 332.675 84.1333 332.675 83.184C332.675 82.4693 332.766 81.7653 332.947 81.072C333.128 80.3787 333.4 79.7547 333.763 79.2C334.136 78.6347 334.584 78.1813 335.107 77.84C335.64 77.4987 336.259 77.328 336.963 77.328C337.422 77.328 337.806 77.4187 338.115 77.6C338.435 77.7707 338.686 77.9947 338.867 78.272C339.059 78.5387 339.198 78.8213 339.283 79.12H339.347C339.39 78.7573 339.443 78.4 339.507 78.048C339.571 77.696 339.646 77.3387 339.731 76.976L340.387 73.84H341.299L338.723 86H337.971L338.275 84.08H338.227C337.992 84.4213 337.715 84.752 337.395 85.072C337.075 85.392 336.718 85.6533 336.323 85.856C335.928 86.0587 335.496 86.16 335.027 86.16ZM335.283 85.376C335.71 85.376 336.136 85.2373 336.563 84.96C337 84.6827 337.395 84.3093 337.747 83.84C338.099 83.36 338.382 82.8107 338.595 82.192C338.808 81.5627 338.915 80.9067 338.915 80.224C338.915 79.552 338.744 79.0347 338.403 78.672C338.072 78.2987 337.603 78.112 336.995 78.112C336.451 78.112 335.971 78.2613 335.555 78.56C335.139 78.8587 334.782 79.2533 334.483 79.744C334.195 80.2347 333.976 80.784 333.827 81.392C333.678 81.9893 333.603 82.592 333.603 83.2C333.603 83.904 333.742 84.4427 334.019 84.816C334.307 85.1893 334.728 85.376 335.283 85.376ZM344.047 82.992C344.132 82.4587 344.26 82.016 344.431 81.664C344.601 81.312 344.82 80.9973 345.087 80.72C345.364 80.4427 345.695 80.1547 346.079 79.856C346.431 79.5893 346.761 79.328 347.071 79.072C347.391 78.8053 347.647 78.512 347.839 78.192C348.041 77.8613 348.143 77.4613 348.143 76.992C348.143 76.448 347.983 76.016 347.663 75.696C347.343 75.376 346.9 75.216 346.335 75.216C345.972 75.216 345.604 75.2747 345.231 75.392C344.868 75.4987 344.5 75.6373 344.127 75.808L343.791 75.088C344.708 74.64 345.583 74.416 346.415 74.416C347.225 74.416 347.871 74.64 348.351 75.088C348.831 75.5253 349.071 76.128 349.071 76.896C349.071 77.4187 348.969 77.8773 348.767 78.272C348.575 78.656 348.303 79.0133 347.951 79.344C347.599 79.6747 347.188 80.0107 346.719 80.352C346.345 80.6293 346.031 80.8853 345.775 81.12C345.529 81.344 345.327 81.6 345.167 81.888C345.017 82.176 344.9 82.544 344.815 82.992H344.047ZM343.935 86.176C343.529 86.176 343.327 85.9787 343.327 85.584C343.327 85.3387 343.396 85.1147 343.535 84.912C343.673 84.7093 343.892 84.608 344.191 84.608C344.564 84.608 344.751 84.8053 344.751 85.2C344.751 85.4347 344.681 85.6587 344.543 85.872C344.404 86.0747 344.201 86.176 343.935 86.176Z" fill="black" fill-opacity="0.39"/>
<rect width="73" height="52"/>
</svg>
