<svg width="464" height="61" viewBox="0 0 464 61" fill="none" xmlns="http://www.w3.org/2000/svg">
<path d="M2.592 56L4.832 45.408H1.472L1.648 44.576H9.328L9.152 45.408H5.776L3.536 56H2.592ZM9.62663 56L12.0426 44.576H12.9706L11.9146 49.6H17.7866L18.8586 44.576H19.7706L17.3546 56H16.4426L17.6106 50.432H11.7386L10.5546 56H9.62663ZM21.5173 56L23.9333 44.576H29.6933L29.5173 45.408H24.6853L23.7893 49.584H28.3333L28.1733 50.416H23.6293L22.6053 55.168H27.4533L27.2773 56H21.5173ZM36.0798 56L38.4958 44.576H40.9278C43.2211 44.576 44.3678 45.4987 44.3678 47.344C44.3678 48.272 44.1171 49.0347 43.6158 49.632C43.1251 50.2293 42.3678 50.6453 41.3438 50.88L43.2158 56H42.2078L40.4798 51.072H38.0478L36.9918 56H36.0798ZM38.2078 50.272H40.0477C41.0824 50.272 41.8984 50.032 42.4958 49.552C43.1038 49.0613 43.4078 48.3413 43.4078 47.392C43.4078 46.688 43.1891 46.1813 42.7518 45.872C42.3251 45.552 41.6798 45.392 40.8158 45.392H39.2478L38.2078 50.272ZM49.3415 56.16C48.4668 56.16 47.7415 55.888 47.1655 55.344C46.6002 54.8 46.3175 53.9893 46.3175 52.912C46.3175 52.1867 46.4188 51.4933 46.6215 50.832C46.8348 50.16 47.1335 49.5627 47.5175 49.04C47.9015 48.5067 48.3548 48.0907 48.8775 47.792C49.4108 47.4827 49.9975 47.328 50.6375 47.328C51.3308 47.328 51.8748 47.504 52.2695 47.856C52.6642 48.1973 52.8615 48.656 52.8615 49.232C52.8615 50.1813 52.4028 50.896 51.4855 51.376C50.5682 51.856 49.3095 52.096 47.7095 52.096H47.2935C47.2828 52.2027 47.2722 52.3307 47.2615 52.48C47.2508 52.6187 47.2455 52.752 47.2455 52.88C47.2455 53.68 47.4428 54.2987 47.8375 54.736C48.2322 55.1627 48.7922 55.376 49.5175 55.376C49.9442 55.376 50.3388 55.3173 50.7015 55.2C51.0642 55.0827 51.4162 54.944 51.7575 54.784V55.584C51.4375 55.744 51.0748 55.8827 50.6695 56C50.2748 56.1067 49.8322 56.16 49.3415 56.16ZM47.4215 51.328H47.8695C48.6375 51.328 49.3255 51.2587 49.9335 51.12C50.5522 50.9813 51.0428 50.7627 51.4055 50.464C51.7682 50.1653 51.9495 49.776 51.9495 49.296C51.9495 48.9547 51.8322 48.672 51.5975 48.448C51.3735 48.224 51.0268 48.112 50.5575 48.112C50.1308 48.112 49.7042 48.24 49.2775 48.496C48.8615 48.7413 48.4882 49.104 48.1575 49.584C47.8268 50.064 47.5815 50.6453 47.4215 51.328ZM54.8394 56L56.6474 47.488H57.3994L57.0794 49.392H57.1434C57.314 49.0933 57.538 48.784 57.8154 48.464C58.0927 48.144 58.418 47.8773 58.7914 47.664C59.1754 47.44 59.6127 47.328 60.1034 47.328C60.7647 47.328 61.2447 47.5253 61.5434 47.92C61.842 48.304 62.002 48.8213 62.0234 49.472H62.0554C62.2474 49.1413 62.4874 48.8107 62.7754 48.48C63.074 48.1493 63.4207 47.8773 63.8154 47.664C64.21 47.44 64.6527 47.328 65.1434 47.328C65.7834 47.328 66.2794 47.5093 66.6314 47.872C66.994 48.224 67.1754 48.7413 67.1754 49.424C67.1754 49.6267 67.1594 49.8293 67.1274 50.032C67.106 50.2347 67.0687 50.4427 67.0154 50.656L65.8954 56H64.9674L66.1354 50.544C66.2207 50.1493 66.2634 49.808 66.2634 49.52C66.2634 48.5813 65.8047 48.112 64.8874 48.112C64.45 48.112 64.0127 48.272 63.5754 48.592C63.138 48.9013 62.7487 49.3387 62.4074 49.904C62.0767 50.4587 61.8367 51.1093 61.6874 51.856L60.8074 56H59.8954L61.0314 50.672C61.0847 50.4373 61.122 50.224 61.1434 50.032C61.1647 49.8293 61.1754 49.6587 61.1754 49.52C61.1754 49.0827 61.0634 48.7413 60.8394 48.496C60.6154 48.24 60.2847 48.112 59.8474 48.112C59.3994 48.112 58.9567 48.272 58.5194 48.592C58.0927 48.9013 57.7087 49.344 57.3674 49.92C57.026 50.496 56.7754 51.1733 56.6154 51.952L55.7514 56H54.8394ZM72.9974 56.144C72.0054 56.144 71.248 55.8453 70.7254 55.248C70.2027 54.6507 69.9414 53.8613 69.9414 52.88C69.9414 52.1333 70.0374 51.4293 70.2294 50.768C70.432 50.096 70.7254 49.504 71.1094 48.992C71.4934 48.48 71.952 48.08 72.4854 47.792C73.0187 47.4933 73.6214 47.344 74.2934 47.344C75.2534 47.344 75.9947 47.648 76.5174 48.256C77.0507 48.8533 77.3174 49.6373 77.3174 50.608C77.3174 51.312 77.2214 51.9947 77.0294 52.656C76.848 53.3173 76.5707 53.9093 76.1974 54.432C75.8347 54.9547 75.3814 55.3707 74.8374 55.68C74.304 55.9893 73.6907 56.144 72.9974 56.144ZM73.0614 55.36C73.712 55.36 74.288 55.1573 74.7894 54.752C75.2907 54.336 75.68 53.7653 75.9574 53.04C76.2454 52.304 76.3894 51.4613 76.3894 50.512C76.3894 50.0853 76.3147 49.696 76.1654 49.344C76.016 48.9813 75.7867 48.688 75.4774 48.464C75.168 48.24 74.768 48.128 74.2774 48.128C73.6054 48.128 73.0134 48.336 72.5014 48.752C71.9894 49.168 71.584 49.7333 71.2854 50.448C70.9974 51.1627 70.8534 51.9787 70.8534 52.896C70.8534 53.664 71.04 54.2667 71.4134 54.704C71.7867 55.1413 72.336 55.36 73.0614 55.36ZM81.7966 56.16C81.242 56.16 80.8046 56.0267 80.4846 55.76C80.1646 55.4933 80.0046 55.0667 80.0046 54.48C80.0046 54.16 80.0473 53.8187 80.1326 53.456L81.2366 48.224H79.9566L80.0686 47.728L81.3966 47.392L82.1646 45.456H82.7566L82.3086 47.488H84.6926L84.5326 48.224H82.1646L81.0446 53.44C81.0126 53.6 80.9806 53.7653 80.9486 53.936C80.9273 54.096 80.9166 54.2453 80.9166 54.384C80.9166 54.6933 80.9913 54.9387 81.1406 55.12C81.3006 55.3013 81.5566 55.392 81.9086 55.392C82.1326 55.392 82.3353 55.376 82.5166 55.344C82.7086 55.3013 82.9006 55.248 83.0926 55.184V55.92C82.9433 55.9733 82.7513 56.0267 82.5166 56.08C82.282 56.1333 82.042 56.16 81.7966 56.16ZM89.1853 56.16C88.3106 56.16 87.5853 55.888 87.0093 55.344C86.4439 54.8 86.1613 53.9893 86.1613 52.912C86.1613 52.1867 86.2626 51.4933 86.4653 50.832C86.6786 50.16 86.9773 49.5627 87.3613 49.04C87.7453 48.5067 88.1986 48.0907 88.7213 47.792C89.2546 47.4827 89.8413 47.328 90.4813 47.328C91.1746 47.328 91.7186 47.504 92.1133 47.856C92.5079 48.1973 92.7053 48.656 92.7053 49.232C92.7053 50.1813 92.2466 50.896 91.3293 51.376C90.4119 51.856 89.1533 52.096 87.5533 52.096H87.1373C87.1266 52.2027 87.1159 52.3307 87.1053 52.48C87.0946 52.6187 87.0893 52.752 87.0893 52.88C87.0893 53.68 87.2866 54.2987 87.6813 54.736C88.0759 55.1627 88.6359 55.376 89.3613 55.376C89.7879 55.376 90.1826 55.3173 90.5453 55.2C90.9079 55.0827 91.2599 54.944 91.6013 54.784V55.584C91.2813 55.744 90.9186 55.8827 90.5133 56C90.1186 56.1067 89.6759 56.16 89.1853 56.16ZM87.2653 51.328H87.7133C88.4813 51.328 89.1693 51.2587 89.7773 51.12C90.3959 50.9813 90.8866 50.7627 91.2493 50.464C91.6119 50.1653 91.7933 49.776 91.7933 49.296C91.7933 48.9547 91.6759 48.672 91.4413 48.448C91.2173 48.224 90.8706 48.112 90.4013 48.112C89.9746 48.112 89.5479 48.24 89.1213 48.496C88.7053 48.7413 88.3319 49.104 88.0013 49.584C87.6706 50.064 87.4253 50.6453 87.2653 51.328ZM101.743 56L101.215 44.576H102.111L102.447 52.4C102.458 52.7733 102.458 53.1627 102.447 53.568C102.447 53.9627 102.442 54.3413 102.431 54.704H102.479C102.618 54.352 102.767 53.9733 102.927 53.568C103.098 53.1627 103.29 52.7467 103.503 52.32L107.167 44.576H108.095L108.543 52.304C108.565 52.6987 108.581 53.12 108.591 53.568C108.602 54.0053 108.607 54.3947 108.607 54.736H108.655C108.783 54.384 108.917 54.016 109.055 53.632C109.205 53.2373 109.375 52.832 109.567 52.416L113.055 44.576H114.031L108.831 56H107.935L107.455 47.68C107.434 47.36 107.418 47.0453 107.407 46.736C107.407 46.416 107.407 46.1067 107.407 45.808H107.359C107.263 46.096 107.157 46.368 107.039 46.624C106.933 46.88 106.799 47.184 106.639 47.536L102.655 56H101.743ZM117.388 56.144C116.396 56.144 115.639 55.8453 115.116 55.248C114.593 54.6507 114.332 53.8613 114.332 52.88C114.332 52.1333 114.428 51.4293 114.62 50.768C114.823 50.096 115.116 49.504 115.5 48.992C115.884 48.48 116.343 48.08 116.876 47.792C117.409 47.4933 118.012 47.344 118.684 47.344C119.644 47.344 120.385 47.648 120.908 48.256C121.441 48.8533 121.708 49.6373 121.708 50.608C121.708 51.312 121.612 51.9947 121.42 52.656C121.239 53.3173 120.961 53.9093 120.588 54.432C120.225 54.9547 119.772 55.3707 119.228 55.68C118.695 55.9893 118.081 56.144 117.388 56.144ZM117.452 55.36C118.103 55.36 118.679 55.1573 119.18 54.752C119.681 54.336 120.071 53.7653 120.348 53.04C120.636 52.304 120.78 51.4613 120.78 50.512C120.78 50.0853 120.705 49.696 120.556 49.344C120.407 48.9813 120.177 48.688 119.868 48.464C119.559 48.24 119.159 48.128 118.668 48.128C117.996 48.128 117.404 48.336 116.892 48.752C116.38 49.168 115.975 49.7333 115.676 50.448C115.388 51.1627 115.244 51.9787 115.244 52.896C115.244 53.664 115.431 54.2667 115.804 54.704C116.177 55.1413 116.727 55.36 117.452 55.36ZM124.011 56L125.819 47.488H126.571L126.251 49.392H126.315C126.507 49.0933 126.742 48.784 127.019 48.464C127.297 48.144 127.611 47.8773 127.963 47.664C128.326 47.4507 128.737 47.344 129.195 47.344C129.547 47.344 129.857 47.3813 130.123 47.456L129.931 48.288C129.803 48.256 129.67 48.2293 129.531 48.208C129.393 48.1867 129.249 48.176 129.099 48.176C128.577 48.176 128.091 48.3573 127.643 48.72C127.195 49.072 126.806 49.5307 126.475 50.096C126.155 50.6613 125.926 51.264 125.787 51.904L124.923 56H124.011ZM131.152 56L133.728 43.84H134.64L133.488 49.264C133.339 49.9573 133.205 50.5333 133.088 50.992C132.971 51.44 132.869 51.8293 132.784 52.16H132.8L137.6 47.488H138.688L134.896 51.168L137.248 56H136.24L134.208 51.744L132.672 53.072L132.064 56H131.152ZM145.033 56L147.449 44.576H153.209L153.033 45.408H148.201L147.305 49.584H151.849L151.689 50.416H147.145L146.121 55.168H150.969L150.793 56H145.033ZM153.143 56L156.919 51.6L155.031 47.488H155.975L157.511 50.96L160.471 47.488H161.543L157.911 51.648L159.943 56H158.999L157.303 52.304L154.215 56H153.143ZM161.899 59.776L164.491 47.488H165.243L164.923 49.392H164.971C165.195 49.0507 165.462 48.7253 165.771 48.416C166.08 48.096 166.432 47.8347 166.827 47.632C167.222 47.4293 167.659 47.328 168.139 47.328C168.864 47.328 169.446 47.5893 169.883 48.112C170.331 48.6347 170.555 49.3653 170.555 50.304C170.555 51.0187 170.459 51.7227 170.267 52.416C170.086 53.1093 169.814 53.7387 169.451 54.304C169.088 54.8693 168.64 55.3227 168.107 55.664C167.574 55.9947 166.96 56.16 166.267 56.16C165.808 56.16 165.419 56.0747 165.099 55.904C164.79 55.7333 164.539 55.5147 164.347 55.248C164.155 54.9707 164.016 54.6773 163.931 54.368H163.867C163.835 54.6453 163.787 54.9547 163.723 55.296C163.67 55.6267 163.611 55.9253 163.547 56.192L162.795 59.776H161.899ZM166.219 55.376C166.763 55.376 167.243 55.232 167.659 54.944C168.086 54.6453 168.443 54.2507 168.731 53.76C169.019 53.2587 169.238 52.7093 169.387 52.112C169.536 51.5147 169.611 50.9067 169.611 50.288C169.611 49.5947 169.456 49.0613 169.147 48.688C168.848 48.304 168.422 48.112 167.867 48.112C167.408 48.112 166.966 48.256 166.539 48.544C166.112 48.832 165.728 49.2213 165.387 49.712C165.056 50.192 164.79 50.7413 164.587 51.36C164.395 51.968 164.299 52.6027 164.299 53.264C164.299 53.936 164.464 54.4587 164.795 54.832C165.136 55.1947 165.611 55.376 166.219 55.376ZM176.295 56.16C175.42 56.16 174.695 55.888 174.119 55.344C173.553 54.8 173.271 53.9893 173.271 52.912C173.271 52.1867 173.372 51.4933 173.575 50.832C173.788 50.16 174.087 49.5627 174.471 49.04C174.855 48.5067 175.308 48.0907 175.831 47.792C176.364 47.4827 176.951 47.328 177.591 47.328C178.284 47.328 178.828 47.504 179.223 47.856C179.617 48.1973 179.815 48.656 179.815 49.232C179.815 50.1813 179.356 50.896 178.439 51.376C177.521 51.856 176.263 52.096 174.663 52.096H174.247C174.236 52.2027 174.225 52.3307 174.215 52.48C174.204 52.6187 174.199 52.752 174.199 52.88C174.199 53.68 174.396 54.2987 174.791 54.736C175.185 55.1627 175.745 55.376 176.471 55.376C176.897 55.376 177.292 55.3173 177.655 55.2C178.017 55.0827 178.369 54.944 178.711 54.784V55.584C178.391 55.744 178.028 55.8827 177.623 56C177.228 56.1067 176.785 56.16 176.295 56.16ZM174.375 51.328H174.823C175.591 51.328 176.279 51.2587 176.887 51.12C177.505 50.9813 177.996 50.7627 178.359 50.464C178.721 50.1653 178.903 49.776 178.903 49.296C178.903 48.9547 178.785 48.672 178.551 48.448C178.327 48.224 177.98 48.112 177.511 48.112C177.084 48.112 176.657 48.24 176.231 48.496C175.815 48.7413 175.441 49.104 175.111 49.584C174.78 50.064 174.535 50.6453 174.375 51.328ZM181.793 56L183.601 47.488H184.353L184.033 49.392H184.097C184.289 49.0933 184.523 48.784 184.801 48.464C185.078 48.144 185.393 47.8773 185.745 47.664C186.107 47.4507 186.518 47.344 186.977 47.344C187.329 47.344 187.638 47.3813 187.905 47.456L187.713 48.288C187.585 48.256 187.451 48.2293 187.313 48.208C187.174 48.1867 187.03 48.176 186.881 48.176C186.358 48.176 185.873 48.3573 185.424 48.72C184.977 49.072 184.587 49.5307 184.257 50.096C183.937 50.6613 183.707 51.264 183.569 51.904L182.705 56H181.793ZM191.669 45.728C191.498 45.728 191.36 45.68 191.253 45.584C191.157 45.488 191.109 45.3493 191.109 45.168C191.109 44.9653 191.168 44.7787 191.285 44.608C191.402 44.4267 191.578 44.336 191.813 44.336C192.005 44.336 192.144 44.3893 192.229 44.496C192.314 44.592 192.357 44.72 192.357 44.88C192.357 45.1147 192.288 45.3173 192.149 45.488C192.021 45.648 191.861 45.728 191.669 45.728ZM188.933 56L190.741 47.488H191.653L189.845 56H188.933ZM193.668 56L195.476 47.488H196.228L195.908 49.392H195.972C196.142 49.0933 196.366 48.784 196.644 48.464C196.921 48.144 197.246 47.8773 197.62 47.664C198.004 47.44 198.441 47.328 198.932 47.328C199.593 47.328 200.073 47.5253 200.372 47.92C200.67 48.304 200.83 48.8213 200.852 49.472H200.884C201.076 49.1413 201.316 48.8107 201.604 48.48C201.902 48.1493 202.249 47.8773 202.644 47.664C203.038 47.44 203.481 47.328 203.972 47.328C204.612 47.328 205.108 47.5093 205.46 47.872C205.822 48.224 206.004 48.7413 206.004 49.424C206.004 49.6267 205.988 49.8293 205.956 50.032C205.934 50.2347 205.897 50.4427 205.844 50.656L204.724 56H203.796L204.964 50.544C205.049 50.1493 205.092 49.808 205.092 49.52C205.092 48.5813 204.633 48.112 203.716 48.112C203.278 48.112 202.841 48.272 202.404 48.592C201.966 48.9013 201.577 49.3387 201.236 49.904C200.905 50.4587 200.665 51.1093 200.516 51.856L199.636 56H198.724L199.86 50.672C199.913 50.4373 199.95 50.224 199.972 50.032C199.993 49.8293 200.004 49.6587 200.004 49.52C200.004 49.0827 199.892 48.7413 199.668 48.496C199.444 48.24 199.113 48.112 198.676 48.112C198.228 48.112 197.785 48.272 197.348 48.592C196.921 48.9013 196.537 49.344 196.196 49.92C195.854 50.496 195.604 51.1733 195.444 51.952L194.58 56H193.668ZM211.842 56.16C210.967 56.16 210.242 55.888 209.666 55.344C209.1 54.8 208.818 53.9893 208.818 52.912C208.818 52.1867 208.919 51.4933 209.122 50.832C209.335 50.16 209.634 49.5627 210.018 49.04C210.402 48.5067 210.855 48.0907 211.378 47.792C211.911 47.4827 212.498 47.328 213.138 47.328C213.831 47.328 214.375 47.504 214.77 47.856C215.164 48.1973 215.362 48.656 215.362 49.232C215.362 50.1813 214.903 50.896 213.986 51.376C213.068 51.856 211.81 52.096 210.21 52.096H209.794C209.783 52.2027 209.772 52.3307 209.762 52.48C209.751 52.6187 209.746 52.752 209.746 52.88C209.746 53.68 209.943 54.2987 210.338 54.736C210.732 55.1627 211.292 55.376 212.018 55.376C212.444 55.376 212.839 55.3173 213.202 55.2C213.564 55.0827 213.916 54.944 214.258 54.784V55.584C213.938 55.744 213.575 55.8827 213.17 56C212.775 56.1067 212.332 56.16 211.842 56.16ZM209.922 51.328H210.37C211.138 51.328 211.826 51.2587 212.434 51.12C213.052 50.9813 213.543 50.7627 213.906 50.464C214.268 50.1653 214.45 49.776 214.45 49.296C214.45 48.9547 214.332 48.672 214.098 48.448C213.874 48.224 213.527 48.112 213.058 48.112C212.631 48.112 212.204 48.24 211.778 48.496C211.362 48.7413 210.988 49.104 210.658 49.584C210.327 50.064 210.082 50.6453 209.922 51.328ZM217.307 56L219.131 47.456H219.931L219.611 49.36H219.627C219.819 49.0613 220.065 48.7573 220.363 48.448C220.662 48.128 221.019 47.856 221.435 47.632C221.851 47.408 222.315 47.296 222.827 47.296C223.521 47.296 224.059 47.4827 224.443 47.856C224.827 48.2187 225.019 48.7413 225.019 49.424C225.019 49.6267 225.003 49.84 224.971 50.064C224.939 50.2773 224.902 50.4747 224.859 50.656L223.723 56H222.763L223.915 50.544C223.958 50.3307 223.99 50.144 224.011 49.984C224.043 49.824 224.059 49.6693 224.059 49.52C224.059 49.0613 223.931 48.72 223.675 48.496C223.43 48.2613 223.073 48.144 222.603 48.144C222.134 48.144 221.665 48.2987 221.195 48.608C220.726 48.9067 220.305 49.344 219.931 49.92C219.569 50.4853 219.302 51.1627 219.131 51.952L218.267 56H217.307ZM229.578 56.16C229.023 56.16 228.586 56.0267 228.266 55.76C227.946 55.4933 227.786 55.0667 227.786 54.48C227.786 54.16 227.829 53.8187 227.914 53.456L229.018 48.224H227.738L227.85 47.728L229.178 47.392L229.946 45.456H230.538L230.09 47.488H232.474L232.314 48.224H229.946L228.826 53.44C228.794 53.6 228.762 53.7653 228.73 53.936C228.709 54.096 228.698 54.2453 228.698 54.384C228.698 54.6933 228.773 54.9387 228.922 55.12C229.082 55.3013 229.338 55.392 229.69 55.392C229.914 55.392 230.117 55.376 230.298 55.344C230.49 55.3013 230.682 55.248 230.874 55.184V55.92C230.725 55.9733 230.533 56.0267 230.298 56.08C230.063 56.1333 229.823 56.16 229.578 56.16ZM240.811 56L243.051 45.408H239.691L239.867 44.576H247.547L247.371 45.408H243.995L241.755 56H240.811ZM247.589 56L250.165 43.84H251.077L250.389 47.04C250.315 47.424 250.224 47.8187 250.117 48.224C250.021 48.6293 249.925 49.0187 249.829 49.392H249.877C250.069 49.0933 250.315 48.784 250.613 48.464C250.923 48.144 251.28 47.8773 251.685 47.664C252.101 47.44 252.565 47.328 253.077 47.328C253.76 47.328 254.288 47.5093 254.661 47.872C255.045 48.2347 255.237 48.768 255.237 49.472C255.237 49.6533 255.221 49.8453 255.189 50.048C255.168 50.24 255.136 50.4427 255.093 50.656L253.957 56H253.045L254.197 50.544C254.283 50.1493 254.325 49.8187 254.325 49.552C254.325 48.592 253.835 48.112 252.853 48.112C252.373 48.112 251.893 48.2667 251.413 48.576C250.944 48.8853 250.523 49.328 250.149 49.904C249.787 50.4693 249.525 51.152 249.365 51.952L248.501 56H247.589ZM260.292 56.16C259.567 56.16 258.996 55.8987 258.58 55.376C258.175 54.8533 257.972 54.1227 257.972 53.184C257.972 52.4587 258.068 51.7493 258.26 51.056C258.452 50.3627 258.729 49.7387 259.092 49.184C259.465 48.6187 259.913 48.1707 260.436 47.84C260.959 47.4987 261.551 47.328 262.212 47.328C262.649 47.328 263.017 47.4187 263.316 47.6C263.615 47.7813 263.849 48.0107 264.02 48.288C264.201 48.5547 264.335 48.832 264.42 49.12H264.484L264.948 47.488H265.668L263.86 56H263.124L263.444 54.096H263.396C263.183 54.416 262.921 54.736 262.612 55.056C262.303 55.376 261.951 55.6427 261.556 55.856C261.161 56.0587 260.74 56.16 260.292 56.16ZM260.548 55.376C260.985 55.376 261.423 55.216 261.86 54.896C262.308 54.576 262.708 54.144 263.06 53.6C263.423 53.056 263.684 52.4427 263.844 51.76C263.908 51.44 263.956 51.1573 263.988 50.912C264.02 50.656 264.036 50.4213 264.036 50.208C264.036 49.568 263.876 49.0613 263.556 48.688C263.247 48.304 262.82 48.112 262.276 48.112C261.753 48.112 261.284 48.2613 260.868 48.56C260.452 48.848 260.095 49.2373 259.796 49.728C259.508 50.208 259.284 50.752 259.124 51.36C258.975 51.9573 258.9 52.5707 258.9 53.2C258.9 53.8933 259.039 54.432 259.316 54.816C259.593 55.1893 260.004 55.376 260.548 55.376ZM269.75 56.16C269.195 56.16 268.758 56.0267 268.438 55.76C268.118 55.4933 267.958 55.0667 267.958 54.48C267.958 54.16 268 53.8187 268.086 53.456L269.19 48.224H267.91L268.022 47.728L269.35 47.392L270.118 45.456H270.71L270.262 47.488H272.646L272.486 48.224H270.118L268.998 53.44C268.966 53.6 268.934 53.7653 268.902 53.936C268.88 54.096 268.87 54.2453 268.87 54.384C268.87 54.6933 268.944 54.9387 269.094 55.12C269.254 55.3013 269.51 55.392 269.862 55.392C270.086 55.392 270.288 55.376 270.47 55.344C270.662 55.3013 270.854 55.248 271.046 55.184V55.92C270.896 55.9733 270.704 56.0267 270.47 56.08C270.235 56.1333 269.995 56.16 269.75 56.16ZM283.191 56.16C282.081 56.16 281.228 55.8933 280.631 55.36C280.033 54.816 279.735 54.0373 279.735 53.024C279.735 52.672 279.788 52.2293 279.895 51.696L281.415 44.576H282.343L280.823 51.728C280.716 52.1973 280.663 52.624 280.663 53.008C280.663 53.7547 280.887 54.3307 281.335 54.736C281.793 55.1307 282.428 55.328 283.239 55.328C284.252 55.328 285.057 55.0453 285.655 54.48C286.263 53.9147 286.689 53.0667 286.935 51.936L288.519 44.576H289.447L287.863 52.032C287.575 53.3973 287.047 54.4267 286.279 55.12C285.511 55.8133 284.481 56.16 283.191 56.16ZM290.04 59.776L292.632 47.488H293.384L293.064 49.392H293.112C293.336 49.0507 293.602 48.7253 293.912 48.416C294.221 48.096 294.573 47.8347 294.968 47.632C295.362 47.4293 295.8 47.328 296.28 47.328C297.005 47.328 297.586 47.5893 298.024 48.112C298.472 48.6347 298.696 49.3653 298.696 50.304C298.696 51.0187 298.6 51.7227 298.408 52.416C298.226 53.1093 297.954 53.7387 297.592 54.304C297.229 54.8693 296.781 55.3227 296.248 55.664C295.714 55.9947 295.101 56.16 294.408 56.16C293.949 56.16 293.56 56.0747 293.24 55.904C292.93 55.7333 292.68 55.5147 292.488 55.248C292.296 54.9707 292.157 54.6773 292.072 54.368H292.008C291.976 54.6453 291.928 54.9547 291.864 55.296C291.81 55.6267 291.752 55.9253 291.688 56.192L290.936 59.776H290.04ZM294.36 55.376C294.904 55.376 295.384 55.232 295.8 54.944C296.226 54.6453 296.584 54.2507 296.872 53.76C297.16 53.2587 297.378 52.7093 297.528 52.112C297.677 51.5147 297.752 50.9067 297.752 50.288C297.752 49.5947 297.597 49.0613 297.288 48.688C296.989 48.304 296.562 48.112 296.008 48.112C295.549 48.112 295.106 48.256 294.68 48.544C294.253 48.832 293.869 49.2213 293.528 49.712C293.197 50.192 292.93 50.7413 292.728 51.36C292.536 51.968 292.44 52.6027 292.44 53.264C292.44 53.936 292.605 54.4587 292.936 54.832C293.277 55.1947 293.752 55.376 294.36 55.376ZM300.227 59.776L302.819 47.488H303.571L303.251 49.392H303.299C303.523 49.0507 303.79 48.7253 304.099 48.416C304.409 48.096 304.761 47.8347 305.155 47.632C305.55 47.4293 305.987 47.328 306.467 47.328C307.193 47.328 307.774 47.5893 308.211 48.112C308.659 48.6347 308.883 49.3653 308.883 50.304C308.883 51.0187 308.787 51.7227 308.595 52.416C308.414 53.1093 308.142 53.7387 307.779 54.304C307.417 54.8693 306.969 55.3227 306.435 55.664C305.902 55.9947 305.289 56.16 304.595 56.16C304.137 56.16 303.747 56.0747 303.427 55.904C303.118 55.7333 302.867 55.5147 302.675 55.248C302.483 54.9707 302.345 54.6773 302.259 54.368H302.195C302.163 54.6453 302.115 54.9547 302.051 55.296C301.998 55.6267 301.939 55.9253 301.875 56.192L301.123 59.776H300.227ZM304.547 55.376C305.091 55.376 305.571 55.232 305.987 54.944C306.414 54.6453 306.771 54.2507 307.059 53.76C307.347 53.2587 307.566 52.7093 307.715 52.112C307.865 51.5147 307.939 50.9067 307.939 50.288C307.939 49.5947 307.785 49.0613 307.475 48.688C307.177 48.304 306.75 48.112 306.195 48.112C305.737 48.112 305.294 48.256 304.867 48.544C304.441 48.832 304.057 49.2213 303.715 49.712C303.385 50.192 303.118 50.7413 302.915 51.36C302.723 51.968 302.627 52.6027 302.627 53.264C302.627 53.936 302.793 54.4587 303.123 54.832C303.465 55.1947 303.939 55.376 304.547 55.376ZM314.623 56.16C313.748 56.16 313.023 55.888 312.447 55.344C311.881 54.8 311.599 53.9893 311.599 52.912C311.599 52.1867 311.7 51.4933 311.903 50.832C312.116 50.16 312.415 49.5627 312.799 49.04C313.183 48.5067 313.636 48.0907 314.159 47.792C314.692 47.4827 315.279 47.328 315.919 47.328C316.612 47.328 317.156 47.504 317.551 47.856C317.945 48.1973 318.143 48.656 318.143 49.232C318.143 50.1813 317.684 50.896 316.767 51.376C315.849 51.856 314.591 52.096 312.991 52.096H312.575C312.564 52.2027 312.553 52.3307 312.543 52.48C312.532 52.6187 312.527 52.752 312.527 52.88C312.527 53.68 312.724 54.2987 313.119 54.736C313.513 55.1627 314.073 55.376 314.799 55.376C315.225 55.376 315.62 55.3173 315.983 55.2C316.345 55.0827 316.697 54.944 317.039 54.784V55.584C316.719 55.744 316.356 55.8827 315.951 56C315.556 56.1067 315.113 56.16 314.623 56.16ZM312.703 51.328H313.151C313.919 51.328 314.607 51.2587 315.215 51.12C315.833 50.9813 316.324 50.7627 316.687 50.464C317.049 50.1653 317.231 49.776 317.231 49.296C317.231 48.9547 317.113 48.672 316.879 48.448C316.655 48.224 316.308 48.112 315.839 48.112C315.412 48.112 314.985 48.24 314.559 48.496C314.143 48.7413 313.769 49.104 313.439 49.584C313.108 50.064 312.863 50.6453 312.703 51.328ZM322.793 56.16C322.035 56.16 321.454 55.904 321.049 55.392C320.643 54.8693 320.441 54.1333 320.441 53.184C320.441 52.4693 320.531 51.7653 320.713 51.072C320.894 50.3787 321.166 49.7547 321.529 49.2C321.902 48.6347 322.35 48.1813 322.873 47.84C323.406 47.4987 324.025 47.328 324.729 47.328C325.187 47.328 325.571 47.4187 325.881 47.6C326.201 47.7707 326.451 47.9947 326.633 48.272C326.825 48.5387 326.963 48.8213 327.049 49.12H327.113C327.155 48.7573 327.209 48.4 327.273 48.048C327.337 47.696 327.411 47.3387 327.497 46.976L328.153 43.84H329.065L326.489 56H325.737L326.041 54.08H325.993C325.758 54.4213 325.481 54.752 325.161 55.072C324.841 55.392 324.483 55.6533 324.089 55.856C323.694 56.0587 323.262 56.16 322.793 56.16ZM323.049 55.376C323.475 55.376 323.902 55.2373 324.329 54.96C324.766 54.6827 325.161 54.3093 325.513 53.84C325.865 53.36 326.147 52.8107 326.361 52.192C326.574 51.5627 326.681 50.9067 326.681 50.224C326.681 49.552 326.51 49.0347 326.169 48.672C325.838 48.2987 325.369 48.112 324.761 48.112C324.217 48.112 323.737 48.2613 323.321 48.56C322.905 48.8587 322.547 49.2533 322.249 49.744C321.961 50.2347 321.742 50.784 321.593 51.392C321.443 51.9893 321.369 52.592 321.369 53.2C321.369 53.904 321.507 54.4427 321.785 54.816C322.073 55.1893 322.494 55.376 323.049 55.376ZM335.72 56L338.136 44.576H340.664C341.795 44.576 342.632 44.832 343.176 45.344C343.72 45.856 343.992 46.5653 343.992 47.472C343.992 48.656 343.598 49.5947 342.808 50.288C342.03 50.9813 340.851 51.328 339.272 51.328H337.624L336.632 56H335.72ZM337.8 50.528H339.416C340.611 50.528 341.512 50.2667 342.12 49.744C342.739 49.2107 343.048 48.464 343.048 47.504C343.048 46.768 342.83 46.2347 342.392 45.904C341.966 45.5627 341.342 45.392 340.52 45.392H338.888L337.8 50.528ZM345.48 56L347.288 47.488H348.04L347.72 49.392H347.784C347.976 49.0933 348.211 48.784 348.488 48.464C348.765 48.144 349.08 47.8773 349.432 47.664C349.795 47.4507 350.205 47.344 350.664 47.344C351.016 47.344 351.325 47.3813 351.592 47.456L351.4 48.288C351.272 48.256 351.139 48.2293 351 48.208C350.861 48.1867 350.717 48.176 350.568 48.176C350.045 48.176 349.56 48.3573 349.112 48.72C348.664 49.072 348.275 49.5307 347.944 50.096C347.624 50.6613 347.395 51.264 347.256 51.904L346.392 56H345.48ZM355.716 56.144C354.724 56.144 353.967 55.8453 353.444 55.248C352.921 54.6507 352.66 53.8613 352.66 52.88C352.66 52.1333 352.756 51.4293 352.948 50.768C353.151 50.096 353.444 49.504 353.828 48.992C354.212 48.48 354.671 48.08 355.204 47.792C355.737 47.4933 356.34 47.344 357.012 47.344C357.972 47.344 358.713 47.648 359.236 48.256C359.769 48.8533 360.036 49.6373 360.036 50.608C360.036 51.312 359.94 51.9947 359.748 52.656C359.567 53.3173 359.289 53.9093 358.916 54.432C358.553 54.9547 358.1 55.3707 357.556 55.68C357.023 55.9893 356.409 56.144 355.716 56.144ZM355.78 55.36C356.431 55.36 357.007 55.1573 357.508 54.752C358.009 54.336 358.399 53.7653 358.676 53.04C358.964 52.304 359.108 51.4613 359.108 50.512C359.108 50.0853 359.033 49.696 358.884 49.344C358.735 48.9813 358.505 48.688 358.196 48.464C357.887 48.24 357.487 48.128 356.996 48.128C356.324 48.128 355.732 48.336 355.22 48.752C354.708 49.168 354.303 49.7333 354.004 50.448C353.716 51.1627 353.572 51.9787 353.572 52.896C353.572 53.664 353.759 54.2667 354.132 54.704C354.505 55.1413 355.055 55.36 355.78 55.36ZM365.811 56.16C364.841 56.16 364.078 55.872 363.523 55.296C362.969 54.72 362.691 53.9307 362.691 52.928C362.691 52.1813 362.787 51.472 362.979 50.8C363.182 50.1173 363.475 49.52 363.859 49.008C364.254 48.4853 364.729 48.0747 365.283 47.776C365.838 47.4773 366.467 47.328 367.171 47.328C367.534 47.328 367.891 47.3653 368.243 47.44C368.606 47.504 368.931 47.6 369.219 47.728L368.947 48.512C368.713 48.3947 368.435 48.2987 368.115 48.224C367.806 48.1493 367.491 48.112 367.171 48.112C366.457 48.112 365.833 48.3307 365.299 48.768C364.766 49.2053 364.35 49.7867 364.051 50.512C363.763 51.2373 363.619 52.032 363.619 52.896C363.619 53.6213 363.811 54.2187 364.195 54.688C364.59 55.1467 365.155 55.376 365.891 55.376C366.275 55.376 366.627 55.328 366.947 55.232C367.278 55.136 367.609 55.0187 367.939 54.88V55.664C367.662 55.8133 367.347 55.9307 366.995 56.016C366.643 56.112 366.249 56.16 365.811 56.16ZM373.149 56.16C372.477 56.16 371.949 55.984 371.565 55.632C371.181 55.2693 370.989 54.7413 370.989 54.048C370.989 53.856 371 53.6587 371.021 53.456C371.053 53.2533 371.096 53.0453 371.149 52.832L372.285 47.488H373.197L372.029 52.944C371.944 53.3387 371.901 53.6747 371.901 53.952C371.901 54.9013 372.392 55.376 373.373 55.376C373.853 55.376 374.328 55.2213 374.797 54.912C375.267 54.6027 375.688 54.16 376.061 53.584C376.435 53.008 376.707 52.32 376.877 51.52L377.741 47.488H378.637L376.829 56H376.077L376.397 54.096H376.333C376.141 54.3947 375.896 54.704 375.597 55.024C375.299 55.344 374.941 55.616 374.525 55.84C374.12 56.0533 373.661 56.16 373.149 56.16ZM382.108 56L380.956 47.488H381.868L382.588 52.992C382.631 53.376 382.668 53.776 382.7 54.192C382.732 54.608 382.759 54.9387 382.78 55.184H382.812C382.972 54.8533 383.148 54.4853 383.34 54.08C383.532 53.6747 383.724 53.3067 383.916 52.976L386.988 47.488H387.964L383.196 56H382.108ZM390.859 56.16C390.304 56.16 389.867 56.0267 389.547 55.76C389.227 55.4933 389.067 55.0667 389.067 54.48C389.067 54.16 389.11 53.8187 389.195 53.456L390.299 48.224H389.019L389.131 47.728L390.459 47.392L391.227 45.456H391.819L391.371 47.488H393.755L393.595 48.224H391.227L390.107 53.44C390.075 53.6 390.043 53.7653 390.011 53.936C389.99 54.096 389.979 54.2453 389.979 54.384C389.979 54.6933 390.054 54.9387 390.203 55.12C390.363 55.3013 390.619 55.392 390.971 55.392C391.195 55.392 391.398 55.376 391.579 55.344C391.771 55.3013 391.963 55.248 392.155 55.184V55.92C392.006 55.9733 391.814 56.0267 391.579 56.08C391.344 56.1333 391.104 56.16 390.859 56.16ZM397.56 45.728C397.389 45.728 397.25 45.68 397.144 45.584C397.048 45.488 397 45.3493 397 45.168C397 44.9653 397.058 44.7787 397.176 44.608C397.293 44.4267 397.469 44.336 397.704 44.336C397.896 44.336 398.034 44.3893 398.12 44.496C398.205 44.592 398.248 44.72 398.248 44.88C398.248 45.1147 398.178 45.3173 398.04 45.488C397.912 45.648 397.752 45.728 397.56 45.728ZM394.824 56L396.632 47.488H397.544L395.736 56H394.824ZM401.014 56L399.862 47.488H400.774L401.494 52.992C401.537 53.376 401.574 53.776 401.606 54.192C401.638 54.608 401.665 54.9387 401.686 55.184H401.718C401.878 54.8533 402.054 54.4853 402.246 54.08C402.438 53.6747 402.63 53.3067 402.822 52.976L405.894 47.488H406.87L402.102 56H401.014ZM410.325 45.728C410.155 45.728 410.016 45.68 409.909 45.584C409.813 45.488 409.765 45.3493 409.765 45.168C409.765 44.9653 409.824 44.7787 409.941 44.608C410.059 44.4267 410.235 44.336 410.469 44.336C410.661 44.336 410.8 44.3893 410.885 44.496C410.971 44.592 411.013 44.72 411.013 44.88C411.013 45.1147 410.944 45.3173 410.805 45.488C410.677 45.648 410.517 45.728 410.325 45.728ZM407.589 56L409.397 47.488H410.309L408.501 56H407.589ZM414.5 56.16C413.945 56.16 413.508 56.0267 413.188 55.76C412.868 55.4933 412.708 55.0667 412.708 54.48C412.708 54.16 412.75 53.8187 412.836 53.456L413.94 48.224H412.66L412.772 47.728L414.1 47.392L414.868 45.456H415.46L415.012 47.488H417.396L417.236 48.224H414.868L413.748 53.44C413.716 53.6 413.684 53.7653 413.652 53.936C413.63 54.096 413.62 54.2453 413.62 54.384C413.62 54.6933 413.694 54.9387 413.844 55.12C414.004 55.3013 414.26 55.392 414.612 55.392C414.836 55.392 415.038 55.376 415.22 55.344C415.412 55.3013 415.604 55.248 415.796 55.184V55.92C415.646 55.9733 415.454 56.0267 415.22 56.08C414.985 56.1333 414.745 56.16 414.5 56.16ZM417.328 59.856C417.104 59.856 416.918 59.84 416.768 59.808C416.608 59.7867 416.459 59.7493 416.32 59.696V58.928C416.459 58.9707 416.608 59.008 416.768 59.04C416.918 59.072 417.094 59.088 417.296 59.088C417.712 59.088 418.075 58.944 418.384 58.656C418.694 58.3787 419.008 57.952 419.328 57.376L420.128 56L418.768 47.488H419.68L420.432 52.464C420.507 52.9653 420.566 53.4667 420.608 53.968C420.651 54.4587 420.683 54.848 420.704 55.136H420.736C420.811 54.9653 420.912 54.7467 421.04 54.48C421.168 54.2027 421.307 53.9093 421.456 53.6C421.616 53.2907 421.776 52.9973 421.936 52.72L424.8 47.488H425.776L420.16 57.632C419.755 58.3573 419.339 58.9067 418.912 59.28C418.486 59.664 417.958 59.856 417.328 59.856ZM434.628 56L436.34 47.952C436.436 47.4827 436.532 47.04 436.628 46.624C436.724 46.208 436.815 45.8667 436.9 45.6C436.74 45.7493 436.58 45.8827 436.42 46C436.271 46.1067 436.089 46.2347 435.876 46.384L434.084 47.536L433.652 46.848L437.172 44.576H437.988L435.556 56H434.628ZM444.344 56.16C443.715 56.16 443.15 56.1013 442.648 55.984C442.158 55.856 441.72 55.696 441.336 55.504V54.608C441.688 54.8107 442.131 54.992 442.664 55.152C443.208 55.3013 443.774 55.376 444.36 55.376C445.363 55.376 446.147 55.1253 446.712 54.624C447.278 54.1227 447.56 53.472 447.56 52.672C447.56 51.9467 447.326 51.3973 446.856 51.024C446.387 50.6507 445.747 50.464 444.936 50.464H443.784L443.944 49.68H445.096C445.651 49.68 446.184 49.584 446.696 49.392C447.208 49.1893 447.63 48.8907 447.96 48.496C448.291 48.0907 448.456 47.5787 448.456 46.96C448.456 46.416 448.28 45.9893 447.928 45.68C447.576 45.36 447.118 45.2 446.552 45.2C446.019 45.2 445.512 45.2907 445.032 45.472C444.563 45.6533 444.088 45.904 443.608 46.224L443.176 45.568C443.656 45.2267 444.179 44.9493 444.744 44.736C445.31 44.5227 445.939 44.416 446.632 44.416C447.486 44.416 448.158 44.6453 448.648 45.104C449.139 45.5627 449.384 46.1547 449.384 46.88C449.384 47.744 449.107 48.4587 448.552 49.024C447.998 49.5787 447.299 49.9307 446.456 50.08V50.128C447.075 50.2453 447.571 50.5227 447.944 50.96C448.328 51.3867 448.52 51.9467 448.52 52.64C448.52 53.2907 448.36 53.8827 448.04 54.416C447.72 54.9387 447.251 55.36 446.632 55.68C446.014 56 445.251 56.16 444.344 56.16ZM453.869 51.584C453.314 51.584 452.882 51.3973 452.573 51.024C452.274 50.6507 452.125 50.096 452.125 49.36C452.125 49.0293 452.152 48.6507 452.205 48.224C452.269 47.7867 452.37 47.3493 452.509 46.912C452.648 46.464 452.829 46.0533 453.053 45.68C453.288 45.296 453.57 44.992 453.901 44.768C454.242 44.5333 454.642 44.416 455.101 44.416C456.264 44.416 456.845 45.1253 456.845 46.544C456.845 46.864 456.813 47.2427 456.749 47.68C456.685 48.1067 456.584 48.5493 456.445 49.008C456.306 49.456 456.12 49.8773 455.885 50.272C455.661 50.656 455.378 50.9707 455.037 51.216C454.706 51.4613 454.317 51.584 453.869 51.584ZM452.669 56L461.117 44.576H461.981L453.533 56H452.669ZM453.933 50.848C454.242 50.848 454.514 50.7467 454.749 50.544C454.994 50.3307 455.197 50.0533 455.357 49.712C455.528 49.3707 455.661 49.008 455.757 48.624C455.864 48.24 455.938 47.872 455.981 47.52C456.034 47.1573 456.061 46.8533 456.061 46.608C456.061 46.096 455.976 45.7227 455.805 45.488C455.634 45.2533 455.384 45.136 455.053 45.136C454.733 45.136 454.45 45.2373 454.205 45.44C453.97 45.6427 453.768 45.9093 453.597 46.24C453.437 46.56 453.304 46.912 453.197 47.296C453.101 47.6693 453.032 48.0373 452.989 48.4C452.946 48.7627 452.925 49.0773 452.925 49.344C452.925 50.3467 453.261 50.848 453.933 50.848ZM459.517 56.176C458.962 56.176 458.53 55.9947 458.221 55.632C457.922 55.2587 457.773 54.704 457.773 53.968C457.773 53.6267 457.8 53.2427 457.853 52.816C457.917 52.3787 458.018 51.936 458.157 51.488C458.296 51.04 458.477 50.6293 458.701 50.256C458.936 49.8827 459.218 49.584 459.549 49.36C459.89 49.1253 460.29 49.008 460.749 49.008C461.922 49.008 462.509 49.712 462.509 51.12C462.498 51.44 462.461 51.8187 462.397 52.256C462.344 52.6933 462.242 53.1413 462.093 53.6C461.954 54.048 461.768 54.4693 461.533 54.864C461.309 55.248 461.026 55.5627 460.685 55.808C460.354 56.0533 459.965 56.176 459.517 56.176ZM459.581 55.456C459.89 55.4453 460.162 55.3387 460.397 55.136C460.642 54.9227 460.845 54.6453 461.005 54.304C461.176 53.9627 461.309 53.6 461.405 53.216C461.512 52.832 461.586 52.464 461.629 52.112C461.682 51.7493 461.709 51.4453 461.709 51.2C461.709 50.688 461.624 50.3147 461.453 50.08C461.282 49.8453 461.032 49.728 460.701 49.728C460.381 49.728 460.104 49.8293 459.869 50.032C459.634 50.2347 459.432 50.5013 459.261 50.832C459.101 51.152 458.968 51.504 458.861 51.888C458.765 52.2613 458.69 52.6293 458.637 52.992C458.594 53.3547 458.573 53.6693 458.573 53.936C458.573 54.9493 458.909 55.456 459.581 55.456Z" fill="black" fill-opacity="0.39"/>
<rect width="77.193" height="22"/>
</svg>
