<svg width="369" height="278" viewBox="0 0 369 278" fill="none" xmlns="http://www.w3.org/2000/svg">
<path d="M42.1085 162.287L210.876 259.541L323.28 193.831L154.939 96.7255L42.1085 162.287Z" fill="white"/>
<path opacity="0.32" d="M250.342 195.443L177.217 239.988L106.171 197.612L175.641 154.883" fill="url(#paint0_linear)"/>
<path opacity="0.32" d="M130.286 118.011L78.2903 146.942L92.277 154.716L145.2 124.729L152.926 119.66L130.286 118.011Z" fill="url(#paint1_linear)"/>
<path opacity="0.32" d="M297.236 194.693L244.313 224.68L230.326 216.905L282.322 187.965" fill="url(#paint2_linear)"/>
<path d="M221.821 172.379V205.423H224.27L224.798 171.517" fill="#808080"/>
<path d="M235.743 159.665L240.64 195.592H238.191L233.071 160.999" fill="#808080"/>
<path d="M186.298 184.787C186.298 184.787 184.016 192.265 183.515 193.025C183.014 193.785 175.529 198.724 175.65 200.243C175.771 201.763 178.599 202.393 180.362 202.273C182.124 202.152 192.261 197.917 192.901 196.713C193.541 195.508 193.532 184.824 193.532 184.824L186.298 184.787Z" fill="#5C2D1D"/>
<path d="M198.318 193.534C198.318 193.534 196.036 201.013 195.536 201.772C195.035 202.532 187.55 207.471 187.67 208.991C187.791 210.511 190.62 211.141 192.382 211.021C194.144 210.9 204.282 206.665 204.922 205.461C205.562 204.256 205.553 193.571 205.553 193.571L198.318 193.534Z" fill="#5C2D1D"/>
<path d="M237.069 125.508C236.42 127.361 232.756 154.883 232.756 154.883L229.046 153.651L233.851 125.359" fill="#808080"/>
<path d="M235.743 159.665L235.808 155.226L231.875 156.57L233.071 160.999" fill="#A9CBF8"/>
<path d="M226.848 152.789C226.848 152.789 236.726 156.579 235.733 160.304C234.741 164.029 226.857 173.157 221.821 172.351C216.785 171.545 210.607 167.171 210.607 167.171" fill="#4A42A4"/>
<path d="M226.848 148.267C226.848 148.267 236.726 152.057 235.733 155.782C234.741 159.507 226.857 168.635 221.821 167.829C216.785 167.022 210.607 162.649 210.607 162.649" fill="#A6ACED"/>
<path d="M230.762 113.646C230.762 113.646 240.306 116.028 241.271 121.514C242.235 127 242.513 137.119 228.972 133.19C215.43 129.261 221.821 119.095 221.821 119.095" fill="#A6ACED"/>
<path d="M218.027 125.359C218.027 125.359 221.394 139.5 218.899 147.071C216.404 154.642 202.204 160.712 202.204 160.712L196.222 191.153C188.273 193.646 181.438 189.411 181.438 189.411C181.438 189.411 183.088 162.537 185.611 155.726C188.134 148.915 207.658 135.516 207.658 135.516" fill="#895851"/>
<path d="M218.602 143.346C218.602 143.346 199.069 156.736 196.556 163.557C194.042 170.377 192.382 197.241 192.382 197.241C192.382 197.241 199.218 201.485 207.166 198.983L213.149 168.542C213.149 168.542 223.351 165.642 225.8 158.071C228.248 150.5 227.238 139 227.238 139" fill="#895851"/>
<path d="M226.366 143.633C229.695 135.534 231.142 114.49 229.074 111.951C224.798 106.696 215.783 107.317 215.783 107.317C215.783 107.317 210.542 104.185 206.165 107.892C202.9 110.672 205.237 127.593 206.165 138.361C211.869 143.633 218.176 145.097 226.366 143.633Z" fill="#8CC63F"/>
<path d="M212.397 146.043C208.882 149.545 205.117 152.928 201.843 156.662C199.004 159.906 197.882 164.029 196.778 168.107C194.209 177.614 193.068 187.428 191.928 197.185C191.863 197.778 192.79 197.769 192.855 197.185C193.95 187.798 195.063 178.365 197.493 169.2C198.661 164.706 199.839 160.239 203.058 156.746C206.276 153.252 209.745 150.037 213.093 146.701C213.136 146.655 213.17 146.601 213.193 146.543C213.215 146.484 213.226 146.421 213.224 146.359C213.222 146.296 213.208 146.234 213.183 146.176C213.157 146.119 213.12 146.067 213.075 146.024C213.029 145.981 212.975 145.947 212.916 145.925C212.858 145.902 212.795 145.892 212.732 145.893C212.669 145.895 212.607 145.909 212.55 145.935C212.493 145.96 212.441 145.997 212.397 146.043Z" fill="#5C2D1D"/>
<path d="M250.917 169.274L252.772 168.273L169.408 120.559L115.177 151.288L115.91 151.714V192.274C115.924 192.37 115.973 192.458 116.047 192.522C116.121 192.586 116.216 192.621 116.313 192.621C116.411 192.621 116.505 192.586 116.579 192.522C116.653 192.458 116.702 192.37 116.717 192.274V152.196L196.918 199.011L197.112 198.9V228.108C197.127 228.205 197.176 228.293 197.25 228.356C197.324 228.42 197.418 228.455 197.516 228.455C197.613 228.455 197.708 228.42 197.782 228.356C197.856 228.293 197.905 228.205 197.919 228.108V198.455L250.351 169.58V195.397C250.365 195.493 250.414 195.581 250.488 195.645C250.562 195.708 250.657 195.743 250.754 195.743C250.852 195.743 250.946 195.708 251.02 195.645C251.094 195.581 251.143 195.493 251.158 195.397V169.58C251.151 169.511 251.125 169.446 251.082 169.392C251.039 169.338 250.982 169.297 250.917 169.274Z" fill="#32A05C"/>
<path opacity="0.15" d="M250.917 169.274L252.772 168.273L169.408 120.559L115.177 151.288L115.91 151.714V192.274C115.924 192.37 115.973 192.458 116.047 192.522C116.121 192.586 116.216 192.621 116.313 192.621C116.411 192.621 116.505 192.586 116.579 192.522C116.653 192.458 116.702 192.37 116.717 192.274V152.196L196.918 199.011L197.112 198.9V228.108C197.127 228.205 197.176 228.293 197.25 228.356C197.324 228.42 197.418 228.455 197.516 228.455C197.613 228.455 197.708 228.42 197.782 228.356C197.856 228.293 197.905 228.205 197.919 228.108V198.455L250.351 169.58V195.397C250.365 195.493 250.414 195.581 250.488 195.645C250.562 195.708 250.657 195.743 250.754 195.743C250.852 195.743 250.946 195.708 251.02 195.645C251.094 195.581 251.143 195.493 251.158 195.397V169.58C251.151 169.511 251.125 169.446 251.082 169.392C251.039 169.338 250.982 169.297 250.917 169.274Z" fill="black"/>
<path d="M63.3204 146.923L46.7275 134.283C46.2544 133.922 45.8 134.728 46.2637 135.08L62.8567 147.72C63.3297 148.081 63.7934 147.275 63.3204 146.923Z" fill="#FA7202"/>
<path d="M133.217 107.818C132.823 107.816 132.434 107.731 132.076 107.567L131.9 108.726L150.45 109.198V107.818H133.217Z" fill="#808080"/>
<path d="M132.067 107.614L131.9 108.726L142.149 114.638V113.202C138.698 111.524 135.359 109.597 132.067 107.614Z" fill="#808080"/>
<path d="M142.418 27.6332C141.811 27.7335 141.189 27.6429 140.637 27.3737L128.876 118.057C129.59 118.493 130.332 118.882 131.056 119.29L142.956 27.5498L142.418 27.6332Z" fill="#808080"/>
<path d="M145.126 27.5313C144.697 27.5782 144.265 27.5782 143.837 27.5313C143.494 27.5313 143.141 27.5313 142.798 27.5869L150.747 120.569C151.35 120.273 151.97 120.01 152.602 119.781L152.917 119.623H152.973L145.126 27.5313Z" fill="#808080"/>
<path d="M143.837 27.5405C143.362 27.5429 142.888 27.577 142.418 27.6425C142.232 27.6571 142.046 27.6571 141.861 27.6425L141.082 125.869C141.48 125.727 141.909 125.692 142.325 125.767H142.993H143.382L144.161 27.5405H143.837Z" fill="#808080"/>
<path d="M131 29.1066V49.4099C131 49.4099 154.392 50.1049 154.392 49.4099V29.1066" fill="#32A05C"/>
<path d="M142.696 34.472C149.155 34.472 154.392 32.0491 154.392 29.0603C154.392 26.0714 149.155 23.6485 142.696 23.6485C136.236 23.6485 131 26.0714 131 29.0603C131 32.0491 136.236 34.472 142.696 34.472Z" fill="#32A05C"/>
<path opacity="0.19" d="M142.696 34.472C149.155 34.472 154.392 32.0491 154.392 29.0603C154.392 26.0714 149.155 23.6485 142.696 23.6485C136.236 23.6485 131 26.0714 131 29.0603C131 32.0491 136.236 34.472 142.696 34.472Z" fill="black"/>
<path d="M142.696 55.1367C149.155 55.1367 154.392 52.7138 154.392 49.7249C154.392 46.7361 149.155 44.3132 142.696 44.3132C136.236 44.3132 131 46.7361 131 49.7249C131 52.7138 136.236 55.1367 142.696 55.1367Z" fill="#32A05C"/>
<path d="M293.98 124.386L296.874 122.913L293.628 119.744L293.98 124.386Z" fill="#D64338"/>
<path d="M254.052 60.8913L256.955 59.4179L258.095 63.2265L254.052 60.8913Z" fill="#D64338"/>
<path d="M256.955 59.4179L296.874 82.4455V122.913L256.955 98.968V59.4179Z" fill="#D64338"/>
<path d="M254.052 60.8913L293.98 83.9189V124.386L254.052 100.441V60.8913Z" fill="#FF6753"/>
<path d="M258.531 68.0173L289.501 85.8742V117.27L258.531 98.69V68.0173Z" fill="white"/>
<path d="M264.94 80.3327L264.875 81.2409V94.9277L281.042 103.879V89.6179L264.94 80.3327Z" fill="#32A05C"/>
<path d="M276.636 179.81V192.534H297.236V179.81" fill="#32A05C"/>
<path d="M286.931 184.879C292.622 184.879 297.236 182.614 297.236 179.82C297.236 177.025 292.622 174.76 286.931 174.76C281.24 174.76 276.627 177.025 276.627 179.82C276.627 182.614 281.24 184.879 286.931 184.879Z" fill="#32A05C"/>
<path opacity="0.19" d="M286.931 184.879C292.622 184.879 297.236 182.614 297.236 179.82C297.236 177.025 292.622 174.76 286.931 174.76C281.24 174.76 276.627 177.025 276.627 179.82C276.627 182.614 281.24 184.879 286.931 184.879Z" fill="black"/>
<path d="M286.931 198.094C292.622 198.094 297.236 195.828 297.236 193.034C297.236 190.24 292.622 187.974 286.931 187.974C281.24 187.974 276.627 190.24 276.627 193.034C276.627 195.828 281.24 198.094 286.931 198.094Z" fill="#32A05C"/>
<path d="M298.469 150.24C296.299 149.314 293.285 146.395 290.651 146.487C289.782 149.011 289.246 151.637 289.055 154.299C288.556 158.627 288.456 162.992 288.759 167.337C288.82 168.307 288.901 169.274 289 170.238C289.026 170.522 289.105 170.798 289.232 171.053C289.232 174.408 289.232 177.766 289.232 181.126C289.245 181.202 289.284 181.27 289.342 181.32C289.401 181.369 289.475 181.396 289.552 181.396C289.628 181.396 289.702 181.369 289.761 181.32C289.819 181.27 289.859 181.202 289.872 181.126C289.872 177.895 289.872 174.667 289.872 171.443C290.903 171.102 291.893 170.645 292.821 170.08C294.756 168.867 296.219 167.029 296.967 164.873C298.627 160.239 297.579 155.087 299.156 150.509C298.924 150.407 298.655 150.333 298.469 150.24Z" fill="#297600"/>
<path d="M294.018 142.66C292.789 143.384 291.775 144.42 291.077 145.663C290.891 145.955 290.736 146.265 290.614 146.589L290.521 146.784C290.324 147.305 290.16 147.837 290.029 148.378C290.278 147.968 290.667 147.663 291.124 147.516C291.664 147.28 292.266 147.224 292.84 147.359C293.398 147.573 293.928 147.856 294.416 148.202C295.149 148.647 295.854 149.128 296.587 149.601C300 151.769 304.545 151.992 307.179 148.832C307.179 148.711 307.244 148.582 307.271 148.452C307.652 146.265 301.558 138.277 294.018 142.66Z" fill="#5FAD00"/>
<path d="M305.658 150.12L306.084 149.842C306.09 149.798 306.085 149.754 306.071 149.712C306.056 149.67 306.032 149.632 306.001 149.601C303.942 147.488 301.725 145.413 298.905 144.365C296.886 143.6 294.7 143.386 292.571 143.745C292.339 144.013 292.135 144.291 291.931 144.569C294.358 143.934 296.93 144.147 299.221 145.172C301.637 146.362 303.793 148.019 305.565 150.046C305.591 150.076 305.622 150.102 305.658 150.12Z" fill="#297600"/>
<path d="M271.08 154.753C269.584 155.524 268.347 156.716 267.523 158.182C266.699 159.648 266.323 161.323 266.443 163.001C266.684 169.07 276.701 163.149 279.363 158.024C282.025 152.9 282.442 160.211 282.442 160.211" fill="#297600"/>
<path d="M280.105 152.631C278.221 152.597 276.344 152.857 274.54 153.4C273.33 153.69 272.166 154.145 271.08 154.753C271.71 155.176 272.381 155.533 273.084 155.819C274.392 156.207 275.532 157.023 276.321 158.136C276.484 158.43 276.615 158.74 276.71 159.062C277.323 161.064 276.794 163.483 277.638 165.493C278.482 167.504 280.142 169.274 282.507 169.422C285.29 169.599 286.625 166.883 287.145 164.539C287.664 162.194 288.462 158.979 287.571 156.588C286.542 153.771 282.767 152.761 280.105 152.631Z" fill="#5FAD00"/>
<path d="M283.815 162.111C282.628 158.275 280.105 154.698 276.441 152.956H276.302L276.126 153.011L275.458 153.187C279.734 154.772 282.424 158.988 283.527 163.297C284.928 168.811 284.455 174.779 284.455 180.413C284.455 180.491 284.486 180.567 284.542 180.622C284.598 180.678 284.673 180.709 284.752 180.709C284.831 180.709 284.906 180.678 284.962 180.622C285.017 180.567 285.049 180.491 285.049 180.413C285.058 174.399 285.614 167.94 283.815 162.111Z" fill="#297600"/>
<path d="M124.842 104.936V141.465L96.5249 157.793L73.458 144.097V110.153" fill="#4A42A4"/>
<path d="M96.5249 157.793V121.755L73.458 111.543V144.097L96.5249 157.793Z" fill="#4A42A4"/>
<path d="M73.458 108.262V111.543L75.6469 112.21L77.1031 109.986" fill="#9093D3"/>
<path d="M101.524 94.4181L124.842 108.216L95.6809 125.035C94.8183 125.536 73.4209 111.543 73.4209 111.543L101.524 94.4181Z" fill="#9093D3"/>
<path d="M124.842 108.216V104.936L120.649 102.851L121.169 108.689" fill="#9093D3"/>
<path d="M101.524 91.1284L124.842 104.926L95.6809 121.745C94.8183 122.246 73.4209 108.253 73.4209 108.253L101.524 91.1284Z" fill="#A6ACED"/>
<path d="M120.779 115.24V122.802L99.5578 134.886V127.472L120.779 115.24Z" fill="#7374B7"/>
<path d="M121.057 126.536V134.098L99.8361 146.191V138.778L121.057 126.536Z" fill="#7374B7"/>
<path d="M112.076 124.774C112.147 124.031 111.779 123.387 111.253 123.337C110.728 123.287 110.245 123.849 110.174 124.593C110.103 125.337 110.471 125.98 110.996 126.031C111.521 126.081 112.005 125.518 112.076 124.774Z" fill="#FFB883"/>
<path d="M112.944 135.673C113.015 134.929 112.647 134.286 112.122 134.236C111.596 134.186 111.113 134.748 111.042 135.492C110.971 136.236 111.339 136.879 111.864 136.929C112.39 136.979 112.873 136.417 112.944 135.673Z" fill="#FFB883"/>
<path d="M93.5569 122.95V159.479L65.2311 175.816L42.1734 162.111V128.167" fill="#4A42A4"/>
<path d="M65.2311 175.816V139.769L42.1734 129.557V162.111L65.2311 175.816Z" fill="#4A42A4"/>
<path d="M42.1734 126.277V129.557L44.3623 130.224L45.8185 128" fill="#9093D3"/>
<path d="M70.2396 112.432L93.5569 126.231L64.3963 143.059C63.5337 143.559 42.1363 129.567 42.1363 129.567L70.2396 112.432Z" fill="#9093D3"/>
<path d="M93.5569 126.231V122.95L89.3554 120.874L89.8748 126.703" fill="#9093D3"/>
<path d="M70.2396 109.152L93.5569 122.95L64.3963 139.769C63.5337 140.27 42.1363 126.277 42.1363 126.277L70.2396 109.152Z" fill="#A6ACED"/>
<path d="M89.4852 133.255V140.816L68.264 152.909V145.487L89.4852 133.255Z" fill="#7374B7"/>
<path d="M89.7634 144.551V152.112L68.5515 164.205V156.792L89.7634 144.551Z" fill="#7374B7"/>
<path d="M80.7796 142.792C80.8506 142.048 80.4824 141.405 79.9572 141.355C79.432 141.305 78.9486 141.867 78.8776 142.611C78.8066 143.355 79.1748 143.998 79.7 144.048C80.2252 144.099 80.7086 143.536 80.7796 142.792Z" fill="#FFB883"/>
<path d="M81.6571 153.691C81.7282 152.947 81.36 152.304 80.8347 152.254C80.3095 152.203 79.8261 152.766 79.7551 153.51C79.6841 154.254 80.0523 154.897 80.5775 154.947C81.1027 154.997 81.5861 154.435 81.6571 153.691Z" fill="#FFB883"/>
<path opacity="0.32" d="M167.275 149.796L141.082 164.372C145.46 167.152 163.073 176.604 167.302 179.579L194.376 162.269L189.915 151.436L167.275 149.796Z" fill="url(#paint3_linear)"/>
<path d="M188.913 165.456L207.983 154.346L183.126 140.075L163.639 150.101" fill="#B3B3B3"/>
<path d="M183.97 143.55C183.97 143.55 188.978 165.725 188.904 165.456C188.83 165.188 164.167 151.973 164.047 151.482C163.926 150.991 157.554 128.51 157.554 128.51L183.97 143.55Z" fill="white"/>
<path d="M176.772 139.454L181.911 136.359L188.023 141.456L183.422 143.383L176.772 139.454Z" fill="#FFE0CE"/>
<path d="M179.61 135.942C179.61 135.942 186.409 138.333 185.843 144.625C185.843 144.625 196.444 140.214 198.828 137.406C201.212 134.598 206.183 128.51 206.183 128.51V107.901C206.183 107.901 193.356 127.806 190.583 130.206C188.282 132.133 179.61 135.942 179.61 135.942Z" fill="#8CC63F"/>
<path d="M214.716 104.509C214.716 106.242 214.716 107.975 214.67 109.708C214.985 110.505 215.421 111.052 216.052 110.987C218.12 110.764 220.578 107.679 220.578 107.679L220.94 102.86L214.716 104.509Z" fill="#F9C7AF"/>
<path d="M224.78 92.5462C223.49 89.7662 220.949 89.238 218.287 89.7662C217.691 89.3333 217.017 89.0187 216.302 88.8395C215.17 88.5567 213.982 88.597 212.872 88.9558C211.762 89.3146 210.775 89.9774 210.023 90.8689C209.309 90.7812 208.584 90.8769 207.918 91.1469C205.942 91.9809 205.701 94.0845 206.165 95.9285C206.165 96.0027 206.165 96.0675 206.239 96.1417C206.443 99.4128 209.634 100.775 209.634 100.775L219.882 105.881C220.995 105.275 221.934 104.395 222.609 103.323C222.828 102.904 222.969 102.449 223.027 101.98C223.101 101.918 223.169 101.85 223.231 101.776C225.253 99.2367 226.189 95.5949 224.78 92.5462Z" fill="#895851"/>
<path d="M209.402 98.1711C209.661 99.2645 211.507 109.643 216.191 108.772C220.875 107.901 221.172 100.988 221.172 100.988C221.172 100.988 216.924 99.8391 216.59 98.2081C216.256 96.5772 216.423 95.9193 214.345 95.493C212.268 95.0668 208.966 96.3733 209.402 98.1711Z" fill="#FFE0CE"/>
<path d="M205.311 129.548L204.644 119.41L201.574 134.079L205.311 129.548Z" fill="#6D9928"/>
<path d="M205.664 146.83C205.256 146.876 204.86 146.996 204.495 147.182C203.382 147.72 202.158 148.109 201.054 148.665C199.222 149.74 197.728 151.307 196.741 153.187C196.519 153.678 195.573 155.448 196.064 155.967C196.556 156.486 197.669 155.967 197.669 155.967C197.669 155.967 197.613 156.987 197.966 157.218C198.318 157.45 199.413 156.607 199.413 156.607C199.413 156.607 199.895 157.848 200.572 157.533C201.249 157.218 202.427 155.458 202.427 155.458C202.427 155.458 202.297 156.82 202.891 156.82C203.484 156.82 206.007 153.354 206.007 153.354L211.34 150.574C211.34 150.574 209.763 148.869 209.606 148.721C208.885 148.003 208.036 147.428 207.101 147.025C206.644 146.848 206.152 146.781 205.664 146.83Z" fill="#FFE0CE"/>
<path d="M204.746 151.334C203.54 152.636 202.634 154.186 202.093 155.875C202.028 156.078 202.353 156.171 202.418 155.967C202.943 154.336 203.82 152.84 204.987 151.584C205.135 151.408 204.894 151.167 204.746 151.334Z" fill="#5C2D1D"/>
<path d="M203.187 150.287C201.254 152.032 199.885 154.313 199.255 156.838C199.243 156.881 199.248 156.927 199.27 156.967C199.291 157.006 199.328 157.035 199.371 157.047C199.414 157.059 199.46 157.054 199.499 157.032C199.538 157.01 199.567 156.974 199.579 156.931C200.194 154.463 201.53 152.233 203.419 150.528C203.586 150.379 203.345 150.12 203.187 150.287Z" fill="#5C2D1D"/>
<path d="M201.601 149.925C199.705 151.551 198.288 153.663 197.502 156.032C197.428 156.236 197.762 156.329 197.826 156.125C198.6 153.814 199.988 151.758 201.843 150.176C202 150.027 201.759 149.786 201.601 149.925Z" fill="#5C2D1D"/>
<path d="M229.38 129.27C229.38 129.27 227.423 141.752 224.789 144.625C222.155 147.498 210.598 152.622 210.598 152.622C210.598 152.622 207.704 147.535 204.634 146.33C204.634 146.33 216.423 139.714 216.692 138.463" fill="#8CC63F"/>
<path d="M219.688 120.911C219.493 123.608 219.215 126.286 218.825 128.955C218.611 131.353 218.173 133.727 217.517 136.044C216.655 138.5 213.371 139.954 211.284 141.307C209.198 142.66 206.86 144.087 204.625 145.496C204.115 145.802 204.625 146.608 205.089 146.293C207.704 144.699 210.292 143.065 212.852 141.391C214.586 140.251 217.23 139.074 218.148 137.082C219.15 134.913 219.307 131.976 219.66 129.668C220.096 126.777 220.411 123.868 220.587 120.949C220.662 120.318 219.734 120.318 219.688 120.911Z" fill="#6D9928"/>
<defs>
<linearGradient id="paint0_linear" x1="166.662" y1="216.673" x2="197.099" y2="163.672" gradientUnits="userSpaceOnUse">
<stop stop-opacity="0"/>
<stop offset="0.99" stop-color="#006837"/>
</linearGradient>
<linearGradient id="paint1_linear" x1="10066.8" y1="5283.54" x2="11216" y2="4197.56" gradientUnits="userSpaceOnUse">
<stop stop-opacity="0"/>
<stop offset="0.99" stop-color="#006837"/>
</linearGradient>
<linearGradient id="paint2_linear" x1="17877.8" y1="8975.95" x2="19020.5" y2="7233.83" gradientUnits="userSpaceOnUse">
<stop stop-opacity="0"/>
<stop offset="0.99" stop-color="#006837"/>
</linearGradient>
<linearGradient id="paint3_linear" x1="162.906" y1="169.08" x2="182.604" y2="145.516" gradientUnits="userSpaceOnUse">
<stop stop-opacity="0"/>
<stop offset="0.99" stop-color="#1A1A1A"/>
</linearGradient>
</defs>
</svg>
