<svg width="254" height="190" viewBox="0 0 254 190" fill="none" xmlns="http://www.w3.org/2000/svg">
<path d="M32.548 128.194L114.938 175.764L200.445 126.396L118.282 78.826L32.548 128.194Z" fill="white"/>
<path opacity="0.32" d="M143.982 143.133C144.039 143.133 181.349 123.753 181.393 123.791L120.207 86.507L85.5506 74.1L71.9403 98.3503C80.0786 103.233 135.305 139.289 143.982 143.133Z" fill="url(#paint0_linear)"/>
<path opacity="0.32" d="M75.4174 150.467C78.584 151.436 81.7507 152.367 85.025 153.051C87.0145 153.405 89.0239 153.635 91.0417 153.742L94.4237 151.449L117.857 134.045L101.308 122.575L57.608 142.842C62.8204 146.693 69.2867 148.586 75.4174 150.467Z" fill="url(#paint1_linear)"/>
<path d="M97.9387 115.552C95.5827 113.905 92.8087 113.018 89.813 113.652C86.6463 114.355 83.8597 116.362 80.6043 116.85C80.0913 116.926 78.0394 116.793 77.7227 117.091C68.6724 125.672 93.9677 124.767 93.9677 124.767C96.425 122.759 98.7367 120.777 101.175 118.744C100.44 117.084 99.199 116.438 97.9387 115.552Z" fill="#F8997C"/>
<path d="M86.0257 127.971L85.1263 153.811C85.0947 154.793 86.6147 154.793 86.6463 153.811L87.5457 127.971C87.5837 126.99 86.0637 126.99 86.0257 127.971Z" fill="#844040"/>
<path d="M105 141.797C100.394 137.288 95.9922 132.582 91.7953 127.68C91.162 126.933 90.0853 128.016 90.7186 128.757C94.9113 133.654 99.313 138.36 103.924 142.874C104.62 143.558 105.703 142.5 105 141.797Z" fill="#844040"/>
<path d="M80.75 125.577C77.1738 132.333 73.796 139.188 70.6167 146.142C70.2114 147.028 71.5287 147.801 71.934 146.908C75.0922 139.95 78.47 133.095 82.0674 126.344C82.5234 125.482 81.206 124.71 80.75 125.577Z" fill="#844040"/>
<path d="M100.751 117.971C99.2259 120.058 97.08 121.61 94.62 122.404C91.162 123.443 86.1334 122.949 84.3157 119.39C81.0097 112.911 84.113 104.823 80.6234 98.4897C80.2167 97.6895 79.6462 96.9839 78.949 96.4187C78.2517 95.8535 77.4433 95.4413 76.5764 95.209C74.3154 94.7213 72.7764 96.3997 71.9404 98.3757C70.471 101.91 70.5217 106.311 70.5914 110.08C70.595 113.123 70.8194 116.163 71.2627 119.174C71.2627 119.174 73.378 131.803 89.87 128.415C92.7209 127.905 95.4616 126.904 97.9704 125.457C99.2515 124.729 100.375 123.754 101.276 122.588C102.29 121.144 101.625 119.421 100.751 117.971Z" fill="#00AB84"/>
<path d="M152.773 34.0607C152.773 34.0607 150.708 35.53 150.239 42.8703C149.771 50.2107 149.315 54.8087 148.757 56.1007C148.2 57.3927 140.727 62.225 140.727 62.225L144.413 66.538L155.667 59.6917" fill="#E6E6E6"/>
<path d="M165.306 87.818V113.639H167.219L167.631 87.153" fill="#895851"/>
<path d="M176.174 77.8937L180 105.963H178.087L174.091 78.9323" fill="#895851"/>
<path d="M137.579 97.5333C137.579 97.5333 135.799 103.373 135.4 103.968C135.001 104.563 129.168 108.401 129.263 109.611C129.358 110.821 131.562 111.296 132.937 111.194C134.311 111.093 142.228 107.793 142.722 106.824C143.216 105.855 143.216 97.5397 143.216 97.5397L137.579 97.5333Z" fill="#5C2D1D"/>
<path d="M146.965 104.354C146.965 104.354 145.185 110.194 144.786 110.789C144.387 111.384 138.554 115.222 138.649 116.432C138.744 117.642 140.948 118.117 142.323 118.015C143.697 117.914 151.614 114.614 152.108 113.645C152.602 112.676 152.602 104.361 152.602 104.361L146.965 104.354Z" fill="#5C2D1D"/>
<path d="M177.213 51.2049C176.706 52.6236 173.844 74.1569 173.844 74.1569L170.968 73.1943L174.718 51.0909" fill="#895851"/>
<path d="M176.174 77.8936L176.225 74.423L173.16 75.4743L174.091 78.9323" fill="#A9CBF8"/>
<path d="M169.233 72.5229C169.233 72.5229 176.941 75.4806 176.2 78.3939C175.459 81.3073 169.246 88.4386 165.3 87.8243C161.354 87.2099 156.547 83.7773 156.547 83.7773" fill="#A9CBF8"/>
<path d="M169.233 68.9763C169.233 68.9763 176.941 71.934 176.2 74.8473C175.459 77.7606 169.246 84.8667 165.3 84.2777C161.354 83.6887 156.547 80.2306 156.547 80.2306" fill="#CBE3FF"/>
<path d="M172.267 41.9393C172.267 41.9393 179.715 43.795 180.5 48.0827C181.285 52.3703 181.475 60.2743 170.899 57.2027C160.322 54.131 165.3 46.1953 165.3 46.1953" fill="#CBE3FF"/>
<path d="M154.255 59.014C154.255 59.014 139.01 69.4767 137.041 74.803C135.071 80.1294 133.785 101.118 133.785 101.118C133.785 101.118 139.118 104.43 145.325 102.48L149.999 78.698C149.999 78.698 161.082 73.9607 163.033 68.0454C164.983 62.13 162.355 51.0784 162.355 51.0784" fill="#895851"/>
<path d="M162.767 65.1383C162.767 65.1383 147.567 75.601 145.584 80.9273C143.602 86.2536 142.329 107.242 142.329 107.242C142.329 107.242 147.662 110.555 153.868 108.604L158.542 84.8223C158.542 84.8223 169.626 80.085 171.576 74.1696C173.527 68.2543 170.899 57.2026 170.899 57.2026" fill="#895851"/>
<path d="M168.853 65.36C171.456 59.0266 173.806 40.66 172.235 38.665C170.392 36.2963 159.917 32.433 159.917 32.433C158.683 32.0978 157.386 32.0716 156.14 32.3566C154.894 32.6416 153.738 33.229 152.773 34.067C150.239 36.2266 152.019 52.991 152.773 61.4016C157.212 65.5056 162.463 66.5 168.853 65.36Z" fill="#E6E6E6"/>
<path d="M157.928 67.2537C155.186 69.996 152.228 72.6307 149.695 75.5504C147.478 78.0837 146.604 81.301 145.743 84.493C143.735 91.922 142.842 99.5854 141.943 107.211C141.886 107.673 142.614 107.667 142.665 107.211C143.52 99.8767 144.387 92.511 146.249 85.348C147.168 81.8394 148.08 78.3434 150.594 75.6137C153.108 72.884 155.813 70.3697 158.422 67.7604C158.469 67.6915 158.491 67.6086 158.483 67.5256C158.476 67.4426 158.44 67.3647 158.382 67.305C158.324 67.2454 158.247 67.2077 158.164 67.1983C158.081 67.189 157.998 67.2085 157.928 67.2537Z" fill="#5C2D1D"/>
<path d="M152.12 66.3987C152.12 66.3987 144.723 68.1783 144.97 68.8433C145.217 69.5083 147.643 68.8433 147.643 68.8433C147.643 68.8433 142.684 70.9143 143.697 72.9663C144.33 74.2963 149.061 73.3907 150.341 72.9663C151.62 72.542 155.103 69.1663 155.103 69.1663L152.12 66.3987Z" fill="#FFD8C6"/>
<path d="M165.3 46.1953C165.3 46.1953 163.71 57.7093 162.501 59.261C161.291 60.8126 148.757 66.3353 148.757 66.3353C148.757 66.3353 152.849 68.172 152.754 72.5166C152.754 72.5166 168.536 68.5773 170.094 64.9546C171.652 61.332 176.263 43.0666 172.235 38.6333C168.207 34.2 165.3 46.1953 165.3 46.1953Z" fill="#E6E6E6"/>
<path d="M156.009 32.3887C156.009 32.3887 153.83 37.4554 158.542 39.3554C163.254 41.2554 168.467 36.1 168.467 36.1C168.467 36.1 161.462 31.6667 156.009 32.3887Z" fill="#6CA3D8"/>
<path d="M164.128 34.0099L165.933 34.7573L160.936 38.4496L160.031 36.7333L157.428 37.2146C157.428 37.2146 157.96 32.6926 158.061 32.5913C158.162 32.4899 164.128 34.0099 164.128 34.0099Z" fill="#4687BC"/>
<path d="M169.86 25.137C169.334 22.8063 167.479 21.9703 165.382 21.9703C165.006 21.53 164.548 21.1665 164.033 20.9C162.437 20.14 160.233 20.2223 158.903 21.4193C158.373 21.235 157.804 21.1892 157.25 21.2863C155.604 21.5967 155.078 23.1863 155.129 24.6493C155.129 24.7063 155.129 24.7633 155.129 24.8267C154.755 27.36 156.959 28.918 156.959 28.918L163.926 34.4977C164.872 34.2153 165.731 33.6965 166.421 32.9903C166.657 32.7044 166.839 32.3783 166.959 32.0277C167.027 31.9915 167.09 31.9491 167.149 31.901C169.1 30.324 170.436 27.6893 169.86 25.137Z" fill="#895851"/>
<path d="M157.2 26.9167C157.2 27.7907 156.927 36.024 160.645 36.1253C164.363 36.2267 165.712 30.9953 165.712 30.9953C165.712 30.9953 162.659 29.4247 162.659 28.1517C162.659 26.8787 162.906 26.372 161.392 25.7133C159.879 25.0547 157.168 25.4537 157.2 26.9167Z" fill="#FFE0CE"/>
<path d="M182.799 95.7473C182.799 95.7473 182.223 123.025 181.393 123.804C180.563 124.583 176.909 98.6607 176.909 98.6607" fill="#844040"/>
<path d="M86.4499 71.9277C86.4499 71.9277 77.9126 108.788 79.3819 109.763C80.8513 110.738 91.3203 75.3224 91.3203 75.3224" fill="#844040"/>
<path d="M144.432 109.693C144.995 111.308 143.057 142.722 143.982 143.152C144.907 143.583 149.847 110.048 149.847 110.048" fill="#844040"/>
<path d="M188.898 89.604V95.2153H187.004L186.352 92.1247" fill="#A85C5C"/>
<path d="M78.3307 71.8264V66.3164L80.6487 69.3691L78.3307 71.8264Z" fill="#A85C5C"/>
<path d="M80.5727 67.6083L109.991 50.6223C111.034 50.0203 112.217 49.7034 113.421 49.7034C114.625 49.7034 115.807 50.0203 116.85 50.6223L186.618 90.9023C187.315 91.3048 187.894 91.8836 188.296 92.5807C188.699 93.2777 188.911 94.0684 188.911 94.8733C188.911 95.6782 188.699 96.4689 188.296 97.166C187.894 97.863 187.315 98.4419 186.618 98.8443L157.149 115.862C156.152 116.438 155.02 116.741 153.868 116.741C152.717 116.741 151.585 116.438 150.588 115.862L80.5727 75.4363C79.8863 75.0391 79.3164 74.4684 78.9202 73.7814C78.524 73.0944 78.3154 72.3153 78.3154 71.5223C78.3154 70.7293 78.524 69.9502 78.9202 69.2632C79.3164 68.5762 79.8863 68.0055 80.5727 67.6083Z" fill="#A85C5C"/>
<path d="M80.2433 62.5987L109.662 45.6001C110.706 44.9957 111.891 44.6775 113.097 44.6775C114.304 44.6775 115.489 44.9957 116.533 45.6001L186.301 85.8801C186.998 86.2825 187.577 86.8614 187.98 87.5584C188.382 88.2555 188.594 89.0462 188.594 89.8511C188.594 90.656 188.382 91.4467 187.98 92.1437C187.577 92.8408 186.998 93.4196 186.301 93.8221L156.82 110.833C155.822 111.409 154.691 111.712 153.539 111.712C152.387 111.712 151.256 111.409 150.258 110.833L80.2433 70.4267C79.5569 70.0296 78.987 69.4589 78.5908 68.7719C78.1946 68.0849 77.9861 67.3058 77.9861 66.5127C77.9861 65.7197 78.1946 64.9406 78.5908 64.2536C78.987 63.5666 79.5569 62.9959 80.2433 62.5987Z" fill="#C96F6F"/>
<path d="M118.585 73.0993C119.035 73.2133 132.417 81.3326 132.417 81.3326L152 70.2176L138.567 62.225L118.585 73.0993Z" fill="white"/>
<path d="M117.103 82.137C117.553 82.251 130.935 90.3704 130.935 90.3704L150.505 79.2617L137.085 71.269L117.103 82.137Z" fill="#00AB84"/>
<path d="M112.17 130.087C112.17 130.087 112.037 132.392 112.746 133.038C113.455 133.684 117.306 131.892 118.332 132.525C119.358 133.158 114.469 137.782 112.746 138.035C111.023 138.288 109.427 135.837 109.427 135.837V139.333L107.477 140.442L106.045 139.587L106.47 130.087H112.17Z" fill="#8787D1"/>
<path d="M105.577 131.784C107.629 133.551 109.833 133.494 112.379 132.417C114.209 129.2 116.362 109.617 111.79 106.451C106.875 103.088 99.1926 103.689 97.9069 104.057L79.0843 107.141C77.6403 109.598 81.4656 122.468 89.8509 122.829C98.2363 123.19 103.544 120.042 103.544 120.042L105.577 131.784Z" fill="#124577"/>
<path d="M98.2617 78.0013C97.3707 78.3884 96.6303 79.0555 96.1527 79.9013V79.9647C94.829 81.0477 94.62 83.0237 93.214 83.999C93.214 84.037 91.8903 84.968 91.8777 85.006C91.865 85.044 92.0043 83.1947 91.998 83.2073C91.542 84.474 91.0923 85.7407 90.7313 87.0073C90.7944 87.0463 90.8626 87.0762 90.934 87.096L90.7883 87.1657L90.6617 87.2417C90.6446 87.3057 90.6128 87.3647 90.5688 87.4142C90.5248 87.4637 90.4699 87.5022 90.4083 87.5267C90.3544 87.7127 90.3556 87.9104 90.4119 88.0957C90.4681 88.2811 90.5769 88.4461 90.7251 88.5708C90.8733 88.6955 91.0545 88.7746 91.2467 88.7983C91.4389 88.8221 91.6339 88.7896 91.808 88.7047L96.064 86.6273C96.6304 86.5057 97.1871 86.3427 97.7297 86.1397C97.7297 85.6963 97.7993 85.253 97.8437 84.8097C98.1795 84.2912 98.3814 83.6975 98.4312 83.0818C98.4809 82.4661 98.377 81.8476 98.1287 81.282C98.1505 81.2534 98.176 81.2278 98.2047 81.206V81.1617C98.5564 80.9152 98.8557 80.6012 99.0851 80.2381C99.3145 79.875 99.4695 79.4699 99.541 79.0463C99.5473 78.4573 98.9393 77.691 98.2617 78.0013Z" fill="#F7931E"/>
<path d="M92.8467 82.0293C92.8467 82.0293 97.698 85.044 98.2047 87.552C98.2047 87.552 94.7973 94.9556 95.038 95.247C98.8887 100.269 87.343 92.0803 87.343 92.0803C87.343 92.0803 89.6674 85.0376 92.8467 82.0293Z" fill="#00AB84"/>
<path d="M103.867 83.866C104.266 87.2163 99.9907 91.884 98.1667 92.7833C95.6967 94.0183 94.734 83.7457 83.8787 83.79C83.1757 83.79 79.6544 82.289 77.805 86.9187C75.9557 91.5483 77.805 104.817 79.04 107.128C80.1294 109.168 87.3684 114.095 97.7107 108.826L97.8627 104.044C97.8627 104.044 103.962 103.911 107.198 99.427C110.213 95.2407 111.999 88.958 111.714 85.8737C109.313 84.816 106.292 83.0807 103.867 83.866Z" fill="#00AB84"/>
<path d="M92.8467 82.0293C92.8467 82.0293 97.698 85.044 98.2047 87.552C98.2047 87.552 94.7973 94.9556 95.038 95.247C98.8887 100.269 87.343 92.0803 87.343 92.0803C87.343 92.0803 89.6674 85.0376 92.8467 82.0293Z" fill="#8787D1"/>
<path d="M99.3763 69.312L112.258 72.1557L110.086 90.2247L97.698 86.2093" fill="#124577"/>
<path d="M112.67 79.7999C112.637 79.6559 112.574 79.5207 112.484 79.4034C112.394 79.2862 112.28 79.1897 112.15 79.1205C112.019 79.0514 111.876 79.0112 111.728 79.0028C111.581 78.9943 111.433 79.0178 111.296 79.0716C111.231 78.8196 111.084 78.5965 110.878 78.4383C110.71 78.3128 110.509 78.2408 110.3 78.2318C110.091 78.2227 109.884 78.277 109.706 78.3876C109.594 78.4513 109.494 78.5326 109.408 78.6283L109.345 78.5586C109.204 78.3925 109.016 78.2728 108.806 78.2152C108.596 78.1576 108.373 78.1647 108.167 78.2356C108.045 78.2915 107.935 78.3712 107.844 78.4699C107.724 77.8793 107.572 77.2957 107.388 76.7219C107.217 76.1456 106.932 75.0879 106.223 74.9613C105.76 74.8789 105.545 75.2146 105.45 75.5946C105.333 75.8669 105.315 76.1718 105.399 76.4559C105.432 76.8455 105.489 77.2326 105.57 77.6149C105.634 78.1596 105.691 78.7043 105.741 79.2489C105.647 79.2483 105.556 79.2847 105.488 79.3503C105.15 79.5996 104.9 79.9501 104.775 80.351C104.65 80.7519 104.655 81.1822 104.791 81.5796C105.098 82.7204 105.523 83.8263 106.058 84.8793C106.079 84.9259 106.11 84.9675 106.149 85.0017C106.187 85.0358 106.232 85.0617 106.28 85.0778C106.329 85.0938 106.381 85.0996 106.432 85.0949C106.483 85.0902 106.532 85.075 106.577 85.0503L106.634 85.253C106.655 85.3447 106.708 85.4261 106.784 85.4826C106.859 85.5392 106.952 85.5673 107.046 85.562C107.14 85.5567 107.229 85.5183 107.297 85.4536C107.366 85.389 107.409 85.3022 107.42 85.2086V85.1326C107.459 85.1645 107.504 85.1881 107.553 85.2023L107.584 85.6456C107.584 86.0509 108.218 86.051 108.351 85.7153L108.389 86.0383C108.439 86.488 109.149 86.4373 109.174 85.994V85.633C109.24 85.6301 109.306 85.6128 109.365 85.5822C109.424 85.5515 109.475 85.5083 109.516 85.4556C109.584 85.5441 109.684 85.6031 109.795 85.6203C109.848 85.6635 109.913 85.691 109.981 85.7C110.049 85.7089 110.118 85.6989 110.181 85.671V85.766C110.215 85.8728 110.288 85.963 110.385 86.0182C110.483 86.0734 110.598 86.0896 110.707 86.0636C110.707 86.108 110.707 86.1523 110.707 86.1966C110.707 86.7033 111.511 86.773 111.498 86.26C111.498 85.2424 111.471 84.2248 111.416 83.2073C111.459 83.1853 111.498 83.1552 111.53 83.1186C112.36 82.3016 113.069 80.9336 112.67 79.7999ZM108.414 79.0336C108.446 79.0121 108.483 78.9981 108.521 78.9927C108.56 78.9872 108.599 78.9904 108.636 79.0019C108.615 79.0315 108.598 79.0634 108.585 79.0969H108.344C108.363 79.0659 108.386 79.038 108.414 79.0146V79.0336Z" fill="#F7931E"/>
<path d="M89.6673 71.5666C89.6673 71.6806 90.3387 78.4636 88.8187 79.9583C87.2987 81.4529 83.2643 80.8386 82.2637 79.2046C81.263 77.5706 80.0343 75.4046 81.1047 72.8713C82.175 70.3379 89.49 69.8946 89.6673 71.5666Z" fill="#F7931E"/>
<path d="M87.5014 76C87.5534 75.8814 87.5703 75.7503 87.55 75.6223C87.5298 75.4944 87.4734 75.3749 87.3874 75.278C86.9215 74.7014 86.2741 74.2996 85.5507 74.138C85.2228 74.0603 84.8778 74.1057 84.5812 74.2657C84.2846 74.4257 84.0572 74.689 83.942 75.0057C83.4797 76.5447 85.975 77.0007 86.9947 77.1274C87.1739 77.1257 87.3453 77.0538 87.472 76.927C87.5988 76.8003 87.6707 76.6289 87.6724 76.4497C87.6767 76.2831 87.6153 76.1216 87.5014 76Z" fill="#FFE8E6"/>
<path d="M103.867 83.866C104.266 87.2163 99.9907 91.884 98.1667 92.7833C95.6967 94.0183 94.734 83.7457 83.8787 83.79C83.1757 83.79 79.6544 82.289 77.805 86.9187C75.9557 91.5483 77.805 104.817 79.04 107.128C80.1294 109.168 87.3684 114.095 97.7107 108.826L97.8627 104.044C97.8627 104.044 103.962 103.911 107.198 99.427C110.213 95.2407 111.999 88.958 111.714 85.8737C109.313 84.816 106.292 83.0807 103.867 83.866Z" fill="#8787D1"/>
<path d="M103.043 102.872C100.23 103.877 97.1606 103.911 94.3254 102.969C91.4902 102.026 89.0522 100.162 87.3999 97.6727C87.1846 97.3433 86.6463 97.6727 86.8679 97.983C88.5896 100.596 91.1374 102.556 94.104 103.55C97.0707 104.544 100.285 104.515 103.233 103.468C103.575 103.335 103.417 102.739 103.043 102.872Z" fill="white"/>
<path d="M96.9379 91.637C96.3841 90.3484 95.5639 89.1915 94.5313 88.2424C93.3469 87.1657 91.884 86.4754 90.649 85.4684C90.402 85.2657 90.0156 85.6203 90.2943 85.823C91.4596 86.773 92.8276 87.438 93.974 88.4197C95.0704 89.3697 95.9367 90.5565 96.5073 91.8903C96.634 92.188 97.0646 91.9347 96.9379 91.637Z" fill="white"/>
<path d="M89.8257 72.523L87.666 73.6567C87.666 73.6567 89.338 79.99 89.8383 81.6874C90.3387 83.3847 88.331 85.7027 81.8077 85.8737C75.2843 86.0447 75.6137 76.171 77.121 72.485C78.6283 68.799 83.144 67.127 86.8237 68.134C87.7987 68.3276 88.659 68.8955 89.2202 69.716C89.7814 70.5365 89.9988 71.5442 89.8257 72.523Z" fill="#B24D16"/>
<path d="M101.485 119.447C101.419 119.283 101.313 119.14 101.176 119.029C101.038 118.918 100.876 118.844 100.702 118.814C100.528 118.783 100.35 118.797 100.183 118.855C100.017 118.913 99.8678 119.012 99.75 119.143C98.3601 120.663 96.5923 121.789 94.6264 122.404C91.1684 123.443 86.1397 122.949 84.322 119.39C81.0287 112.936 84.1004 104.861 80.6677 98.5656C80.0763 97.4323 79.1846 96.4836 78.09 95.8233C74.993 94.0373 72.9284 95.9943 71.9404 98.3566C70.471 101.891 70.5217 106.292 70.5914 110.061C70.595 113.104 70.8194 116.144 71.2627 119.155C71.2627 119.155 73.378 131.784 89.87 128.396C92.7209 127.886 95.4616 126.885 97.9704 125.438C99.2515 124.71 100.375 123.735 101.276 122.569C101.572 122.108 101.746 121.581 101.782 121.035C101.819 120.489 101.717 119.942 101.485 119.447Z" fill="#00AB84"/>
<path d="M164.394 45.3213C164.242 47.5127 164.097 49.7103 163.919 51.9017C163.717 54.3527 163.394 56.7213 161.874 58.7353C159.271 62.187 154.951 63.4853 150.98 64.657C150.939 64.6682 150.9 64.6875 150.866 64.7138C150.832 64.7401 150.803 64.7729 150.781 64.8102C150.738 64.8856 150.726 64.9752 150.749 65.0592C150.772 65.1431 150.827 65.2147 150.902 65.258C150.978 65.3014 151.067 65.313 151.151 65.2903C155.249 64.0807 159.689 62.7127 162.38 59.147C163.539 57.5197 164.235 55.6091 164.394 53.618C164.724 50.8757 164.838 48.0953 165.028 45.3403C165.053 44.916 164.42 44.916 164.394 45.3213Z" fill="#B6BBBF"/>
<path d="M152.969 44.4664L152.437 61.066C152.437 61.4714 153.07 61.4714 153.07 61.066L153.602 44.4664C153.615 44.061 152.982 44.061 152.969 44.4664Z" fill="#B6BBBF"/>
<path opacity="0.32" d="M151.031 101.865C152.228 102.233 153.431 102.594 154.666 102.841C155.418 102.974 156.178 103.061 156.94 103.1L158.207 102.233L167.073 95.6524L160.303 93.4041L144.292 98.9837C146.3 100.44 148.713 101.156 151.031 101.865Z" fill="url(#paint2_linear)"/>
<path d="M163.533 88.502C161.908 88.425 160.353 87.8227 159.1 86.7857V91.5167C159.1 92.8202 159.617 94.0702 160.539 94.9919C161.461 95.9136 162.711 96.4314 164.014 96.4314C165.318 96.4314 166.568 95.9136 167.489 94.9919C168.411 94.0702 168.929 92.8202 168.929 91.5167V86.7034C167.2 87.4 165.3 88.6667 163.533 88.502Z" fill="#00AB84"/>
<path d="M163.983 89.357C166.697 89.357 168.897 88.1916 168.897 86.754C168.897 85.3164 166.697 84.151 163.983 84.151C161.268 84.151 159.068 85.3164 159.068 86.754C159.068 88.1916 161.268 89.357 163.983 89.357Z" fill="#5ED18D"/>
<path d="M163.983 87.1974C163.983 87.1974 160.645 86.7034 159.758 81.301C159.758 81.301 162.608 82.8717 163.983 87.1974Z" fill="#5ED18D"/>
<path d="M164.477 86.507C164.477 86.507 160.677 79.629 164.477 75.012C165.646 78.7544 165.646 82.7646 164.477 86.507Z" fill="#5ED18D"/>
<path d="M163.983 82.1877C163.983 82.1877 160.645 81.6937 159.758 76.2914C159.758 76.2914 162.608 77.8621 163.983 82.1877Z" fill="#5ED18D"/>
<path d="M164.388 84.3917C164.388 84.3917 163.552 81.1237 168.188 78.2167C168.194 78.2167 167.833 81.453 164.388 84.3917Z" fill="#5ED18D"/>
<path d="M163.983 89.357C166.697 89.357 168.897 88.1916 168.897 86.754C168.897 85.3164 166.697 84.151 163.983 84.151C161.268 84.151 159.068 85.3164 159.068 86.754C159.068 88.1916 161.268 89.357 163.983 89.357Z" fill="#146666"/>
<path d="M163.983 87.1974C163.983 87.1974 160.645 86.7034 159.758 81.301C159.758 81.301 162.608 82.8717 163.983 87.1974Z" fill="#5ED18D"/>
<path d="M164.477 86.507C164.477 86.507 160.677 79.629 164.477 75.012C165.646 78.7544 165.646 82.7646 164.477 86.507Z" fill="#5ED18D"/>
<path d="M163.983 82.1877C163.983 82.1877 160.645 81.6937 159.758 76.2914C159.758 76.2914 162.608 77.8621 163.983 82.1877Z" fill="#5ED18D"/>
<path d="M164.388 84.3917C164.388 84.3917 163.552 81.1237 168.188 78.2167C168.194 78.2167 167.833 81.453 164.388 84.3917Z" fill="#5ED18D"/>
<path opacity="0.32" d="M95.6333 68.8243C96.8303 69.1916 98.0337 69.5526 99.2687 69.7997C100.022 69.9516 96.9253 70.0023 97.6853 70.0593L98.857 69.236L111.669 62.6177L102.03 58.558L88.8947 65.949C90.8453 67.3993 93.29 68.115 95.6333 68.8243Z" fill="url(#paint3_linear)"/>
<path d="M98.8634 47.785V61.4334C98.8634 61.4334 111.98 62.1617 111.98 61.4334V47.785" fill="#00AB84"/>
<path d="M105.425 64.3087C109.045 64.3087 111.98 62.9675 111.98 61.313C111.98 59.6586 109.045 58.3174 105.425 58.3174C101.804 58.3174 98.8696 59.6586 98.8696 61.313C98.8696 62.9675 101.804 64.3087 105.425 64.3087Z" fill="#00AB84"/>
<path d="M105.425 50.7806C109.045 50.7806 111.98 49.4394 111.98 47.785C111.98 46.1305 109.045 44.7893 105.425 44.7893C101.804 44.7893 98.8696 46.1305 98.8696 47.785C98.8696 49.4394 101.804 50.7806 105.425 50.7806Z" fill="#3129A3"/>
<path d="M101.333 50.1157H101.378C101.631 50.2044 101.884 50.2804 102.144 50.35L100.358 35.4097C100.205 35.3519 100.039 35.3373 99.8781 35.3675C99.7173 35.3976 99.5678 35.4714 99.446 35.5807L101.276 50.0714L101.333 50.1157Z" fill="#F78B72"/>
<path d="M103.373 50.578L103.93 36.556C103.79 36.4704 103.629 36.425 103.464 36.425C103.3 36.425 103.139 36.4704 102.999 36.556L102.543 50.4386C102.817 50.5009 103.094 50.5474 103.373 50.578Z" fill="#F78B72"/>
<path d="M105.425 50.7807L107.223 36.1633L110.871 38.0633L109.396 50.3437C108.109 50.7271 106.764 50.8752 105.425 50.7807Z" fill="#FCB749"/>
<defs>
<linearGradient id="paint0_linear" x1="117.865" y1="124.221" x2="143.349" y2="82.6875" gradientUnits="userSpaceOnUse">
<stop stop-opacity="0"/>
<stop offset="0.99" stop-color="#006837"/>
</linearGradient>
<linearGradient id="paint1_linear" x1="82.8875" y1="145.203" x2="93.2515" y2="124.609" gradientUnits="userSpaceOnUse">
<stop stop-opacity="0"/>
<stop offset="0.99" stop-color="#006837"/>
</linearGradient>
<linearGradient id="paint2_linear" x1="152.716" y1="100.105" x2="161.152" y2="92.1754" gradientUnits="userSpaceOnUse">
<stop stop-opacity="0"/>
<stop offset="0.99" stop-color="#552800"/>
</linearGradient>
<linearGradient id="paint3_linear" x1="3587.77" y1="1276.43" x2="3715.6" y2="1038.33" gradientUnits="userSpaceOnUse">
<stop stop-opacity="0"/>
<stop offset="0.99" stop-color="#552800"/>
</linearGradient>
</defs>
</svg>
