<svg width="254" height="190" viewBox="0 0 254 190" fill="none" xmlns="http://www.w3.org/2000/svg">
<path d="M43.548 130.194L125.938 177.764L211.445 128.396L129.282 80.826L43.548 130.194Z" fill="white"/>
<path style="mix-blend-mode:multiply" d="M80.94 133.317C80.7818 133.161 80.6645 132.968 80.5982 132.756C80.5319 132.544 80.5188 132.319 80.56 132.101L80.3003 131.866L63.2637 141.702L81.035 150.961L90.2057 140.828C86.5703 139.086 83.714 136.23 80.94 133.317Z" fill="url(#paint0_linear)"/>
<path opacity="0.32" d="M141.784 144.261L130.593 151.785L149.467 160.588L163.976 152.386L168.365 145.983C167.947 145.743 142.196 144.514 141.784 144.261Z" fill="url(#paint1_linear)"/>
<path opacity="0.32" d="M127.851 94.8353L108.895 105.786L126.667 115.045L137.06 103.55" fill="url(#paint2_linear)"/>
<path d="M116.179 10.146L112.423 9.27832L70.889 33.1993L71.573 115.001L73.131 115.868" fill="#32A05C"/>
<path opacity="0.36" d="M116.179 10.146L112.423 9.27832L70.889 33.1993L71.573 115.001L73.131 115.868" fill="#606060"/>
<path d="M116.179 10.146L116.654 90.8707L73.131 115.868V34.485L116.179 10.146Z" fill="#32A05C"/>
<path d="M114.646 14.5223V89.7243L75.107 111.625V36.8727L114.646 14.5223Z" fill="white"/>
<path d="M101.232 35.0423V46.4423L108.762 42.8323V33.1993" fill="#32A05C"/>
<path d="M109.326 30.4443L101.232 35.0423C101.232 35.0423 100.814 42.6423 102.974 44.7957L110.339 41.1667C110.339 41.1667 107.8 35.5237 109.326 30.4443Z" fill="#32A05C"/>
<path d="M81.5543 48.7983V63.4853L91.257 58.8303V46.417" fill="#F8997C"/>
<path d="M91.979 42.8704L81.5543 48.7667C81.5543 48.7667 81.0223 58.5517 83.8027 61.332L93.3027 56.6454C93.3027 56.6454 90.0157 49.4 91.979 42.8704Z" fill="#32A05C"/>
<path d="M102.043 49.894V61.294L109.573 57.684V48.051" fill="#32A05C"/>
<path d="M110.137 45.296L102.043 49.894C102.043 49.894 101.625 57.494 103.784 59.6474L111.15 56.012C111.15 56.012 108.61 50.3754 110.137 45.296Z" fill="#32A05C"/>
<path d="M102.48 64.6063V76.0063L110.01 72.3963V62.7633" fill="#32A05C"/>
<path d="M110.567 60.0083L102.48 64.6C102.48 64.6 102.062 72.2 104.221 74.3533L111.587 70.718C111.587 70.718 109.047 65.0876 110.567 60.0083Z" fill="#32A05C"/>
<path d="M96.7607 64.2581L81.035 73.0234V79.7811L96.7607 71.2121V64.2581Z" fill="#32A05C"/>
<path d="M130.011 92.6377L126.736 92.15C126.825 92.5914 126.807 93.0474 126.686 93.481C126.565 93.9146 126.344 94.3135 126.04 94.6454C125.235 95.513 124.019 95.912 123.139 96.672C122.423 97.3054 121.34 98.42 121.651 99.4903C122.069 100.941 124.228 100.884 125.096 100.573C125.729 100.352 128.44 98.1034 130.004 96.7734L130.011 92.6377Z" fill="#1C1B19"/>
<path d="M137.06 99.9399H132.702C132.855 100.364 132.905 100.817 132.848 101.264C132.792 101.711 132.632 102.138 132.379 102.511C131.708 103.487 130.568 104.031 129.808 104.937C129.175 105.678 128.288 106.926 128.75 107.945C129.384 109.32 131.505 108.946 132.316 108.509C132.949 108.161 135.856 104.912 137.06 103.544V99.9399Z" fill="#1C1B19"/>
<path d="M105.577 42.8134C105.577 42.8134 101.713 40.1787 101.289 40.7614C100.656 41.667 103.93 43.1997 103.93 43.1997C103.93 43.1997 102.974 45.201 103.658 46.3094C104.342 47.4177 108.933 48.0067 108.933 48.0067L109.997 45.7014C109.416 45.5534 108.896 45.228 108.509 44.7704C108.256 44.3017 107.059 42.636 106.21 42.446C105.361 42.256 104.038 43.5354 104.462 44.2574C104.886 44.9794 106.033 44.061 106.033 44.061" fill="#FFC4B0"/>
<path d="M123.88 55.024C123.88 55.024 123.506 72.561 123.88 77.102C124.254 81.643 125.147 93.5244 125.147 93.5244C125.147 93.5244 126.641 95.6524 130.581 93.5244V56.3034L123.88 55.024Z" fill="#C24327"/>
<path d="M129.339 56.2336C129.339 56.2336 130.669 83.3656 131.03 88.8883C131.41 94.6579 131.828 100.833 131.828 100.833C131.828 100.833 134.552 102.974 137.782 100.269C137.782 100.269 137.674 81.9026 137.579 78.8689C137.452 74.5939 136.718 58.7036 135.679 55.6129" fill="#C24327"/>
<path d="M123.5 48.0067L123.975 57.1077C128.269 59.3687 131.284 59.299 135.647 57.8234L136.578 41.4454C136.578 41.4454 137.566 39.4947 131.29 37.145H128.079C128.079 37.145 125.546 36.9107 124.38 37.9557C123.215 39.0007 117.211 45.8787 116.78 46.2207C116.35 46.5627 108.452 44.0294 108.452 44.0294C108.452 44.0294 106.603 46.8604 107.008 48.3614C107.008 48.3614 114.564 52.6364 117.775 51.585C122.297 50.1474 123.5 48.0067 123.5 48.0067Z" fill="#6A5FB7"/>
<path d="M126.857 31.8123C126.857 31.8123 126.337 38.646 129.517 38.8107C131.879 38.931 132.778 36.2773 132.886 35.6883C132.886 35.6883 133.589 31.008 130.245 30.7737C126.901 30.5393 126.857 31.8123 126.857 31.8123Z" fill="#FFC4B0"/>
<path d="M132.265 28.918C132.164 28.8167 132.075 27.987 129.884 27.892C129.328 27.8305 128.767 27.9485 128.282 28.2288C127.798 28.5092 127.416 28.9371 127.192 29.45C126.878 29.5545 126.609 29.7623 126.429 30.0395C126.248 30.3167 126.167 30.647 126.198 30.9763C126.331 32.034 126.831 32.566 128.288 32.699C129.745 32.832 130.973 32.7307 131.404 33.4273C131.835 34.124 131.037 34.4407 131.537 34.96C132.037 35.4793 132.436 33.858 132.949 34.523C133.462 35.188 131.803 36.3027 132.101 36.3723C132.322 36.4435 132.525 36.5624 132.696 36.7207C133.774 35.358 134.411 33.6985 134.52 31.9643C134.78 28.918 132.265 28.918 132.265 28.918Z" fill="#36393E"/>
<path d="M133.633 38.152C133.633 38.152 137.984 39.2096 140.872 45.1693C143.76 51.129 143.406 57.4623 141.176 58.3616C138.947 59.261 131.417 58.8493 131.296 58.3616C131.176 57.874 130.568 53.8396 131.296 53.7193C132.025 53.599 137.864 53.599 137.864 53.599C137.864 53.599 137.319 50.8883 135.217 50.2866" fill="#6A5FB7"/>
<path d="M124.691 59.1914C124.691 59.1914 124.659 51.1037 124.691 51.0404C124.722 50.977 130.555 51.7687 130.555 51.7687V60.3314L124.691 59.1914Z" fill="#B8D766"/>
<path d="M131.733 55.1C131.733 55.1 129.542 53.5927 128.807 53.7194C128.073 53.846 128.111 54.4034 128.111 54.4034C128.111 54.4034 126.591 53.8777 126.35 54.1627C126.281 54.2398 126.236 54.335 126.219 54.437C126.202 54.5391 126.214 54.6438 126.255 54.739C126.255 54.739 125.824 54.872 125.799 55.0937C125.774 55.3153 125.894 55.5307 126.28 55.6257C126.28 55.6257 125.78 55.9677 125.983 56.259C126.083 56.4024 126.218 56.5179 126.375 56.5947C126.336 56.7001 126.331 56.8154 126.362 56.9237C126.392 57.032 126.457 57.1276 126.546 57.1963C128.182 57.7284 129.927 57.8287 131.613 57.4877L131.733 55.1Z" fill="#FFC4B0"/>
<path d="M98.5087 75.2337C98.5087 75.2337 99.332 73.6947 99.617 73.2514C99.902 72.8081 101.118 71.0981 101.618 71.0664C102.543 71.0094 100.846 73.2197 101.226 73.4731C101.606 73.7264 104.437 71.3387 105.026 71.1677C106.349 70.7941 105.602 71.9467 105.602 71.9467C105.602 71.9467 106.723 71.6617 106.945 72.0481C107.166 72.4344 106.28 73.0614 106.28 73.0614C106.28 73.0614 106.913 72.8207 106.964 73.3844C107.014 73.9481 106.286 74.2077 106.286 74.2077C106.286 74.2077 107.097 74.4104 106.609 75.0564C106.362 75.3857 101.055 77.2097 100.523 77.4947C99.9907 77.7797 98.5087 75.2337 98.5087 75.2337Z" fill="#EEAD97"/>
<path d="M105.634 71.9467L102.771 73.6377" stroke="#8C6239" stroke-width="0.25" stroke-miterlimit="10"/>
<path d="M106.305 73.0676L103.449 74.328" stroke="#8C6239" stroke-width="0.25" stroke-miterlimit="10"/>
<path d="M106.318 74.214L103.848 75.1007" stroke="#8C6239" stroke-width="0.25" stroke-miterlimit="10"/>
<path d="M81.016 133.5C80.123 132.924 78.9007 133.918 78.1343 133.83C77.368 133.741 77.0767 129.491 77.0767 129.491L72.5927 129.352L72.3267 137.813C72.9037 138.206 73.5297 138.521 74.1887 138.751C74.1887 138.751 73.891 134.875 74.7017 134.951C75.5123 135.027 75.8227 138.022 76.7917 138.326C77.7607 138.63 80.769 136.724 81.2693 136.382C81.7697 136.04 81.909 134.077 81.016 133.5Z" fill="#C15827"/>
<path d="M90.307 138.985C89.414 138.409 88.1917 139.403 87.4253 139.314C86.659 139.226 86.3677 134.976 86.3677 134.976L81.89 134.837L81.624 143.298C82.2015 143.688 82.8274 144.001 83.486 144.229C83.486 144.229 83.1883 140.353 83.999 140.429C84.8097 140.505 85.12 143.501 86.089 143.805C87.058 144.109 90.0663 142.202 90.5667 141.86C91.067 141.518 91.2 139.568 90.307 138.985Z" fill="#C15827"/>
<path d="M73.4223 91.751C73.4223 91.751 70.0783 98.0843 70.699 133.595C70.699 133.595 74.404 136.129 80.237 134.818C80.237 134.818 80.446 93.442 79.857 91.9473C79.268 90.4527 73.4223 91.751 73.4223 91.751Z" fill="#318A98"/>
<path d="M84.531 91.0036C85.7977 99.2053 87.0643 107.407 87.7483 115.704C88.3437 122.746 88.4957 129.833 88.901 136.895L88.9453 137.668C87.2713 138.517 85.428 138.979 83.5514 139.021C81.6748 139.062 79.8127 138.682 78.1027 137.908C78.1027 137.908 76.5193 103.449 76.665 98.7366C76.8107 94.0246 77.0513 88.5589 79.6733 87.8179C82.2953 87.0769 84.531 91.0036 84.531 91.0036Z" fill="#318A98"/>
<path d="M73.131 74.3533C73.131 74.3533 66.3987 83.0489 68.0643 86.0066C69.73 88.9643 76.7093 86.6399 76.7093 86.6399" fill="#A8C64E"/>
<path d="M98.363 74.1569C98.363 74.1569 92.3907 79.4833 90.041 78.0013C81.5733 72.6559 79.7683 72.6876 79.7683 72.6876C79.7683 72.6876 73.435 70.6483 72.523 73.3716C71.611 76.0949 72.599 91.2633 73.625 92.4729L73.682 92.5236C74.1977 92.8594 74.7476 93.1396 75.3223 93.3596C76.2085 93.6316 77.1181 93.8203 78.0393 93.9233C80.282 93.9834 82.4937 93.3893 84.4043 92.2133C85.234 90.0789 85.462 82.8589 85.462 82.8589C85.462 82.8589 88.8567 85.4429 92.72 84.4296C96.1526 83.5303 101.428 78.0963 101.428 78.0963C101.289 75.9239 98.363 74.1569 98.363 74.1569Z" fill="#B8D766"/>
<path d="M83.3277 66.7279C83.3277 66.7279 83.543 72.4279 82.4093 72.5292C81.2757 72.6306 79.097 72.0479 79.1033 70.9269C79.1097 69.8059 79.1033 67.2409 80.1357 66.8799C81.168 66.5189 82.802 65.7019 83.3277 66.7279Z" fill="#EEAD97"/>
<path d="M83.429 67.3613C83.6267 67.0703 83.7585 66.7396 83.8153 66.3924C83.8721 66.0452 83.8525 65.6897 83.7579 65.3509C83.6632 65.012 83.4958 64.6979 83.2672 64.4304C83.0387 64.1628 82.7546 63.9484 82.4347 63.802C80.009 62.396 75.9557 62.6936 74.9677 65.8413C74.0367 68.8053 75.031 69.3436 73.5997 70.319C72.1683 71.2943 70.2747 72.3203 71.003 74.233C71.7313 76.1456 72.1747 75.4996 72.523 76.2596C72.8713 77.0196 71.4337 78.2926 72.276 79.6923C73.1183 81.092 77.2413 82.2256 78.7803 80.5346C80.3193 78.8436 79.4643 76.4053 80.598 75.943C81.1466 75.7189 81.6046 75.3181 81.8995 74.8041C82.1944 74.2901 82.3092 73.6923 82.2257 73.1056C81.9787 72.0416 79.8443 70.148 80.674 69.0206C81.5036 67.8933 83.429 67.3613 83.429 67.3613Z" fill="#744122"/>
<path d="M76.931 101.808C76.931 101.378 76.2407 101.352 76.247 101.808C76.4919 113.833 77.0935 125.845 78.052 137.845C78.0837 138.269 78.7677 138.295 78.736 137.845C77.7564 125.854 77.1548 113.842 76.931 101.808Z" fill="#165C63"/>
<path d="M161.273 130.928L160.92 130.959C160.477 130.998 160.15 131.388 160.189 131.831L162.011 152.575C162.05 153.018 162.44 153.345 162.883 153.306L163.236 153.275C163.678 153.236 164.006 152.846 163.967 152.403L162.145 131.659C162.106 131.217 161.716 130.889 161.273 130.928Z" fill="#32A05C"/>
<path d="M157.414 130.551L157.064 130.493C156.626 130.42 156.212 130.717 156.139 131.155L152.734 151.699C152.662 152.137 152.958 152.551 153.396 152.624L153.746 152.682C154.184 152.755 154.599 152.458 154.671 152.02L158.076 131.476C158.149 131.038 157.852 130.624 157.414 130.551Z" fill="#32A05C"/>
<path d="M161.804 124.519L161.466 124.626C161.043 124.761 160.809 125.213 160.943 125.637L167.254 145.481C167.388 145.905 167.841 146.139 168.264 146.004L168.602 145.897C169.025 145.762 169.259 145.31 169.125 144.886L162.814 125.042C162.68 124.618 162.227 124.384 161.804 124.519Z" fill="#32A05C"/>
<path opacity="0.36" d="M161.273 130.928L160.92 130.959C160.477 130.998 160.15 131.388 160.189 131.831L162.011 152.575C162.05 153.018 162.44 153.345 162.883 153.306L163.236 153.275C163.678 153.236 164.006 152.846 163.967 152.403L162.145 131.659C162.106 131.217 161.716 130.889 161.273 130.928Z" fill="#606060"/>
<path opacity="0.36" d="M157.414 130.551L157.064 130.493C156.626 130.42 156.212 130.717 156.139 131.155L152.734 151.699C152.662 152.137 152.958 152.551 153.396 152.624L153.746 152.682C154.184 152.755 154.599 152.458 154.671 152.02L158.076 131.476C158.149 131.038 157.852 130.624 157.414 130.551Z" fill="#606060"/>
<path opacity="0.36" d="M161.804 124.519L161.466 124.626C161.043 124.761 160.809 125.213 160.943 125.637L167.254 145.481C167.388 145.905 167.841 146.139 168.264 146.004L168.602 145.897C169.025 145.762 169.259 145.31 169.125 144.886L162.814 125.042C162.68 124.618 162.227 124.384 161.804 124.519Z" fill="#606060"/>
<path d="M141.784 144.261C142.107 144.223 143.108 144.185 143.475 144.191C144.655 144.992 146.029 145.458 147.453 145.54C149.175 145.793 150.929 145.395 152.374 144.425L152.671 147.066C152.836 149.093 150.182 148.688 149.182 148.643C147.228 148.539 145.289 148.242 143.393 147.757C142.646 147.573 140.226 147.187 140.081 145.945C139.935 144.704 140.334 144.4 141.784 144.261Z" fill="#C24327"/>
<path d="M146.37 136.984C146.37 136.984 147.915 144.128 147.193 144.096C146.471 144.064 141.784 144.254 141.784 144.254C142.215 145.135 142.861 145.892 143.662 146.456C144.464 147.02 145.395 147.371 146.37 147.478C149.872 147.985 152.374 144.413 152.374 144.413L150.987 135.533" fill="#FFC4B0"/>
<path d="M152.956 133.684L153.995 139.384C153.995 139.384 152.361 141.062 146.857 140.866C141.354 140.67 146.857 130.821 146.857 130.821" fill="#A53421"/>
<path d="M155.401 118.389C155.401 118.389 149.264 113.462 145.185 112.879C141.107 112.296 138.985 116.723 139.27 119.681C139.555 122.639 149.321 124.26 149.321 124.26" fill="#EDBAB9"/>
<path d="M136.065 148.51C136.388 148.472 137.389 148.434 137.756 148.441C138.936 149.242 140.31 149.708 141.734 149.79C143.456 150.042 145.21 149.645 146.655 148.675L146.952 151.316C147.117 153.343 144.463 152.937 143.463 152.893C141.509 152.789 139.57 152.492 137.674 152.006C136.927 151.823 134.507 151.436 134.362 150.195C134.216 148.954 134.621 148.675 136.065 148.51Z" fill="#C24327"/>
<path d="M140.657 141.233C140.657 141.233 142.202 148.377 141.48 148.346C140.758 148.314 136.072 148.504 136.072 148.504C136.502 149.385 137.148 150.142 137.95 150.706C138.751 151.269 139.683 151.621 140.657 151.728C144.159 152.234 146.661 148.662 146.661 148.662L145.274 139.751" fill="#FFC4B0"/>
<path d="M155.015 118.617C155.015 118.617 148.878 113.69 144.799 113.107C140.72 112.524 138.599 116.951 138.884 119.909C139.169 122.867 148.935 124.488 148.935 124.488" fill="#EDBAB9"/>
<path d="M153.21 120.739C152.412 119.998 141.297 116.198 137.623 118.421C133.95 120.644 134.412 123.43 134.875 126.135C135.337 128.839 138.675 142.266 138.675 142.266C141.338 143.291 144.261 143.428 147.009 142.658L145.983 131.835L159.866 124.235" fill="#C24327"/>
<path d="M151.658 119.13L148.365 121.6L134.311 114.38L143.71 107.692L156.87 115.159L151.658 119.13Z" fill="#007058"/>
<path d="M165.686 111.08C165.686 111.08 165.933 102.803 162.133 102.663C158.333 102.524 153.438 105.241 153.165 109.63C152.893 114.019 152.158 122.202 152.158 123.734C152.158 125.267 154.92 130.942 154.92 130.942" fill="#4BE2C5"/>
<path d="M141.233 111.213L141.17 111.175C141.047 111.103 140.957 110.985 140.921 110.846C140.884 110.708 140.905 110.561 140.977 110.438C141.049 110.314 141.167 110.224 141.306 110.188C141.444 110.152 141.591 110.172 141.715 110.244L141.848 110.32C141.847 110.226 141.871 110.133 141.918 110.05C141.964 109.968 142.031 109.899 142.113 109.85C142.194 109.802 142.286 109.775 142.381 109.773C142.475 109.771 142.569 109.794 142.652 109.839C143.285 110.149 143.919 110.472 144.501 110.783L144.267 110.498C143.912 110.054 144.356 109.301 144.9 109.649C145.639 110.113 146.368 110.595 147.085 111.093C147.148 111.138 147.201 111.195 147.241 111.261C147.281 111.327 147.307 111.401 147.317 111.477C147.328 111.554 147.323 111.631 147.303 111.706C147.282 111.78 147.247 111.85 147.199 111.91L147.307 111.999C147.417 112.083 147.494 112.204 147.523 112.34C147.552 112.476 147.532 112.618 147.465 112.74C147.49 112.822 147.497 112.908 147.487 112.993C147.478 113.077 147.451 113.159 147.408 113.234C147.744 113.481 147.554 113.981 147.193 114.12L147.149 114.171L147.782 114.393C148.415 114.621 148.156 115.659 147.497 115.431L144.223 114.285C143.357 114.071 142.562 113.635 141.917 113.018C141.845 112.941 141.797 112.843 141.782 112.738C141.766 112.632 141.782 112.525 141.829 112.429C141.601 112.304 141.389 112.153 141.195 111.98C141.138 111.932 141.093 111.872 141.064 111.804C141.034 111.735 141.02 111.661 141.024 111.587C141.028 111.513 141.048 111.44 141.085 111.376C141.121 111.311 141.172 111.255 141.233 111.213Z" fill="#FFC4B0"/>
<path d="M154.635 113.272C154.635 113.272 148.745 110.878 146.99 110.365C146.99 110.365 145.173 111.631 145.679 114.994C145.679 114.994 150.987 120.422 154.28 122.05" fill="#4BE2C5"/>
<path d="M159.22 101.479C159.141 101.374 159.102 101.245 159.109 101.114C159.116 100.983 159.169 100.859 159.258 100.763C159.494 100.439 159.813 100.185 160.183 100.029C160.29 99.9952 160.402 99.9841 160.513 99.9959C160.625 100.008 160.732 100.042 160.83 100.098C160.927 100.153 161.012 100.228 161.08 100.317C161.147 100.406 161.195 100.509 161.221 100.618C161.25 100.834 161.227 101.054 161.154 101.259C161.082 101.465 160.961 101.651 160.803 101.801C160.645 101.951 160.453 102.061 160.244 102.123C160.035 102.185 159.814 102.197 159.6 102.157C159.469 102.117 159.358 102.03 159.288 101.913C159.218 101.796 159.194 101.657 159.22 101.523V101.479Z" fill="#FF666D"/>
<path d="M169.1 128.104C169.34 127.533 169.537 126.944 169.689 126.344C170.854 121.771 171.621 104.601 163.9 105.304C155.433 106.071 158.295 127.275 149.707 126.622C141.119 125.97 137.611 128.206 141.119 131.531C148.124 138.168 164.774 138.32 169.1 128.104Z" fill="#32A05C"/>
<path d="M157.89 95.1584C157.89 95.1584 156.345 101.555 158.523 102.885C160.062 103.829 162.589 103.214 163.451 100.719C164.312 98.2237 160.164 93.575 157.89 95.1584Z" fill="#FFC4B0"/>
<path d="M161.038 100.282C159.405 99.0629 158.254 97.3069 157.789 95.323C157.155 92.1944 164.331 92.5934 165.712 95.5827C166.788 97.9134 165.68 102.739 161.715 102.866L161.038 100.282Z" fill="#C24327"/>
<path d="M163.742 101.029C164.261 101.39 177.732 112.695 171.792 117.496C166.839 121.505 163.02 103.398 162.887 101.998" fill="#C24327"/>
<path d="M160.176 99.712C160.176 99.712 160.569 98.4454 161.247 99.0787C161.804 99.579 161.418 101.289 160.936 101.105" fill="#FFC4B0"/>
<path d="M198.67 46.7084L198.081 79.0844C198.074 79.4279 197.981 79.7641 197.809 80.0618C197.638 80.3594 197.394 80.6089 197.1 80.7871C196.806 80.9653 196.472 81.0663 196.129 81.0809C195.786 81.0954 195.444 81.023 195.136 80.8704L167.624 67.1334C167.168 66.906 166.785 66.5538 166.521 66.1178C166.256 65.6817 166.12 65.1796 166.13 64.6697L166.719 32.3C166.729 31.9283 166.834 31.5654 167.023 31.245C167.211 30.9246 167.478 30.6571 167.798 30.4675C168.118 30.2778 168.48 30.1722 168.852 30.1604C169.224 30.1486 169.592 30.231 169.923 30.4L197.201 44.27C197.649 44.4991 198.024 44.8488 198.283 45.2796C198.543 45.7105 198.677 46.2054 198.67 46.7084Z" fill="#32A05C"/>
<path opacity="0.36" d="M170.905 51.6167C176.143 53.0924 174.331 58.9064 178.1 61.997C182.679 65.759 184.433 55.081 190.032 55.7524C196.777 56.5567 198.081 79.0844 198.081 79.0844C197.011 81.6177 195.136 80.8704 195.136 80.8704L166.098 66.405L166.326 53.941C167.542 52.5287 169.049 51.4267 170.905 51.6167Z" fill="#606060"/>
<path style="mix-blend-mode:multiply" d="M191.843 124.849C189.107 126.565 186.301 128.377 183.42 129.916L190.741 133.716L195.979 127.927C194.437 127.14 193.039 126.099 191.843 124.849Z" fill="url(#paint3_linear)"/>
<path d="M199.5 115.837C199.5 115.837 199.126 128.845 193.572 129.137C188.018 129.428 187.644 115.837 187.644 115.837" fill="#6DE2FC"/>
<path d="M199.5 115.837C199.5 115.837 199.126 128.845 193.572 129.137C188.018 129.428 187.644 115.837 187.644 115.837" fill="#C24327"/>
<path d="M193.585 118.3C196.859 118.3 199.513 117.197 199.513 115.837C199.513 114.476 196.859 113.373 193.585 113.373C190.311 113.373 187.657 114.476 187.657 115.837C187.657 117.197 190.311 118.3 193.585 118.3Z" fill="#311E69"/>
<path d="M195.2 117.515C196.288 112.262 198.165 107.203 200.767 102.511C200.982 102.125 201.691 102.461 201.482 102.847C198.92 107.491 197.075 112.496 196.01 117.692C195.915 118.11 195.117 117.933 195.2 117.515Z" fill="#311E69"/>
<path d="M191.811 118.338C192.234 112.043 192.939 105.767 193.927 99.5094C193.996 99.0914 194.82 99.085 194.756 99.5094C193.756 105.75 193.051 112.016 192.641 118.307L191.811 118.338Z" fill="#311E69"/>
<path d="M202.591 101.289C203.564 101.08 204.577 101.144 205.517 101.473C206.182 101.707 207.562 102.378 207.29 103.1C207.018 103.822 205.346 103.734 204.681 103.55C204.202 103.439 203.751 103.23 203.357 102.937C202.963 102.644 202.633 102.272 202.388 101.846C202.385 101.821 202.385 101.796 202.388 101.77C202.357 101.728 202.337 101.678 202.331 101.626C202.325 101.574 202.332 101.521 202.353 101.472C202.373 101.424 202.406 101.381 202.447 101.349C202.489 101.317 202.539 101.296 202.591 101.289Z" fill="#C3EA75"/>
<path d="M201.286 100.896C201.311 100.944 201.347 100.986 201.389 101.02C201.432 101.053 201.481 101.077 201.534 101.09C201.586 101.103 201.641 101.105 201.694 101.096C201.748 101.086 201.798 101.066 201.843 101.036C202.749 100.504 203.883 100.168 204.522 99.3826C204.966 98.838 205.156 97.9386 204.345 97.5397C203.956 97.3833 203.531 97.3414 203.119 97.4188C202.707 97.4962 202.326 97.6898 202.021 97.9767C201.28 98.6606 201.21 99.6613 201.033 100.51C201.019 100.594 201.037 100.681 201.084 100.752C201.131 100.824 201.203 100.875 201.286 100.896ZM202.996 98.1477V98.23C202.732 98.4008 202.499 98.6149 202.306 98.8633C202.471 98.5747 202.709 98.3345 202.996 98.1667V98.1477Z" fill="#C3EA75"/>
<path d="M198.867 99.1547C200.203 98.6733 200.431 100.51 200.469 101.124C200.469 101.2 200.442 101.273 200.391 101.329C200.341 101.385 200.272 101.42 200.197 101.428C200.113 101.489 200.012 101.521 199.908 101.521C199.805 101.521 199.704 101.489 199.62 101.428C199.171 101.105 198.601 100.795 198.461 100.301C198.354 99.9273 198.354 99.3383 198.867 99.1547Z" fill="#C3EA75"/>
<path d="M193.8 98.2933C193.864 98.3966 193.965 98.472 194.082 98.5048C194.199 98.5376 194.325 98.5254 194.433 98.4706C194.502 98.4843 194.573 98.4843 194.642 98.4706C195.675 98.344 196.2 97.033 196.384 96.3426C196.568 95.6523 196.77 94.525 195.751 94.164C195.315 94.0262 194.843 94.0588 194.431 94.255C194.018 94.4513 193.696 94.7968 193.528 95.2216C193.216 96.2421 193.314 97.3436 193.8 98.2933ZM194.357 97.356C194.33 97.1797 194.33 97.0003 194.357 96.824C194.349 96.9442 194.349 97.0648 194.357 97.185C194.433 97.261 194.389 97.3116 194.37 97.3623L194.357 97.356Z" fill="#C3EA75"/>
<path d="M188.379 98.477C188.341 99.3257 189.392 99.6677 190.279 99.807C190.817 99.8893 192.755 100.276 192.812 99.5157C192.864 99.4716 192.899 99.4111 192.912 99.3443C192.924 99.2775 192.914 99.2083 192.882 99.1483C192.451 98.344 191.431 97.9893 190.437 97.774C189.576 97.5903 188.417 97.5333 188.379 98.477ZM189.189 98.439C189.221 98.4883 189.257 98.5349 189.297 98.5783C189.266 98.6234 189.246 98.6757 189.24 98.7303C189.196 98.6974 189.166 98.6489 189.157 98.5947C189.147 98.5406 189.159 98.4848 189.189 98.439Z" fill="#C3EA75"/>
<path d="M195.808 99.1293C195.853 99.2148 195.926 99.2832 196.014 99.3243C196.101 99.3654 196.2 99.377 196.295 99.3573C196.856 99.3047 197.395 99.1155 197.866 98.8063C197.953 98.7527 198.028 98.6822 198.088 98.599C198.147 98.5158 198.189 98.4216 198.212 98.3218C198.234 98.2221 198.237 98.1189 198.218 98.0182C198.2 97.9176 198.162 97.8216 198.107 97.7359C197.473 96.9696 195.998 98.2616 195.618 98.6796C195.434 98.8759 195.586 99.0659 195.808 99.1293ZM196.967 98.4959H196.897L197.315 98.2679C197.217 98.3699 197.098 98.4498 196.967 98.5023V98.4959Z" fill="#C3EA75"/>
<defs>
<linearGradient id="paint0_linear" x1="85.519" y1="130.593" x2="74.4737" y2="144.014" gradientUnits="userSpaceOnUse">
<stop stop-color="#1B1464"/>
<stop offset="1" stop-color="white"/>
</linearGradient>
<linearGradient id="paint1_linear" x1="146.442" y1="156.115" x2="151.273" y2="144.625" gradientUnits="userSpaceOnUse">
<stop stop-opacity="0"/>
<stop offset="0.99" stop-color="#006837"/>
</linearGradient>
<linearGradient id="paint2_linear" x1="120.713" y1="109.508" x2="128.568" y2="98.2553" gradientUnits="userSpaceOnUse">
<stop stop-opacity="0"/>
<stop offset="0.99" stop-color="#006837"/>
</linearGradient>
<linearGradient id="paint3_linear" x1="4040.41" y1="1848.17" x2="3962.22" y2="1982.71" gradientUnits="userSpaceOnUse">
<stop stop-color="#1B1464"/>
<stop offset="1" stop-color="white"/>
</linearGradient>
</defs>
</svg>
