<svg width="42" height="42" viewBox="0 0 42 42" fill="none" xmlns="http://www.w3.org/2000/svg">
<path d="M21 10.5C23.8995 10.5 26.25 8.1495 26.25 5.25C26.25 2.3505 23.8995 0 21 0C18.1005 0 15.75 2.3505 15.75 5.25C15.75 8.1495 18.1005 10.5 21 10.5Z" fill="black"/>
<path d="M28.8645 24.7695L27.6727 15.4875C27.5389 14.1409 26.4154 13.125 25.0635 13.125H16.9391C15.5846 13.125 14.4611 14.1409 14.3299 15.4534L13.1355 24.7721C13.0883 25.1449 13.2037 25.5229 13.4531 25.8038C13.7025 26.0872 14.0595 26.25 14.4375 26.25H15.9075L16.9496 34.3875C17.0835 35.7315 18.2096 36.75 19.5641 36.75H22.4385C23.793 36.75 24.9165 35.7315 25.0477 34.4216L26.0925 26.25H27.5625C27.9405 26.25 28.2975 26.0872 28.5469 25.8038C28.7989 25.5229 28.9144 25.1449 28.8645 24.7695Z" fill="black"/>
<path d="M28.329 29.4604L28.0035 31.9909C33.5317 32.7994 36.75 34.4216 36.75 35.4375C36.75 36.8261 30.7703 39.375 21 39.375C11.2298 39.375 5.25 36.8261 5.25 35.4375C5.25 34.4216 8.46825 32.7968 13.9991 31.9909L13.6736 29.4604C7.48913 30.3161 2.625 32.3032 2.625 35.4375C2.625 39.7478 11.8676 42 21 42C30.1324 42 39.375 39.7478 39.375 35.4375C39.375 32.3032 34.5109 30.3161 28.329 29.4604Z" fill="black"/>
</svg>
